<svg width="1920" height="298" viewBox="0 0 1920 298" fill="none" xmlns="http://www.w3.org/2000/svg">
<path d="M-108 138.677C-16 227 354.82 219.63 359.421 131.492C365.173 21.3193 299.511 109.458 368.049 138.677C436.586 167.897 511.833 152.09 570.785 112.332C629.737 72.5736 750.036 104.667 767.77 199.991C785.503 295.314 668.079 205.739 773.521 154.006C878.963 102.272 998.152 131.492 1107.58 199.991C1182.4 246.827 1319.76 219.181 1367.83 131.492C1422.39 31.9742 1536.06 108.978 1561.94 131.492C1587.82 154.006 1752.69 94.6082 1752.22 62.9934C1751.74 31.3786 1666.42 45.7488 1677.93 131.492C1689.43 217.235 1760.36 203.823 1821.71 154.006C1883.06 104.188 1976.5 131.492 2040 227C2136.54 372.204 2284.08 256.035 2309 199.991C2333.92 143.946 2174.46 -37.5994 2243 8.38578" stroke="white"/>
</svg>
