<svg width="1440" height="218" viewBox="0 0 1440 218" fill="none" xmlns="http://www.w3.org/2000/svg">
<path d="M-32 151.401C48.4689 173.169 210.421 197.198 214.48 119.174C219.553 21.6437 161.633 99.6677 222.09 125.534C282.547 151.401 348.924 137.408 400.925 102.212C452.927 67.0164 559.045 95.4273 574.687 179.812C590.33 264.197 486.749 184.901 579.761 139.104C672.772 93.3071 777.91 119.174 874.437 179.812C940.438 221.273 1061.6 196.8 1104.01 119.174C1152.13 31.0759 1252.4 99.2436 1275.23 119.174C1298.06 139.104 1443.5 86.5224 1443.07 58.5355C1442.65 30.5487 1367.4 43.2699 1377.54 119.174C1387.69 195.078 1450.26 183.205 1504.38 139.104C1558.49 95.0031 1624.87 160.306 1634.59 198.47C1644.32 236.634 1706.04 173.451 1728.03 123.838C1750.01 74.225 1815.54 -30.5138 1876 10.1944" stroke="white"/>
</svg>
