<svg width="124" height="36" viewBox="0 0 124 36" fill="none" xmlns="http://www.w3.org/2000/svg">
<path d="M123.314 31.5102C123.314 33.4089 121.744 34.9469 119.802 34.9469H4.86905C2.92799 34.9469 1.35242 33.4089 1.35242 31.5102V4.10333C1.35242 2.2055 2.92799 0.662109 4.86905 0.662109H119.801C121.744 0.662109 123.313 2.2055 123.313 4.10333L123.314 31.5102Z" fill="white"/>
<path d="M119.432 0.703548C121.547 0.703548 123.268 2.38147 123.268 4.44351V31.1655C123.268 33.2275 121.547 34.9054 119.432 34.9054H5.2357C3.12079 34.9054 1.39985 33.2275 1.39985 31.1655V4.44351C1.39985 2.38147 3.12079 0.703548 5.2357 0.703548H119.432ZM119.432 -0.0101509H5.2357C2.72452 -0.0101509 0.667847 1.99511 0.667847 4.44351V31.1655C0.667847 33.6139 2.72452 35.6191 5.2357 35.6191H119.432C121.943 35.6191 124 33.6139 124 31.1655V4.44351C124 1.99511 121.943 -0.0101509 119.432 -0.0101509Z" fill="white"/>
<path d="M28.1916 17.6139C28.1652 14.743 30.6026 13.3464 30.714 13.2813C29.3336 11.3191 27.194 11.0509 26.4422 11.0296C24.6452 10.8452 22.9021 12.078 21.9867 12.078C21.053 12.078 19.6434 11.0474 18.1241 11.0777C16.169 11.1071 14.3401 12.2107 13.337 13.9244C11.2668 17.4188 12.8108 22.5539 14.7941 25.3784C15.7863 26.7617 16.9456 28.3062 18.463 28.2519C19.9476 28.1922 20.5021 27.3291 22.2936 27.3291C24.0687 27.3291 24.5894 28.2519 26.137 28.2171C27.7303 28.1922 28.7334 26.8276 29.6908 25.4318C30.8373 23.8463 31.2978 22.2849 31.3161 22.2047C31.2786 22.1922 28.2218 21.0548 28.1916 17.6139Z" fill="#823F91"/>
<path d="M25.2682 9.1715C26.0667 8.19793 26.613 6.87341 26.4613 5.5293C25.3057 5.57918 23.8604 6.30869 23.0281 7.26088C22.2918 8.09995 21.634 9.47524 21.804 10.7686C23.1021 10.863 24.435 10.1299 25.2682 9.1715Z" fill="#823F91"/>
<path d="M45.4778 8.90528C45.4778 9.95367 45.1553 10.7429 44.5112 11.2728C43.9147 11.7619 43.0669 12.0068 41.9687 12.0068C41.4243 12.0068 40.9583 11.9836 40.5682 11.9373V6.20903C41.0771 6.12886 41.6252 6.08789 42.2172 6.08789C43.2633 6.08789 44.0517 6.30968 44.5834 6.75327C45.179 7.25475 45.4778 7.97179 45.4778 8.90528ZM44.4683 8.93111C44.4683 8.25148 44.2837 7.7304 43.9147 7.36698C43.5456 7.00445 43.0066 6.82274 42.2967 6.82274C41.9952 6.82274 41.7385 6.84234 41.5257 6.88331V11.2381C41.6435 11.2559 41.8591 11.2639 42.1725 11.2639C42.9052 11.2639 43.4707 11.0653 43.869 10.668C44.2673 10.2708 44.4683 9.69179 44.4683 8.93111Z" fill="#823F91"/>
<path d="M50.8301 9.82015C50.8301 10.4659 50.641 10.995 50.2628 11.4101C49.8663 11.8368 49.341 12.0497 48.6851 12.0497C48.0529 12.0497 47.5495 11.8457 47.174 11.4359C46.7995 11.0271 46.6122 10.5114 46.6122 9.88963C46.6122 9.23939 46.8049 8.70584 47.1923 8.29165C47.5797 7.87746 48.1004 7.66992 48.7563 7.66992C49.3885 7.66992 49.8965 7.8739 50.2811 8.28275C50.6465 8.68001 50.8301 9.19307 50.8301 9.82015ZM49.8371 9.85043C49.8371 9.46297 49.7512 9.13072 49.5804 8.8537C49.3794 8.51879 49.0934 8.35133 48.7216 8.35133C48.337 8.35133 48.0447 8.51879 47.8437 8.8537C47.6719 9.13072 47.587 9.46831 47.587 9.86736C47.587 10.2548 47.6728 10.5871 47.8437 10.8641C48.0511 11.199 48.3397 11.3665 48.7125 11.3665C49.0779 11.3665 49.3648 11.1963 49.5712 10.8552C49.7485 10.5728 49.8371 10.2379 49.8371 9.85043Z" fill="#823F91"/>
<path d="M58.0067 7.75586L56.6591 11.9548H55.7821L55.2239 10.1314C55.0823 9.67628 54.9672 9.22379 54.8777 8.77486H54.8603C54.7772 9.23626 54.6621 9.68786 54.5141 10.1314L53.9212 11.9548H53.0341L51.767 7.75586H52.7509L53.2378 9.75199C53.3557 10.2241 53.4525 10.6739 53.5302 11.0997H53.5475C53.6188 10.7487 53.7366 10.3016 53.9029 9.7609L54.5141 7.75675H55.2943L55.8799 9.71814C56.0215 10.1965 56.1366 10.657 56.2252 11.1006H56.2517C56.3166 10.6686 56.4143 10.208 56.544 9.71814L57.0666 7.75675H58.0067V7.75586Z" fill="#823F91"/>
<path d="M62.971 11.957H62.0136V9.55204C62.0136 8.81095 61.7249 8.44041 61.1457 8.44041C60.8616 8.44041 60.6323 8.54195 60.4542 8.74593C60.2778 8.9499 60.1883 9.1904 60.1883 9.46564V11.9561H59.2309V8.95792C59.2309 8.58916 59.219 8.18922 59.1962 7.75632H60.0376L60.0823 8.41279H60.1088C60.2203 8.20882 60.3865 8.04047 60.6049 7.90597C60.8643 7.7492 61.1549 7.66992 61.4728 7.66992C61.8748 7.66992 62.2091 7.79641 62.475 8.05026C62.8057 8.36113 62.971 8.8252 62.971 9.44159V11.957Z" fill="#823F91"/>
<path d="M65.6114 11.9556H64.6549V5.83008H65.6114V11.9556Z" fill="#823F91"/>
<path d="M71.2481 9.82015C71.2481 10.4659 71.059 10.995 70.6808 11.4101C70.2843 11.8368 69.7581 12.0497 69.103 12.0497C68.4699 12.0497 67.9666 11.8457 67.592 11.4359C67.2174 11.0271 67.0302 10.5114 67.0302 9.88963C67.0302 9.23939 67.2229 8.70584 67.6103 8.29165C67.9976 7.87746 68.5184 7.66992 69.1734 7.66992C69.8065 7.66992 70.3135 7.8739 70.6991 8.28275C71.0645 8.68001 71.2481 9.19307 71.2481 9.82015ZM70.2541 9.85043C70.2541 9.46297 70.1683 9.13072 69.9974 8.8537C69.7974 8.51879 69.5105 8.35133 69.1396 8.35133C68.7541 8.35133 68.4617 8.51879 68.2616 8.8537C68.0899 9.13072 68.0049 9.46831 68.0049 9.86736C68.0049 10.2548 68.0908 10.5871 68.2616 10.8641C68.469 11.199 68.7577 11.3665 69.1305 11.3665C69.4959 11.3665 69.7818 11.1963 69.9883 10.8552C70.1664 10.5728 70.2541 10.2379 70.2541 9.85043Z" fill="#823F91"/>
<path d="M75.8811 11.9543H75.0214L74.9502 11.4707H74.9237C74.6295 11.8564 74.2102 12.0497 73.6657 12.0497C73.2592 12.0497 72.9303 11.9223 72.6827 11.6693C72.458 11.4395 72.3456 11.1536 72.3456 10.8142C72.3456 10.3011 72.5648 9.91011 73.0061 9.63933C73.4464 9.36855 74.0658 9.23583 74.8634 9.24206V9.16368C74.8634 8.61054 74.5656 8.33441 73.969 8.33441C73.5442 8.33441 73.1696 8.43862 72.8462 8.64527L72.6516 8.03245C73.0518 7.79106 73.546 7.66992 74.1289 7.66992C75.2544 7.66992 75.819 8.2489 75.819 9.40685V10.9532C75.819 11.3727 75.84 11.7067 75.8811 11.9543ZM74.8871 10.5114V9.8638C73.831 9.84598 73.303 10.1283 73.303 10.71C73.303 10.9291 73.3633 11.093 73.4866 11.2026C73.61 11.3121 73.7671 11.3665 73.9544 11.3665C74.1645 11.3665 74.3609 11.3014 74.54 11.1723C74.7199 11.0422 74.8305 10.8774 74.8716 10.6753C74.8817 10.6298 74.8871 10.5746 74.8871 10.5114Z" fill="#823F91"/>
<path d="M81.3209 11.9556H80.4713L80.4265 11.2814H80.4C80.1287 11.7944 79.6664 12.051 79.0169 12.051C78.498 12.051 78.0659 11.8523 77.7233 11.4551C77.3807 11.0578 77.2098 10.5421 77.2098 9.90874C77.2098 9.22911 77.3953 8.67864 77.768 8.25821C78.1289 7.86629 78.5711 7.67033 79.0973 7.67033C79.6756 7.67033 80.0803 7.86006 80.3105 8.2404H80.3288V5.83008H81.2871V10.8244C81.2871 11.2333 81.2981 11.61 81.3209 11.9556ZM80.3288 10.1849V9.48475C80.3288 9.36361 80.3196 9.26563 80.3023 9.19081C80.2484 8.96635 80.1323 8.77751 79.956 8.6252C79.7779 8.47288 79.5632 8.39628 79.3156 8.39628C78.9584 8.39628 78.6789 8.53434 78.4733 8.81136C78.2696 9.08838 78.1663 9.442 78.1663 9.874C78.1663 10.2891 78.2641 10.6258 78.4605 10.885C78.6679 11.1611 78.9474 11.2992 79.2973 11.2992C79.6116 11.2992 79.8628 11.1843 80.0538 10.9536C80.2383 10.7407 80.3288 10.4842 80.3288 10.1849Z" fill="#823F91"/>
<path d="M89.5098 9.82015C89.5098 10.4659 89.3207 10.995 88.9425 11.4101C88.546 11.8368 88.0216 12.0497 87.3648 12.0497C86.7335 12.0497 86.2301 11.8457 85.8537 11.4359C85.4792 11.0271 85.2919 10.5114 85.2919 9.88963C85.2919 9.23939 85.4846 8.70584 85.872 8.29165C86.2593 7.87746 86.7801 7.66992 87.4369 7.66992C88.0682 7.66992 88.5771 7.8739 88.9608 8.28275C89.3262 8.68001 89.5098 9.19307 89.5098 9.82015ZM88.5177 9.85043C88.5177 9.46297 88.4318 9.13072 88.261 8.8537C88.0591 8.51879 87.774 8.35133 87.4013 8.35133C87.0176 8.35133 86.7253 8.51879 86.5234 8.8537C86.3516 9.13072 86.2667 9.46831 86.2667 9.86736C86.2667 10.2548 86.3525 10.5871 86.5234 10.8641C86.7307 11.199 87.0194 11.3665 87.3922 11.3665C87.7576 11.3665 88.0454 11.1963 88.2518 10.8552C88.4282 10.5728 88.5177 10.2379 88.5177 9.85043Z" fill="#823F91"/>
<path d="M94.6576 11.957H93.7011V9.55204C93.7011 8.81095 93.4124 8.44041 92.8323 8.44041C92.5482 8.44041 92.3189 8.54195 92.1417 8.74593C91.9644 8.9499 91.8758 9.1904 91.8758 9.46564V11.9561H90.9175V8.95792C90.9175 8.58916 90.9065 8.18922 90.8837 7.75632H91.7241L91.7689 8.41279H91.7954C91.9078 8.20882 92.074 8.04047 92.2915 7.90597C92.5518 7.7492 92.8415 7.66992 93.1603 7.66992C93.5613 7.66992 93.8957 7.79641 94.1616 8.05026C94.4932 8.36113 94.6576 8.8252 94.6576 9.44159V11.957Z" fill="#823F91"/>
<path d="M101.101 8.45783H100.046V10.4976C100.046 11.016 100.234 11.2752 100.605 11.2752C100.776 11.2752 100.919 11.261 101.031 11.2316L101.056 11.9397C100.867 12.0092 100.618 12.0439 100.312 12.0439C99.9341 12.0439 99.64 11.9317 99.4271 11.7072C99.2133 11.4828 99.1074 11.1051 99.1074 10.5751V8.45783H98.4779V7.75861H99.1074V6.98902L100.046 6.71289V7.75772H101.1V8.45783H101.101Z" fill="#823F91"/>
<path d="M106.17 11.9556H105.212V9.56848C105.212 8.81581 104.923 8.43903 104.345 8.43903C103.901 8.43903 103.597 8.65726 103.431 9.09372C103.403 9.18547 103.386 9.2977 103.386 9.42953V11.9548H102.43V5.83008H103.386V8.36065H103.405C103.706 7.90014 104.138 7.67033 104.698 7.67033C105.095 7.67033 105.423 7.79681 105.683 8.05067C106.007 8.36688 106.17 8.83719 106.17 9.45892V11.9556Z" fill="#823F91"/>
<path d="M111.399 9.65646C111.399 9.82392 111.386 9.96465 111.363 10.0796H108.492C108.505 10.4946 108.642 10.8108 108.908 11.03C109.151 11.2259 109.464 11.3239 109.848 11.3239C110.273 11.3239 110.66 11.258 111.009 11.1253L111.159 11.7737C110.75 11.9465 110.27 12.0329 109.713 12.0329C109.047 12.0329 108.521 11.8414 108.141 11.4584C107.759 11.0754 107.57 10.5614 107.57 9.91655C107.57 9.28324 107.747 8.75593 108.102 8.3355C108.473 7.88657 108.974 7.66211 109.607 7.66211C110.227 7.66211 110.697 7.88657 111.015 8.3355C111.272 8.6918 111.399 9.13271 111.399 9.65646ZM110.485 9.41507C110.493 9.13805 110.43 8.89934 110.3 8.69803C110.134 8.43883 109.881 8.30878 109.538 8.30878C109.226 8.30878 108.971 8.43526 108.776 8.68912C108.617 8.89132 108.523 9.13271 108.492 9.41507H110.485Z" fill="#823F91"/>
<path d="M49.676 28.0511H47.6012L46.4648 24.5693H42.5145L41.4319 28.0511H39.412L43.3257 16.1973H45.743L49.676 28.0511ZM46.1222 23.1085L45.0944 20.0132C44.9857 19.697 44.782 18.9523 44.4814 17.7801H44.4449C44.3252 18.2843 44.1324 19.0289 43.8675 20.0132L42.858 23.1085H46.1222Z" fill="#823F91"/>
<path d="M59.7407 23.6742C59.7407 25.1279 59.3378 26.2769 58.532 27.1204C57.8103 27.8713 56.9141 28.2463 55.8443 28.2463C54.6895 28.2463 53.86 27.8419 53.3548 27.0331H53.3182V31.5358H51.3705V22.3194C51.3705 21.4055 51.3458 20.4675 51.2983 19.5056H53.0113L53.12 20.8604H53.1565C53.8061 19.8396 54.7918 19.3301 56.1147 19.3301C57.1488 19.3301 58.0122 19.7282 58.7028 20.5254C59.3953 21.3235 59.7407 22.3728 59.7407 23.6742ZM57.7564 23.7437C57.7564 22.9117 57.5645 22.2258 57.179 21.6861C56.7578 21.1231 56.1923 20.8417 55.4834 20.8417C55.0029 20.8417 54.5662 20.9984 54.1761 21.3075C53.7851 21.6193 53.5293 22.0263 53.4096 22.5305C53.3493 22.7656 53.3192 22.958 53.3192 23.1095V24.5346C53.3192 25.1564 53.5147 25.681 53.9057 26.1094C54.2967 26.5379 54.8046 26.7517 55.4295 26.7517C56.1631 26.7517 56.7341 26.4755 57.1425 25.9251C57.5517 25.3737 57.7564 24.6469 57.7564 23.7437Z" fill="#823F91"/>
<path d="M69.8232 23.6742C69.8232 25.1279 69.4204 26.2769 68.6137 27.1204C67.8929 27.8713 66.9966 28.2463 65.9269 28.2463C64.7721 28.2463 63.9426 27.8419 63.4383 27.0331H63.4017V31.5358H61.454V22.3194C61.454 21.4055 61.4293 20.4675 61.3818 19.5056H63.0948L63.2035 20.8604H63.24C63.8887 19.8396 64.8744 19.3301 66.1982 19.3301C67.2314 19.3301 68.0948 19.7282 68.7873 20.5254C69.477 21.3235 69.8232 22.3728 69.8232 23.6742ZM67.839 23.7437C67.839 22.9117 67.6462 22.2258 67.2607 21.6861C66.8395 21.1231 66.2758 20.8417 65.566 20.8417C65.0845 20.8417 64.6488 20.9984 64.2578 21.3075C63.8668 21.6193 63.6119 22.0263 63.4922 22.5305C63.4328 22.7656 63.4017 22.958 63.4017 23.1095V24.5346C63.4017 25.1564 63.5972 25.681 63.9864 26.1094C64.3774 26.537 64.8854 26.7517 65.5121 26.7517C66.2457 26.7517 66.8167 26.4755 67.225 25.9251C67.6343 25.3737 67.839 24.6469 67.839 23.7437Z" fill="#823F91"/>
<path d="M81.0969 24.7287C81.0969 25.737 80.7379 26.5574 80.0171 27.1907C79.225 27.8828 78.1223 28.2284 76.7054 28.2284C75.3971 28.2284 74.3483 27.9826 73.5544 27.49L74.0058 25.9072C74.8609 26.4113 75.7991 26.6643 76.8214 26.6643C77.555 26.6643 78.126 26.5022 78.5362 26.1797C78.9445 25.8573 79.1482 25.4244 79.1482 24.8846C79.1482 24.4036 78.9801 23.9983 78.643 23.6697C78.3078 23.341 77.7477 23.0355 76.9657 22.7531C74.8371 21.979 73.7737 20.8451 73.7737 19.3541C73.7737 18.3796 74.1464 17.5806 74.8928 16.9589C75.6365 16.3363 76.6286 16.0254 77.8692 16.0254C78.9756 16.0254 79.8946 16.2133 80.6282 16.5883L80.1413 18.1364C79.4561 17.773 78.6814 17.5913 77.8144 17.5913C77.1293 17.5913 76.5939 17.7561 76.2102 18.0839C75.8859 18.3769 75.7233 18.7341 75.7233 19.1572C75.7233 19.6257 75.9087 20.0132 76.2815 20.3178C76.6058 20.5993 77.195 20.9039 78.0501 21.2326C79.0962 21.6432 79.8645 22.1233 80.3587 22.6738C80.8511 23.2225 81.0969 23.9093 81.0969 24.7287Z" fill="#823F91"/>
<path d="M87.5375 20.9319H85.3906V25.0818C85.3906 26.1373 85.7688 26.6646 86.5271 26.6646C86.8752 26.6646 87.1639 26.6352 87.3923 26.5764L87.4462 28.0185C87.0625 28.1584 86.5573 28.2287 85.9315 28.2287C85.1622 28.2287 84.5611 27.9998 84.1272 27.5429C83.695 27.085 83.4776 26.3172 83.4776 25.2386V20.9301H82.1986V19.5049H83.4776V17.9399L85.3906 17.377V19.5049H87.5375V20.9319Z" fill="#823F91"/>
<path d="M97.2233 23.708C97.2233 25.0219 96.8377 26.1005 96.0685 26.9441C95.2618 27.8125 94.1911 28.2454 92.8564 28.2454C91.5701 28.2454 90.546 27.8294 89.7822 26.9975C89.0185 26.1656 88.6366 25.1154 88.6366 23.8497C88.6366 22.5251 89.0294 21.4402 89.8178 20.5967C90.6044 19.7523 91.666 19.3301 93.0007 19.3301C94.287 19.3301 95.3221 19.7461 96.1032 20.5789C96.8505 21.3868 97.2233 22.4298 97.2233 23.708ZM95.2024 23.7695C95.2024 22.9812 95.0298 22.3051 94.6799 21.7413C94.2715 21.059 93.6877 20.7187 92.9313 20.7187C92.1484 20.7187 91.5536 21.0599 91.1453 21.7413C90.7954 22.306 90.6227 22.9928 90.6227 23.8051C90.6227 24.5934 90.7954 25.2695 91.1453 25.8324C91.5664 26.5147 92.1548 26.855 92.9139 26.855C93.6576 26.855 94.2414 26.5076 94.6625 25.8146C95.0215 25.2401 95.2024 24.5569 95.2024 23.7695Z" fill="#823F91"/>
<path d="M103.555 21.1757C103.362 21.1409 103.157 21.1231 102.941 21.1231C102.256 21.1231 101.726 21.3752 101.353 21.8802C101.029 22.3256 100.866 22.8886 100.866 23.5682V28.053H98.9196L98.9378 22.1973C98.9378 21.2122 98.9132 20.3152 98.8647 19.5064H100.561L100.633 21.1418H100.686C100.892 20.5798 101.216 20.1273 101.66 19.7879C102.094 19.4824 102.563 19.3301 103.068 19.3301C103.248 19.3301 103.411 19.3425 103.555 19.3648V21.1757Z" fill="#823F91"/>
<path d="M112.266 23.3753C112.266 23.7156 112.243 24.0024 112.195 24.2366H106.351C106.374 25.0811 106.657 25.7268 107.199 26.1722C107.692 26.5704 108.328 26.7699 109.11 26.7699C109.976 26.7699 110.765 26.6354 111.475 26.3655L111.78 27.6838C110.95 28.0365 109.971 28.212 108.841 28.212C107.482 28.212 106.414 27.8218 105.638 27.0424C104.863 26.2631 104.475 25.2164 104.475 23.9035C104.475 22.6146 104.836 21.5413 105.558 20.6853C106.315 19.7714 107.337 19.3145 108.624 19.3145C109.887 19.3145 110.843 19.7714 111.493 20.6853C112.007 21.4112 112.266 22.3091 112.266 23.3753ZM110.409 22.8827C110.421 22.3198 110.294 21.8334 110.03 21.4228C109.693 20.8946 109.175 20.631 108.478 20.631C107.841 20.631 107.323 20.8884 106.928 21.405C106.604 21.8156 106.411 22.3082 106.351 22.8818H110.409V22.8827Z" fill="#823F91"/>
</svg>
