<svg width="124" height="37" viewBox="0 0 124 37" fill="none" xmlns="http://www.w3.org/2000/svg">
<path d="M119.1 36.6191H4.90355C2.39237 36.6191 0.335693 34.6139 0.335693 32.1655V5.44352C0.335693 2.99511 2.39237 0.989854 4.90355 0.989854H119.1C121.611 0.989854 123.668 2.99511 123.668 5.44352V32.1655C123.668 34.6139 121.611 36.6191 119.1 36.6191Z" fill="white"/>
<path d="M119.1 1.70355C121.215 1.70355 122.936 3.38147 122.936 5.44352V32.1655C122.936 34.2275 121.215 35.9054 119.1 35.9054H4.90355C2.78863 35.9054 1.06769 34.2275 1.06769 32.1655V5.44352C1.06769 3.38147 2.78863 1.70355 4.90355 1.70355H119.1ZM119.1 0.989854H4.90355C2.39237 0.989854 0.335693 2.99511 0.335693 5.44352V32.1655C0.335693 34.6139 2.39237 36.6191 4.90355 36.6191H119.1C121.611 36.6191 123.668 34.6139 123.668 32.1655V5.44352C123.668 2.99511 121.611 0.989854 119.1 0.989854Z" fill="white"/>
<path d="M9.18368 7.70392C8.91532 7.97782 8.76001 8.40426 8.76001 8.95651V28.6551C8.76001 29.2073 8.91532 29.6337 9.18368 29.9076L9.24991 29.9678L20.5713 18.9338V18.6733L9.24991 7.63934L9.18368 7.70392Z" fill="#823F91"/>
<path d="M25.7114 22.6133L21.9418 18.9334V18.6729L25.716 14.9931L25.8005 15.0409L30.2701 17.5205C31.5457 18.2242 31.5457 19.3821 30.2701 20.0903L25.8005 22.5654L25.7114 22.6133Z" fill="#823F91"/>
<path d="M25.1151 23.2514L21.2564 19.4892L9.86877 30.5933C10.2924 31.0275 10.9833 31.0798 11.769 30.6456L25.1151 23.2514Z" fill="#823F91"/>
<path d="M25.1151 14.3569L11.769 6.96272C10.9833 6.53294 10.2924 6.58527 9.86877 7.01951L21.2564 18.1191L25.1151 14.3569Z" fill="#823F91"/>
<path d="M43.6553 10.1141C43.6553 10.8578 43.4269 11.4535 42.977 11.8977C42.4597 12.4244 41.7859 12.6894 40.9603 12.6894C40.1712 12.6894 39.4974 12.4199 38.9447 11.8888C38.3909 11.3499 38.1145 10.6886 38.1145 9.89694C38.1145 9.1053 38.3909 8.44393 38.9447 7.90949C39.4974 7.37394 40.1712 7.10449 40.9603 7.10449C41.3531 7.10449 41.7277 7.18354 42.0851 7.33052C42.4414 7.4786 42.7315 7.67901 42.9416 7.92619L42.4642 8.39605C42.0977 7.97407 41.5986 7.76586 40.9603 7.76586C40.3847 7.76586 39.8857 7.96182 39.462 8.35708C39.0429 8.75346 38.8328 9.26674 38.8328 9.89694C38.8328 10.5271 39.0429 11.0449 39.462 11.4412C39.8857 11.8321 40.3847 12.0325 40.9603 12.0325C41.5712 12.0325 42.0851 11.8321 42.4905 11.4368C42.7577 11.1751 42.9096 10.8144 42.9496 10.3534H40.9603V9.70988H43.6142C43.6462 9.84906 43.6553 9.98378 43.6553 10.1141Z" fill="#823F91" stroke="#823F91" stroke-width="0.119595" stroke-miterlimit="10"/>
<path d="M47.8659 7.88334H45.373V9.57573H47.6204V10.2193H45.373V11.9117H47.8659V12.5675H44.6672V7.22754H47.8659V7.88334Z" fill="#823F91" stroke="#823F91" stroke-width="0.119595" stroke-miterlimit="10"/>
<path d="M50.8371 12.5675H50.1314V7.88334H48.6023V7.22754H52.3673V7.88334H50.8371V12.5675Z" fill="#823F91" stroke="#823F91" stroke-width="0.119595" stroke-miterlimit="10"/>
<path d="M55.0919 12.5675V7.22754H55.7965V12.5675H55.0919Z" fill="#823F91" stroke="#823F91" stroke-width="0.119595" stroke-miterlimit="10"/>
<path d="M58.9199 12.5675H58.2199V7.88334H56.6851V7.22754H60.4547V7.88334H58.9199V12.5675Z" fill="#823F91" stroke="#823F91" stroke-width="0.119595" stroke-miterlimit="10"/>
<path d="M67.5828 11.8799C67.0427 12.4199 66.3735 12.6894 65.5752 12.6894C64.7724 12.6894 64.1033 12.4199 63.5631 11.8799C63.0241 11.341 62.7557 10.6797 62.7557 9.89694C62.7557 9.11421 63.0241 8.45284 63.5631 7.91395C64.1033 7.37394 64.7724 7.10449 65.5752 7.10449C66.3689 7.10449 67.0381 7.37394 67.5783 7.9184C68.1218 8.46175 68.3902 9.11866 68.3902 9.89694C68.3902 10.6797 68.1218 11.341 67.5828 11.8799ZM64.085 11.4323C64.4915 11.8321 64.986 12.0325 65.5752 12.0325C66.1599 12.0325 66.659 11.8321 67.0609 11.4323C67.4663 11.0326 67.6719 10.5193 67.6719 9.89694C67.6719 9.27454 67.4663 8.76125 67.0609 8.36154C66.659 7.96182 66.1599 7.76141 65.5752 7.76141C64.986 7.76141 64.4915 7.96182 64.085 8.36154C63.6796 8.76125 63.474 9.27454 63.474 9.89694C63.474 10.5193 63.6796 11.0326 64.085 11.4323Z" fill="#823F91" stroke="#823F91" stroke-width="0.119595" stroke-miterlimit="10"/>
<path d="M69.3804 12.5675V7.22754H70.2368L72.8999 11.3806H72.9307L72.8999 10.354V7.22754H73.6045V12.5675H72.8691L70.0804 8.20957H70.0496L70.0804 9.24059V12.5675H69.3804Z" fill="#823F91" stroke="#823F91" stroke-width="0.119595" stroke-miterlimit="10"/>
<path d="M62.5819 20.3655C60.4362 20.3655 58.6833 21.9577 58.6833 24.1544C58.6833 26.3334 60.4362 27.9423 62.5819 27.9423C64.7323 27.9423 66.4852 26.3334 66.4852 24.1544C66.4852 21.9577 64.7323 20.3655 62.5819 20.3655ZM62.5819 26.4503C61.4046 26.4503 60.3917 25.5028 60.3917 24.1544C60.3917 22.7883 61.4046 21.8575 62.5819 21.8575C63.7593 21.8575 64.7768 22.7883 64.7768 24.1544C64.7768 25.5028 63.7593 26.4503 62.5819 26.4503ZM54.0755 20.3655C51.9251 20.3655 50.1768 21.9577 50.1768 24.1544C50.1768 26.3334 51.9251 27.9423 54.0755 27.9423C56.2246 27.9423 57.9741 26.3334 57.9741 24.1544C57.9741 21.9577 56.2246 20.3655 54.0755 20.3655ZM54.0755 26.4503C52.8969 26.4503 51.8806 25.5028 51.8806 24.1544C51.8806 22.7883 52.8969 21.8575 54.0755 21.8575C55.2528 21.8575 56.2657 22.7883 56.2657 24.1544C56.2657 25.5028 55.2528 26.4503 54.0755 26.4503ZM43.9531 21.5268V23.1368H47.8963C47.7809 24.0364 47.4726 24.6978 46.9998 25.1587C46.4243 25.7154 45.5279 26.3334 43.9531 26.3334C41.5264 26.3334 39.6262 24.4239 39.6262 22.0579C39.6262 19.6919 41.5264 17.7824 43.9531 17.7824C45.2652 17.7824 46.2199 18.2823 46.9245 18.9303L48.0881 17.7957C47.1026 16.8783 45.7916 16.1735 43.9531 16.1735C40.6254 16.1735 37.8287 18.8134 37.8287 22.0579C37.8287 25.3024 40.6254 27.9423 43.9531 27.9423C45.7517 27.9423 47.1026 27.3677 48.1647 26.29C49.2529 25.2289 49.5921 23.7369 49.5921 22.5322C49.5921 22.1581 49.5601 21.814 49.503 21.5268H43.9531ZM85.3447 22.7749C85.0238 21.9276 84.0337 20.3655 82.017 20.3655C80.0186 20.3655 78.3548 21.9009 78.3548 24.1544C78.3548 26.2766 80.0015 27.9423 82.2089 27.9423C83.9938 27.9423 85.0238 26.8812 85.4475 26.2632L84.1228 25.4026C83.6809 26.0328 83.0791 26.4503 82.2089 26.4503C81.3444 26.4503 80.7243 26.0639 80.3269 25.3024L85.524 23.2058L85.3447 22.7749ZM80.046 24.0364C80.0015 22.5756 81.2097 21.8274 82.0753 21.8274C82.7536 21.8274 83.3292 22.1581 83.521 22.6313L80.046 24.0364ZM75.8219 27.7118H77.5303V16.5776H75.8219V27.7118ZM73.0241 21.2094H72.967C72.5833 20.7663 71.8513 20.3655 70.924 20.3655C68.9781 20.3655 67.1989 22.0311 67.1989 24.1667C67.1989 26.29 68.9781 27.9423 70.924 27.9423C71.8513 27.9423 72.5833 27.5381 72.967 27.0816H73.0241V27.6249C73.0241 29.0735 72.2304 29.8518 70.9503 29.8518C69.9065 29.8518 69.259 29.1169 68.9918 28.499L67.5061 29.1036C67.9343 30.1079 69.0683 31.3438 70.9503 31.3438C72.9533 31.3438 74.6434 30.1947 74.6434 27.3989V20.596H73.0241V21.2094ZM71.0702 26.4503C69.8928 26.4503 68.9073 25.4894 68.9073 24.1667C68.9073 22.8317 69.8928 21.8575 71.0702 21.8575C72.2304 21.8575 73.1451 22.8317 73.1451 24.1667C73.1451 25.4894 72.2304 26.4503 71.0702 26.4503ZM93.343 16.5776H89.2571V27.7118H90.9609V23.4931H93.343C95.2353 23.4931 97.091 22.1581 97.091 20.0348C97.091 17.9126 95.2307 16.5776 93.343 16.5776ZM93.3876 21.9443H90.9609V18.1264H93.3876C94.6597 18.1264 95.386 19.1563 95.386 20.0348C95.386 20.8966 94.6597 21.9443 93.3876 21.9443ZM103.92 20.3443C102.689 20.3443 101.409 20.8743 100.882 22.049L102.394 22.6669C102.72 22.049 103.318 21.8485 103.951 21.8485C104.835 21.8485 105.731 22.3663 105.745 23.2804V23.3973C105.436 23.2236 104.776 22.9664 103.964 22.9664C102.336 22.9664 100.677 23.8404 100.677 25.4716C100.677 26.9636 102.011 27.9245 103.51 27.9245C104.656 27.9245 105.289 27.4201 105.687 26.8333H105.745V27.694H107.39V23.4229C107.39 21.4488 105.878 20.3443 103.92 20.3443ZM103.714 26.4458C103.157 26.4458 102.381 26.1764 102.381 25.5028C102.381 24.641 103.349 24.3103 104.187 24.3103C104.937 24.3103 105.289 24.4718 105.745 24.6844C105.611 25.7154 104.701 26.4458 103.714 26.4458ZM113.386 20.5882L111.427 25.4148H111.369L109.344 20.5882H107.507L110.549 27.3332L108.813 31.0866H110.594L115.281 20.5882H113.386ZM98.0274 27.7118H99.7357V16.5776H98.0274V27.7118Z" fill="#823F91"/>
</svg>
