<svg width="134" height="32" viewBox="0 0 134 32" fill="none" xmlns="http://www.w3.org/2000/svg">
<path d="M13.4292 30.7998H12.0653L9.69673 27.8727V30.7998H8.56616V25.1838H9.69673V27.7877L11.8054 25.1838H13.1527L11.0349 27.8298L13.4292 30.7998Z" fill="white"/>
<path d="M18.9856 27.9913C18.9856 27.459 18.8175 27.0172 18.4795 26.6679C18.1425 26.3195 17.7191 26.1449 17.2121 26.1449C16.6987 26.1449 16.2753 26.3177 15.9401 26.6642C15.6058 27.0107 15.4377 27.4524 15.4377 27.9913C15.4377 28.5312 15.6058 28.973 15.9401 29.3195C16.2753 29.665 16.6987 29.8378 17.2121 29.8378C17.7191 29.8378 18.1425 29.665 18.4795 29.3195C18.8175 28.973 18.9856 28.5312 18.9856 27.9913ZM14.275 27.9913C14.2631 27.1919 14.5496 26.5026 15.1319 25.9235C15.7151 25.3445 16.4057 25.0643 17.2038 25.0811C18.001 25.0643 18.6944 25.3445 19.2831 25.9235C19.8718 26.5026 20.1602 27.1919 20.1492 27.9913C20.1602 28.7918 19.8718 29.481 19.2831 30.0601C18.6944 30.6382 18.001 30.9194 17.2038 30.9016C16.4057 30.9194 15.7151 30.6382 15.1319 30.0601C14.5496 29.481 14.2631 28.7918 14.275 27.9913Z" fill="white"/>
<path d="M21.9399 30.7998V25.1838H23.0696V27.3366H25.5135V25.1838H26.6431V30.7998H25.5135V28.3743H23.0696V30.7998H21.9399Z" fill="white"/>
<mask id="mask0_523_167" style="mask-type:luminance" maskUnits="userSpaceOnUse" x="28" y="25" width="7" height="7">
<path d="M28.2136 25.1054H34.0915V32H28.2136V25.1054Z" fill="white"/>
</mask>
<g mask="url(#mask0_523_167)">
<path d="M29.9143 29.7622H32.0735V26.2215H30.4249C30.3964 27.9633 30.2265 29.1439 29.9143 29.7622ZM33.2031 29.7622H33.9397V32H32.8091V30.7998H29.3696V32H28.24V29.7622H28.6836C29.1354 29.382 29.3623 28.1651 29.3623 26.1112V25.1838H33.2031V29.7622Z" fill="white"/>
</g>
<path d="M39.9739 25.0811H40.3505V30.7998H39.2208V27.3189L35.9825 30.9026H35.6133V25.1838H36.7438V28.6302L39.9739 25.0811Z" fill="white"/>
<path d="M43.699 30.7998V26.2215H41.9329V25.1838H46.6021V26.2215H44.8277V30.7998H43.699Z" fill="white"/>
<path d="M48.1829 30.7998V25.1838H51.8997V26.2215H49.3134V27.3618H51.2136V28.3407H49.3134V29.7622H51.9998V30.7998H48.1829Z" fill="white"/>
<path d="M54.9451 27.813H55.892C56.1537 27.813 56.3585 27.7373 56.5064 27.5869C56.6542 27.4366 56.7277 27.2395 56.7277 26.9957C56.7277 26.7576 56.6506 26.5652 56.4981 26.4167C56.3447 26.27 56.1427 26.1962 55.892 26.1962H54.9451V27.813ZM53.8154 30.7998V25.1838H55.892C56.4706 25.1838 56.9481 25.351 57.3219 25.6854C57.6957 26.0197 57.8831 26.4568 57.8831 26.9957C57.8831 27.529 57.6957 27.9661 57.3219 28.307C56.9481 28.647 56.4706 28.817 55.892 28.817H54.9451V30.7998H53.8154Z" fill="white"/>
<path d="M59.3057 27.9913C59.2938 27.1863 59.5812 26.4951 60.1672 25.9198C60.7531 25.3435 61.4474 25.0643 62.2501 25.0811C62.7755 25.0811 63.2512 25.2044 63.6773 25.4509C64.1044 25.6984 64.4405 26.0403 64.6858 26.4764L63.8326 27.0901C63.4358 26.4596 62.9086 26.1449 62.2501 26.1449C61.7377 26.1449 61.3124 26.3214 60.9745 26.6726C60.6374 27.0247 60.4684 27.4665 60.4684 27.9998C60.4684 28.5331 60.6374 28.973 60.9745 29.3195C61.3124 29.665 61.7377 29.8378 62.2501 29.8378C62.9086 29.8378 63.4358 29.524 63.8326 28.8936L64.6858 29.5063C64.4461 29.9434 64.1108 30.2852 63.6819 30.5318C63.2521 30.7793 62.7727 30.9016 62.2428 30.9016C61.4327 30.9194 60.7366 30.6401 60.1543 30.0638C59.5711 29.4876 59.2882 28.7974 59.3057 27.9913Z" fill="white"/>
<path d="M71.347 30.7998H69.9831L67.6145 27.8727V30.7998H66.4849V25.1838H67.6145V27.7877L69.7241 25.1838H71.0714L68.9536 27.8298L71.347 30.7998Z" fill="white"/>
<path d="M75.7913 29.1233L75.0547 27.2255L74.3182 29.1233H75.7913ZM76.4939 30.7998L76.1844 30.0685H73.9251L73.6147 30.7998H72.4023L74.8701 25.0811H75.2476L77.708 30.7998H76.4939Z" fill="white"/>
<path d="M82.1842 27.9232V26.1962H81.3301C81.0509 26.1962 80.8249 26.2756 80.6532 26.4344C80.4796 26.5932 80.3933 26.8033 80.3933 27.0639C80.3933 27.3245 80.4796 27.5337 80.6532 27.6897C80.8249 27.8457 81.0509 27.9232 81.3301 27.9232H82.1842ZM81.3641 25.1829H83.3129V30.7998H82.1842V28.9356H81.4651L80.1756 30.7998H78.9624L80.3758 28.7404C80.025 28.5872 79.7476 28.3621 79.5438 28.0642C79.3399 27.7663 79.2379 27.43 79.2379 27.0555C79.2379 26.4998 79.4345 26.0487 79.8285 25.7022C80.2215 25.3566 80.7331 25.1829 81.3641 25.1829Z" fill="white"/>
<path d="M88.2854 27.9913C88.2734 27.1863 88.5609 26.4951 89.1477 25.9198C89.7328 25.3435 90.428 25.0643 91.2307 25.0811C91.7551 25.0811 92.2309 25.2044 92.657 25.4509C93.0841 25.6984 93.4202 26.0403 93.6654 26.4764L92.8122 27.0901C92.4155 26.4596 91.8892 26.1449 91.2307 26.1449C90.7173 26.1449 90.2921 26.3214 89.9541 26.6726C89.6171 27.0247 89.4481 27.4665 89.4481 27.9998C89.4481 28.5331 89.6171 28.973 89.9541 29.3195C90.2921 29.665 90.7173 29.8378 91.2307 29.8378C91.8892 29.8378 92.4155 29.524 92.8122 28.8936L93.6654 29.5063C93.4266 29.9434 93.0914 30.2852 92.6616 30.5318C92.2318 30.7793 91.7524 30.9016 91.2224 30.9016C90.4133 30.9194 89.7172 30.6401 89.1349 30.0638C88.5517 29.4876 88.2688 28.7974 88.2854 27.9913Z" fill="white"/>
<path d="M96.7126 30.7998V26.2215H94.9465V25.1838H99.6158V26.2215H97.8414V30.7998H96.7126Z" fill="white"/>
<path d="M104.67 25.1838H105.875L103.993 29.3876C103.729 29.9434 103.479 30.331 103.239 30.5495C102.999 30.7671 102.642 30.882 102.168 30.8932C101.961 30.8932 101.753 30.8624 101.54 30.7998V29.821C101.679 29.8388 101.827 29.8472 101.983 29.8472C102.319 29.8472 102.578 29.7276 102.762 29.4895L100.703 25.1838H101.967L103.373 28.2389L104.67 25.1838Z" fill="white"/>
<mask id="mask1_523_167" style="mask-type:luminance" maskUnits="userSpaceOnUse" x="106" y="25" width="7" height="7">
<path d="M106.271 25.1054H112.149V32H106.271V25.1054Z" fill="white"/>
</mask>
<g mask="url(#mask1_523_167)">
<path d="M108.042 29.7622H110.201V26.2215H108.554C108.524 27.9633 108.355 29.1439 108.042 29.7622ZM111.331 29.7622H112.068V32H110.938V30.7998H107.499V32H106.369V29.7622H106.812C107.264 29.382 107.49 28.1651 107.49 26.1112V25.1838H111.331V29.7622Z" fill="white"/>
</g>
<path d="M118.102 25.0811H118.478V30.7998H117.349V27.3189L114.11 30.9026H113.742V25.1838H114.872V28.6302L118.102 25.0811Z" fill="white"/>
<path d="M123.466 27.9232V26.1962H122.612C122.333 26.1962 122.107 26.2756 121.935 26.4344C121.762 26.5932 121.674 26.8033 121.674 27.0639C121.674 27.3245 121.762 27.5337 121.935 27.6897C122.107 27.8457 122.333 27.9232 122.612 27.9232H123.466ZM122.645 25.1829H124.595V30.7998H123.466V28.9356H122.746L121.458 30.7998H120.244L121.658 28.7404C121.307 28.5872 121.029 28.3621 120.826 28.0642C120.622 27.7663 120.52 27.43 120.52 27.0555C120.52 26.4998 120.716 26.0487 121.11 25.7022C121.504 25.3566 122.015 25.1829 122.645 25.1829Z" fill="white"/>
<path d="M12.7834 13.7594C12.7834 13.0131 12.5465 12.4649 12.0735 12.1156C11.5996 11.7672 10.8538 11.5925 9.83622 11.5925H5.07791V15.8898H9.72968C11.7658 15.8898 12.7834 15.18 12.7834 13.7594ZM5.07791 8.26945H9.26772C11.2092 8.26945 12.18 7.57177 12.18 6.17547C12.18 4.80345 11.2092 4.11698 9.26772 4.11698H5.07791V8.26945ZM17.9688 14.1927C17.9688 15.9505 17.3176 17.3104 16.0153 18.2733C14.713 19.2362 12.7724 19.7172 10.1916 19.7172H0.69524C0.311343 19.7172 0 19.4006 0 19.0102V0.996555C0 0.606151 0.311343 0.289533 0.69524 0.289533H9.76458C12.1561 0.289533 14.0269 0.728503 15.3761 1.60738C16.7252 2.48625 17.4003 3.72004 17.4003 5.30874C17.4003 6.27167 17.1569 7.12065 16.672 7.85476C16.1871 8.58887 15.4946 9.1614 14.5954 9.57048C16.8437 10.341 17.9688 11.8811 17.9688 14.1927Z" fill="white"/>
<path d="M45.3422 0.289533H49.4548C49.8387 0.289533 50.1501 0.606151 50.1501 0.996555V7.87251H58.4599V0.996555C58.4599 0.606151 58.7712 0.289533 59.1551 0.289533H63.3045C63.6884 0.289533 63.9997 0.606151 63.9997 0.996555V19.0102C63.9997 19.4006 63.6884 19.7172 63.3045 19.7172H59.1551C58.7712 19.7172 58.4599 19.4006 58.4599 19.0102V12.4583H50.1501V19.0102C50.1501 19.4006 49.8387 19.7172 49.4548 19.7172H45.3422C44.9583 19.7172 44.646 19.4006 44.646 19.0102V0.996555C44.646 0.606151 44.9583 0.289533 45.3422 0.289533Z" fill="white"/>
<path d="M88.1825 0.996555V19.0102C88.1825 19.4006 87.8711 19.7172 87.4872 19.7172H83.3388C82.9549 19.7172 82.6435 19.4006 82.6435 19.0102V4.91179H76.6059L76.4286 8.3423C76.334 10.8939 76.0971 13.0131 75.7178 14.698C75.3403 16.382 74.6515 19.8358 68.1225 19.8405C67.7422 19.8405 67.4346 19.5183 67.4346 19.1316V15.7385C67.4346 15.3649 67.7211 15.0613 68.0876 15.0324C69.0491 14.9567 70.0732 14.7083 70.4093 14.2105C70.8226 13.5959 71.1018 12.8142 71.2442 11.8625C71.3865 10.9117 71.4921 9.65454 71.5628 8.09012L71.8228 0.970403C71.8365 0.590274 72.1442 0.289533 72.518 0.289533H87.4872C87.8711 0.289533 88.1825 0.606151 88.1825 0.996555Z" fill="white"/>
<mask id="mask2_523_167" style="mask-type:luminance" maskUnits="userSpaceOnUse" x="115" y="0" width="20" height="20">
<path d="M115.911 0.239099H134V19.8452H115.911V0.239099Z" fill="white"/>
</mask>
<g mask="url(#mask2_523_167)">
<path d="M128.816 13.7594C128.816 13.0131 128.579 12.4649 128.106 12.1156C127.632 11.7672 126.886 11.5925 125.868 11.5925H121.124C121.117 11.5925 121.11 11.5982 121.11 11.6066V15.8767C121.11 15.8842 121.117 15.8898 121.124 15.8898H125.762C127.797 15.8898 128.816 15.18 128.816 13.7594ZM121.11 8.25637C121.11 8.26291 121.117 8.26945 121.124 8.26945H125.3C127.241 8.26945 128.212 7.57177 128.212 6.17547C128.212 4.80345 127.241 4.11698 125.3 4.11698H121.124C121.117 4.11698 121.11 4.12258 121.11 4.13099V8.25637ZM134 14.1927C134 15.9505 133.348 17.3104 132.047 18.2733C130.745 19.2362 128.803 19.7172 126.224 19.7172H116.741C116.35 19.7172 116.032 19.395 116.032 18.9962V1.01057C116.032 0.611756 116.35 0.289534 116.741 0.289534H125.797C128.189 0.289534 130.058 0.728504 131.409 1.60738C132.758 2.48625 133.433 3.72004 133.433 5.30874C133.433 6.27167 133.189 7.12066 132.704 7.85476C132.224 8.5814 131.541 9.14926 130.655 9.55741C130.644 9.56208 130.645 9.57609 130.656 9.58076C132.885 10.355 134 11.8914 134 14.1927Z" fill="white"/>
</g>
<path d="M34.1209 13.5782C33.8132 14.4449 33.2915 15.1015 32.5586 15.5461C31.8239 15.9925 30.9845 16.2148 30.0376 16.2148C29.0659 16.2148 28.3027 16.0047 27.7461 15.5825C27.1896 15.1613 26.9122 14.5897 26.9122 13.8668C26.9122 12.35 28.0492 11.5925 30.3214 11.5925H34.1209V13.5782ZM37.282 2.14909C35.6959 0.716362 32.6771 0 29.718 0C27.7921 0 24.8981 0.372658 23.5343 0.565057C23.1238 0.62203 22.8556 1.02738 22.9557 1.43646L23.6647 4.34487C23.751 4.69511 24.0771 4.92487 24.4288 4.87724C25.5328 4.72593 27.9096 4.43827 29.718 4.47843C31.2205 4.51205 32.2859 4.80906 33.0197 5.47125C33.7535 6.13437 34.1209 7.07863 34.1209 8.30587H29.718C26.9242 8.30587 24.8587 8.82423 23.5214 9.85908C22.1833 10.8939 21.5156 12.3136 21.5156 14.1199C21.5156 15.2519 21.7985 16.2624 22.367 17.1535C22.9355 18.0445 23.7575 18.7422 24.8348 19.2484C25.9121 19.7537 27.1841 20.0068 28.6526 20.0068C31.4933 20.0068 33.4339 19.1036 34.4763 17.2982V19.0102C34.4763 19.4006 34.7867 19.7172 35.1715 19.7172H38.9655C39.3494 19.7172 39.6607 19.4006 39.6607 19.0102V8.63183C39.6607 5.7421 38.8672 3.58088 37.282 2.14909Z" fill="white"/>
<path d="M105.394 13.5782C105.086 14.4449 104.565 15.1015 103.832 15.5461C103.098 15.9925 102.257 16.2148 101.311 16.2148C100.34 16.2148 99.5763 16.0047 99.0198 15.5825C98.4632 15.1613 98.1859 14.5897 98.1859 13.8668C98.1859 12.35 99.3219 11.5925 101.594 11.5925H105.394V13.5782ZM108.555 2.14909C106.969 0.716362 103.951 0 100.992 0C99.0657 0 96.1718 0.372658 94.807 0.565057C94.3974 0.62203 94.1292 1.02738 94.2293 1.43646L94.9383 4.34487C95.0238 4.69511 95.3507 4.92487 95.7025 4.87724C96.8064 4.72593 99.1832 4.43827 100.992 4.47843C102.494 4.51205 103.559 4.80906 104.293 5.47125C105.027 6.13437 105.394 7.07863 105.394 8.30587H100.992C98.1978 8.30587 96.1323 8.82423 94.7951 9.85908C93.4569 10.8939 92.7883 12.3136 92.7883 14.1199C92.7883 15.2519 93.0721 16.2624 93.6406 17.1535C94.2091 18.0445 95.0311 18.7422 96.1084 19.2484C97.1857 19.7537 98.4577 20.0068 99.9262 20.0068C102.767 20.0068 104.708 19.1036 105.749 17.2982V19.0102C105.749 19.4006 106.06 19.7172 106.445 19.7172H110.238C110.623 19.7172 110.934 19.4006 110.934 19.0102V8.63183C110.934 5.7421 110.141 3.58088 108.555 2.14909Z" fill="white"/>
</svg>
