<svg width="32" height="32" viewBox="0 0 32 32" fill="none" xmlns="http://www.w3.org/2000/svg">
<path fill-rule="evenodd" clip-rule="evenodd" d="M30.7204 8.62918C30.9349 7.93775 30.7204 7.42969 29.6995 7.42969H26.3237C25.4654 7.42969 25.0696 7.86858 24.855 8.35255C24.855 8.35255 23.1383 12.3974 20.7064 15.0247C19.9196 15.7853 19.5619 16.0273 19.1327 16.0273C18.9182 16.0273 18.6076 15.7853 18.6076 15.0939V8.62919C18.6076 7.79947 18.3585 7.42969 17.6431 7.42969H12.3383C11.8019 7.42969 11.4793 7.81478 11.4793 8.17974C11.4793 8.96629 12.6952 9.14768 12.8206 11.3603V16.1656C12.8206 17.2192 12.6237 17.4102 12.1946 17.4102C11.0502 17.4102 8.26638 13.3473 6.61534 8.6983C6.29178 7.7947 5.96725 7.42969 5.10449 7.42969H1.72871C0.764201 7.42969 0.571289 7.86858 0.571289 8.35255C0.571289 9.21685 1.71575 13.5037 5.90011 19.1732C8.68966 23.0451 12.62 25.144 16.1964 25.144C18.3422 25.144 18.6076 24.6778 18.6076 23.8748V20.9485C18.6076 20.0162 18.8109 19.8301 19.4904 19.8301C19.9911 19.8301 20.8494 20.0721 22.8523 21.9389C25.1411 24.1514 25.5185 25.144 26.806 25.144H30.1817C31.1463 25.144 31.6285 24.6778 31.3503 23.7579C31.0459 22.841 29.9531 21.5107 28.503 19.9338C27.7161 19.035 26.5359 18.067 26.1783 17.5829C25.6776 16.9607 25.8207 16.6841 26.1783 16.131C26.1783 16.131 30.2912 10.5305 30.7204 8.62918Z" fill="white"/>
</svg>
