<svg width="32" height="32" viewBox="0 0 32 32" fill="none" xmlns="http://www.w3.org/2000/svg">
<path d="M30.3445 8.98253C30.003 7.69829 28.9924 6.68516 27.7067 6.33794C25.382 5.71484 16.0546 5.71484 16.0546 5.71484C16.0546 5.71484 6.73191 5.71484 4.40244 6.33794C3.12146 6.6804 2.11091 7.69353 1.76458 8.98253C1.14307 11.3132 1.14307 16.179 1.14307 16.179C1.14307 16.179 1.14307 21.0449 1.76458 23.3756C2.10617 24.6598 3.11672 25.6729 4.40244 26.0202C6.73191 26.6433 16.0546 26.6433 16.0546 26.6433C16.0546 26.6433 25.382 26.6433 27.7067 26.0202C28.9877 25.6777 29.9982 24.6646 30.3445 23.3756C30.9661 21.0449 30.9661 16.179 30.9661 16.179C30.9661 16.179 30.9661 11.3132 30.3445 8.98253Z" fill="white"/>
<path d="M13.0751 20.6644L20.8226 16.179L13.0751 11.6937V20.6644Z" fill="#823F91"/>
</svg>
