<svg width="56" height="56" viewBox="0 0 56 56" fill="none" xmlns="http://www.w3.org/2000/svg">
<g clip-path="url(#clip0_11_1291)">
<path d="M0 26.6117C0 14.0668 0 7.79439 3.8972 3.8972C7.79439 0 14.0668 0 26.6117 0H28.8294C41.3743 0 47.6466 0 51.5439 3.8972C55.4411 7.79439 55.4411 14.0668 55.4411 26.6117V28.8294C55.4411 41.3743 55.4411 47.6466 51.5439 51.5439C47.6466 55.4411 41.3743 55.4411 28.8294 55.4411H26.6117C14.0668 55.4411 7.79439 55.4411 3.8972 51.5439C0 47.6466 0 41.3743 0 28.8294V26.6117Z" fill="#823F91"/>
<path d="M10.8643 14.1596C10.6368 14.2203 10.4169 14.3037 10.3714 14.3492C10.288 14.4326 26.7565 30.9542 27.1053 31.1437C27.3707 31.2802 28.0228 31.2802 28.2881 31.1437C28.6369 30.9542 45.1054 14.4326 45.022 14.3492C44.9765 14.3037 44.7415 14.2203 44.4913 14.1596C44.0894 14.0535 42.2318 14.0383 27.6588 14.0459C13.4725 14.0459 11.2282 14.0611 10.8643 14.1596Z" fill="white"/>
<path d="M8.4607 16.4034C8.3318 16.7825 8.32422 17.336 8.32422 27.6857C8.32422 38.0354 8.3318 38.5889 8.4607 38.9604C8.53652 39.1803 8.62751 39.3623 8.65025 39.3623C8.68058 39.3623 11.3343 36.7313 14.5416 33.524L20.3799 27.6857L14.5416 21.8474C11.3343 18.6326 8.68058 16.0092 8.65025 16.0092C8.62751 16.0092 8.53652 16.1911 8.4607 16.4034Z" fill="white"/>
<path d="M40.852 21.8474L35.0137 27.6857L40.852 33.524C44.0592 36.7313 46.713 39.3623 46.7433 39.3623C46.7661 39.3623 46.8571 39.1803 46.9329 38.9604C47.0618 38.5889 47.0694 38.0354 47.0694 27.6857C47.0694 17.336 47.0618 16.7825 46.9329 16.4034C46.8571 16.1911 46.7661 16.0092 46.7433 16.0092C46.713 16.0092 44.0592 18.6326 40.852 21.8474Z" fill="white"/>
<path d="M16.0944 35.1545C12.3413 38.9077 10.3244 40.9776 10.3699 41.0231C10.4154 41.0686 10.6504 41.152 10.9006 41.2127C11.3025 41.3188 13.1677 41.334 27.6952 41.334C42.2227 41.334 44.0879 41.3188 44.4898 41.2127C44.74 41.152 44.975 41.0686 45.0205 41.0231C45.066 40.9776 43.0491 38.9077 39.2808 35.1393L33.4653 29.3238L31.6607 31.1056C30.0078 32.7434 29.8031 32.9178 29.2571 33.1907L28.6506 33.4864H27.6952H26.7398L26.1333 33.1907C25.5874 32.9178 25.3751 32.7358 23.7449 31.1208C22.7668 30.1503 21.9479 29.3541 21.9252 29.3541C21.91 29.3541 19.2866 31.9624 16.0944 35.1545Z" fill="white"/>
</g>
<defs>
<clipPath id="clip0_11_1291">
<rect width="55.4411" height="55.4411" fill="white"/>
</clipPath>
</defs>
</svg>
