<svg width="56" height="56" viewBox="0 0 56 56" fill="none" xmlns="http://www.w3.org/2000/svg">
<g clip-path="url(#clip0_11_1283)">
<path d="M0.00012207 26.6117C0.00012207 14.0668 0.00012207 7.79439 3.89732 3.8972C7.79451 0 14.0669 0 26.6118 0H28.8295C41.3744 0 47.6468 0 51.544 3.8972C55.4412 7.79439 55.4412 14.0668 55.4412 26.6117V28.8294C55.4412 41.3743 55.4412 47.6466 51.544 51.5439C47.6468 55.4411 41.3744 55.4411 28.8295 55.4411H26.6118C14.0669 55.4411 7.79451 55.4411 3.89732 51.5439C0.00012207 47.6466 0.00012207 41.3743 0.00012207 28.8294V26.6117Z" fill="#823F91"/>
<path d="M33.4813 36.3963C25.911 36.3963 19.7521 30.2352 19.75 22.665C19.7521 20.746 21.3146 19.1855 23.2295 19.1855C23.4263 19.1855 23.6211 19.2021 23.8076 19.2353C24.2179 19.3037 24.6076 19.4425 24.9661 19.6518C25.0179 19.6829 25.0531 19.7327 25.0614 19.7907L25.8613 24.8327C25.8717 24.8907 25.853 24.9508 25.8136 24.9943C25.3722 25.4834 24.8086 25.8357 24.1806 26.0118L23.8781 26.0968L23.9921 26.389C25.0241 29.0167 27.1254 31.116 29.7552 32.1521L30.0474 32.2682L30.1324 31.9656C30.3085 31.3377 30.6608 30.774 31.1499 30.3326C31.1851 30.2995 31.2328 30.2829 31.2804 30.2829C31.2908 30.2829 31.3012 30.2829 31.3136 30.285L36.3556 31.0849C36.4157 31.0952 36.4654 31.1284 36.4965 31.1802C36.7037 31.5387 36.8426 31.9304 36.9131 32.3407C36.9462 32.5231 36.9607 32.7158 36.9607 32.9168C36.9607 34.8337 35.4002 36.3942 33.4813 36.3963Z" fill="#FDFDFD"/>
<path d="M46.9049 26.1305C46.4968 21.5207 44.384 17.2443 40.956 14.0904C37.5072 10.9178 33.0331 9.16992 28.3539 9.16992C18.0842 9.16992 9.72838 17.5239 9.72838 27.7913C9.72838 31.2373 10.6791 34.5942 12.4791 37.5183L8.46484 46.4024L21.3175 45.0336C23.5525 45.9489 25.918 46.4128 28.3518 46.4128C28.9919 46.4128 29.6485 46.3796 30.3072 46.3113C30.8872 46.2492 31.4734 46.1581 32.0492 46.0421C40.6494 44.3046 46.9276 36.6734 46.9773 27.8908V27.7913C46.9773 27.2322 46.9525 26.6731 46.9028 26.1326L46.9049 26.1305ZM21.8126 41.1341L14.7017 41.892L16.8248 37.189L16.4002 36.6195C16.3691 36.5781 16.338 36.5367 16.3028 36.4891C14.4593 33.944 13.4858 30.937 13.4858 27.7934C13.4858 19.5968 20.1555 12.9286 28.3539 12.9286C36.0344 12.9286 42.5447 18.9197 43.1723 26.5675C43.2054 26.9775 43.2241 27.3896 43.2241 27.7955C43.2241 27.9115 43.222 28.0254 43.2199 28.1475C43.0625 35.0043 38.2715 40.8276 31.5686 42.3104C31.057 42.4242 30.5329 42.5112 30.011 42.5671C29.4683 42.6293 28.9111 42.6603 28.358 42.6603C26.3882 42.6603 24.4743 42.2793 22.666 41.5255C22.4651 41.4447 22.2683 41.3577 22.0839 41.2687L21.8147 41.1382L21.8126 41.1341Z" fill="#FDFDFD"/>
</g>
<defs>
<clipPath id="clip0_11_1283">
<rect width="55.4411" height="55.4411" fill="white"/>
</clipPath>
</defs>
</svg>
