<svg width="199" height="22" viewBox="0 0 199 22" fill="none" xmlns="http://www.w3.org/2000/svg">
<g clip-path="url(#clip0_86_1169)">
<path d="M20.093 17.6253C20.979 16.6763 23.436 15.1453 26.109 17.4783C24.674 19.0703 22.21 19.6093 20.093 17.6253Z" fill="#FFCC00"/>
<path d="M20.093 17.6253C20.979 16.6763 23.436 15.1453 26.109 17.4783C24.674 19.0703 22.21 19.6093 20.093 17.6253Z" fill="url(#paint0_linear_86_1169)"/>
<path d="M23.02 15.1203C23.743 12.8153 26.127 12.0433 28.047 13.1923C27.538 15.1913 25.157 16.4303 23.02 15.1203Z" fill="#FFCC00"/>
<path d="M23.02 15.1203C23.743 12.8153 26.127 12.0433 28.047 13.1923C27.538 15.1913 25.157 16.4303 23.02 15.1203Z" fill="url(#paint1_linear_86_1169)"/>
<path d="M24.83 12.1597C24.524 9.4567 26.262 7.9827 28.382 8.1157C28.872 10.4957 27.087 12.2627 24.83 12.1597Z" fill="#FFCC00"/>
<path d="M24.83 12.1597C24.524 9.4567 26.262 7.9827 28.382 8.1157C28.872 10.4957 27.087 12.2627 24.83 12.1597Z" fill="url(#paint2_linear_86_1169)"/>
<path d="M24.9762 8.65645C23.4512 6.53645 23.7472 4.71445 25.8662 3.18945C27.3922 5.30845 27.0962 7.13045 24.9762 8.65645Z" fill="#FFCC00"/>
<path d="M24.9762 8.65645C23.4512 6.53645 23.7472 4.71445 25.8662 3.18945C27.3922 5.30845 27.0962 7.13045 24.9762 8.65645Z" fill="url(#paint3_linear_86_1169)"/>
<path d="M8.90699 17.6253C8.02099 16.6763 5.56399 15.1453 2.89099 17.4783C4.32599 19.0703 6.78999 19.6093 8.90699 17.6253Z" fill="#FFCC00"/>
<path d="M8.90699 17.6253C8.02099 16.6763 5.56399 15.1453 2.89099 17.4783C4.32599 19.0703 6.78999 19.6093 8.90699 17.6253Z" fill="url(#paint4_linear_86_1169)"/>
<path d="M5.98015 15.1207C5.25615 12.8157 2.87215 12.0437 0.952148 13.1917C1.46115 15.1907 3.84215 16.4297 5.97815 15.1197L5.98015 15.1207Z" fill="#FFCC00"/>
<path d="M5.98015 15.1207C5.25615 12.8157 2.87215 12.0437 0.952148 13.1917C1.46115 15.1907 3.84215 16.4297 5.97815 15.1197L5.98015 15.1207Z" fill="url(#paint5_linear_86_1169)"/>
<path d="M4.17024 12.1597C4.47524 9.4567 2.73724 7.9827 0.617243 8.1157C0.127243 10.4957 1.91124 12.2627 4.16824 12.1597H4.17024Z" fill="#FFCC00"/>
<path d="M4.17024 12.1597C4.47524 9.4567 2.73724 7.9827 0.617243 8.1157C0.127243 10.4957 1.91124 12.2627 4.16824 12.1597H4.17024Z" fill="url(#paint6_linear_86_1169)"/>
<path d="M4.02396 8.65645C5.54896 6.53645 5.25296 4.71445 3.13396 3.18945C1.60796 5.30845 1.90396 7.13045 4.02396 8.65645Z" fill="#FFCC00"/>
<path d="M4.02396 8.65645C5.54896 6.53645 5.25296 4.71445 3.13396 3.18945C1.60796 5.30845 1.90396 7.13045 4.02396 8.65645Z" fill="url(#paint7_linear_86_1169)"/>
<path d="M14.5002 3.6582C13.3142 3.65893 12.155 4.0111 11.1689 4.67024C10.1829 5.32937 9.41431 6.26591 8.9602 7.36158C8.5061 8.45726 8.38685 9.66292 8.61752 10.8263C8.84819 11.9897 9.41844 13.0587 10.2562 13.8982C11.3422 14.9852 13.9002 16.5582 14.0522 18.2092C14.0742 18.4562 14.2542 18.6582 14.5002 18.6582C14.7462 18.6582 14.9262 18.4562 14.9482 18.2092C15.1002 16.5582 17.6552 14.9892 18.7412 13.9022C19.5802 13.0631 20.1516 11.994 20.3832 10.8302C20.6147 9.66644 20.4961 8.46011 20.0422 7.36374C19.5883 6.26737 18.8195 5.33017 17.8331 4.67061C16.8467 4.01105 15.6869 3.65874 14.5002 3.6582Z" fill="url(#paint8_linear_86_1169)"/>
<path d="M14.4998 11.7095C13.9553 11.7095 13.4331 11.4932 13.0481 11.1082C12.6631 10.7232 12.4468 10.201 12.4468 9.65652C12.4468 9.11203 12.6631 8.58984 13.0481 8.20483C13.4331 7.81981 13.9553 7.60352 14.4998 7.60352C15.0363 7.61536 15.5468 7.8368 15.9221 8.22043C16.2973 8.60406 16.5075 9.11937 16.5075 9.65602C16.5075 10.1927 16.2973 10.708 15.9221 11.0916C15.5468 11.4752 15.0363 11.6967 14.4998 11.7085V11.7095Z" fill="white"/>
</g>
<path d="M44.148 15.9902L41.3 11.6542L38.436 15.9902H36.98L40.612 10.5822L37.236 5.43023H38.676L41.3 9.54223L43.908 5.43023H45.348L42.02 10.5982L45.604 15.9902H44.148ZM50.6296 16.1502C49.883 16.1502 49.2003 15.9689 48.5816 15.6062C47.963 15.2436 47.4723 14.7529 47.1096 14.1342C46.747 13.5049 46.5656 12.8222 46.5656 12.0862C46.5656 11.3396 46.747 10.6569 47.1096 10.0382C47.4723 9.4089 47.963 8.91823 48.5816 8.56623C49.211 8.20357 49.899 8.02223 50.6456 8.02223C51.3923 8.02223 52.075 8.20357 52.6936 8.56623C53.323 8.9289 53.819 9.41957 54.1816 10.0382C54.5443 10.6569 54.7256 11.3396 54.7256 12.0862C54.7256 12.8222 54.5443 13.5049 54.1816 14.1342C53.819 14.7529 53.323 15.2436 52.6936 15.6062C52.0643 15.9689 51.3763 16.1502 50.6296 16.1502ZM50.6296 15.0142C51.1523 15.0142 51.627 14.8862 52.0536 14.6302C52.491 14.3742 52.8323 14.0276 53.0776 13.5902C53.3336 13.1422 53.4616 12.6462 53.4616 12.1022C53.4616 11.5476 53.339 11.0462 53.0936 10.5982C52.8483 10.1502 52.507 9.79823 52.0696 9.54223C51.643 9.28623 51.1683 9.15823 50.6456 9.15823C50.1123 9.15823 49.6323 9.28623 49.2056 9.54223C48.779 9.79823 48.443 10.1502 48.1976 10.5982C47.9523 11.0462 47.8296 11.5476 47.8296 12.1022C47.8296 12.6462 47.9523 13.1422 48.1976 13.5902C48.443 14.0276 48.779 14.3742 49.2056 14.6302C49.6323 14.8862 50.107 15.0142 50.6296 15.0142ZM60.9873 8.02223C61.7233 8.02223 62.3846 8.20357 62.9713 8.56623C63.5579 8.91823 64.0166 9.40357 64.3472 10.0222C64.6779 10.6409 64.8433 11.3289 64.8433 12.0862C64.8433 12.8436 64.6726 13.5369 64.3313 14.1662C64.0006 14.7849 63.5419 15.2756 62.9553 15.6382C62.3686 15.9902 61.7126 16.1662 60.9873 16.1662C60.4113 16.1662 59.8673 16.0542 59.3553 15.8302C58.8539 15.5956 58.4433 15.2756 58.1233 14.8702V18.8702H56.8913V8.19823H58.0433V9.44623C58.3419 8.99823 58.7526 8.65157 59.2753 8.40623C59.8086 8.15023 60.3793 8.02223 60.9873 8.02223ZM60.8113 15.0302C61.3339 15.0302 61.8033 14.9076 62.2193 14.6622C62.6459 14.4062 62.9766 14.0542 63.2113 13.6062C63.4566 13.1582 63.5793 12.6569 63.5793 12.1022C63.5793 11.5476 63.4566 11.0462 63.2113 10.5982C62.9766 10.1502 62.6459 9.79823 62.2193 9.54223C61.8033 9.28623 61.3339 9.15823 60.8113 9.15823C60.3419 9.15823 59.8993 9.2649 59.4833 9.47823C59.0779 9.69157 58.7473 10.0169 58.4913 10.4542C58.2353 10.8916 58.1073 11.4356 58.1073 12.0862C58.1073 12.7369 58.2299 13.2862 58.4753 13.7342C58.7313 14.1716 59.0619 14.4969 59.4673 14.7102C59.8833 14.9236 60.3313 15.0302 60.8113 15.0302ZM70.5046 16.1502C69.758 16.1502 69.0753 15.9689 68.4566 15.6062C67.838 15.2436 67.3473 14.7529 66.9846 14.1342C66.622 13.5049 66.4406 12.8222 66.4406 12.0862C66.4406 11.3396 66.622 10.6569 66.9846 10.0382C67.3473 9.4089 67.838 8.91823 68.4566 8.56623C69.086 8.20357 69.774 8.02223 70.5206 8.02223C71.2673 8.02223 71.95 8.20357 72.5686 8.56623C73.198 8.9289 73.694 9.41957 74.0566 10.0382C74.4193 10.6569 74.6006 11.3396 74.6006 12.0862C74.6006 12.8222 74.4193 13.5049 74.0566 14.1342C73.694 14.7529 73.198 15.2436 72.5686 15.6062C71.9393 15.9689 71.2513 16.1502 70.5046 16.1502ZM70.5046 15.0142C71.0273 15.0142 71.502 14.8862 71.9286 14.6302C72.366 14.3742 72.7073 14.0276 72.9526 13.5902C73.2086 13.1422 73.3366 12.6462 73.3366 12.1022C73.3366 11.5476 73.214 11.0462 72.9686 10.5982C72.7233 10.1502 72.382 9.79823 71.9446 9.54223C71.518 9.28623 71.0433 9.15823 70.5206 9.15823C69.9873 9.15823 69.5073 9.28623 69.0806 9.54223C68.654 9.79823 68.318 10.1502 68.0726 10.5982C67.8273 11.0462 67.7046 11.5476 67.7046 12.1022C67.7046 12.6462 67.8273 13.1422 68.0726 13.5902C68.318 14.0276 68.654 14.3742 69.0806 14.6302C69.5073 14.8862 69.982 15.0142 70.5046 15.0142ZM76.7663 8.19823H77.9983V14.9022H81.2623V8.19823H82.4943V14.9022H85.7743V8.19823H87.0063V15.9902H76.7663V8.19823ZM96.5838 12.4702H90.4238C90.4984 13.2382 90.8024 13.8569 91.3358 14.3262C91.8691 14.7956 92.5198 15.0302 93.2878 15.0302C94.1731 15.0302 94.9678 14.6782 95.6718 13.9742L96.3918 14.8062C95.9864 15.2329 95.5171 15.5689 94.9838 15.8142C94.4611 16.0489 93.8904 16.1662 93.2718 16.1662C92.5038 16.1662 91.8051 15.9902 91.1758 15.6382C90.5464 15.2756 90.0504 14.7849 89.6878 14.1662C89.3251 13.5476 89.1438 12.8596 89.1438 12.1022C89.1438 11.3556 89.3198 10.6729 89.6718 10.0542C90.0238 9.4249 90.5038 8.9289 91.1118 8.56623C91.7198 8.20357 92.3918 8.02223 93.1278 8.02223C93.7891 8.02223 94.3918 8.17157 94.9358 8.47023C95.4798 8.7689 95.9064 9.1849 96.2158 9.71823C96.5251 10.2516 96.6798 10.8596 96.6798 11.5422C96.6798 11.8409 96.6478 12.1502 96.5838 12.4702ZM93.0958 9.14223C92.4451 9.14223 91.8798 9.35023 91.3998 9.76623C90.9198 10.1716 90.6104 10.7102 90.4718 11.3822H95.4158C95.4051 10.6889 95.1758 10.1449 94.7278 9.75023C94.2904 9.3449 93.7464 9.14223 93.0958 9.14223ZM105.724 12.4702H99.5644C99.639 13.2382 99.943 13.8569 100.476 14.3262C101.01 14.7956 101.66 15.0302 102.428 15.0302C103.314 15.0302 104.108 14.6782 104.812 13.9742L105.532 14.8062C105.127 15.2329 104.658 15.5689 104.124 15.8142C103.602 16.0489 103.031 16.1662 102.412 16.1662C101.644 16.1662 100.946 15.9902 100.316 15.6382C99.687 15.2756 99.191 14.7849 98.8284 14.1662C98.4657 13.5476 98.2844 12.8596 98.2844 12.1022C98.2844 11.3556 98.4604 10.6729 98.8124 10.0542C99.1644 9.4249 99.6444 8.9289 100.252 8.56623C100.86 8.20357 101.532 8.02223 102.268 8.02223C102.93 8.02223 103.532 8.17157 104.076 8.47023C104.62 8.7689 105.047 9.1849 105.356 9.71823C105.666 10.2516 105.82 10.8596 105.82 11.5422C105.82 11.8409 105.788 12.1502 105.724 12.4702ZM102.236 9.14223C101.586 9.14223 101.02 9.35023 100.54 9.76623C100.06 10.1716 99.751 10.7102 99.6124 11.3822H104.556C104.546 10.6889 104.316 10.1449 103.868 9.75023C103.431 9.3449 102.887 9.14223 102.236 9.14223ZM112.469 8.02223H112.917L116.613 12.4062L120.293 8.02223H120.725V15.9902H119.493V10.7262L116.837 13.8942H116.357L113.701 10.7262V15.9902H112.469V8.02223ZM130.318 12.4702H124.158C124.233 13.2382 124.537 13.8569 125.07 14.3262C125.603 14.7956 126.254 15.0302 127.022 15.0302C127.907 15.0302 128.702 14.6782 129.406 13.9742L130.126 14.8062C129.721 15.2329 129.251 15.5689 128.718 15.8142C128.195 16.0489 127.625 16.1662 127.006 16.1662C126.238 16.1662 125.539 15.9902 124.91 15.6382C124.281 15.2756 123.785 14.7849 123.422 14.1662C123.059 13.5476 122.878 12.8596 122.878 12.1022C122.878 11.3556 123.054 10.6729 123.406 10.0542C123.758 9.4249 124.238 8.9289 124.846 8.56623C125.454 8.20357 126.126 8.02223 126.862 8.02223C127.523 8.02223 128.126 8.17157 128.67 8.47023C129.214 8.7689 129.641 9.1849 129.95 9.71823C130.259 10.2516 130.414 10.8596 130.414 11.5422C130.414 11.8409 130.382 12.1502 130.318 12.4702ZM126.83 9.14223C126.179 9.14223 125.614 9.35023 125.134 9.76623C124.654 10.1716 124.345 10.7102 124.206 11.3822H129.15C129.139 10.6889 128.91 10.1449 128.462 9.75023C128.025 9.3449 127.481 9.14223 126.83 9.14223ZM136.099 16.1662C135.352 16.1662 134.664 15.9849 134.035 15.6222C133.416 15.2596 132.925 14.7689 132.563 14.1502C132.2 13.5209 132.019 12.8329 132.019 12.0862C132.019 11.3396 132.2 10.6569 132.563 10.0382C132.925 9.41957 133.416 8.9289 134.035 8.56623C134.664 8.20357 135.352 8.02223 136.099 8.02223C136.781 8.02223 137.4 8.1769 137.955 8.48623C138.509 8.7849 138.963 9.19557 139.315 9.71823L138.435 10.4222C137.805 9.57957 137.032 9.15823 136.115 9.15823C135.581 9.15823 135.096 9.29157 134.659 9.55823C134.232 9.81423 133.896 10.1662 133.651 10.6142C133.405 11.0622 133.283 11.5529 133.283 12.0862C133.283 12.6302 133.405 13.1262 133.651 13.5742C133.896 14.0222 134.232 14.3796 134.659 14.6462C135.096 14.9022 135.581 15.0302 136.115 15.0302C137.032 15.0302 137.8 14.6142 138.419 13.7822L139.299 14.4702C138.947 14.9929 138.493 15.4089 137.939 15.7182C137.395 16.0169 136.781 16.1662 136.099 16.1662ZM142.975 9.30223H140.351V8.19823H146.815V9.30223H144.191V15.9902H142.975V9.30223ZM152.005 16.1502C151.258 16.1502 150.575 15.9689 149.957 15.6062C149.338 15.2436 148.847 14.7529 148.485 14.1342C148.122 13.5049 147.941 12.8222 147.941 12.0862C147.941 11.3396 148.122 10.6569 148.485 10.0382C148.847 9.4089 149.338 8.91823 149.957 8.56623C150.586 8.20357 151.274 8.02223 152.021 8.02223C152.767 8.02223 153.45 8.20357 154.069 8.56623C154.698 8.9289 155.194 9.41957 155.557 10.0382C155.919 10.6569 156.101 11.3396 156.101 12.0862C156.101 12.8222 155.919 13.5049 155.557 14.1342C155.194 14.7529 154.698 15.2436 154.069 15.6062C153.439 15.9689 152.751 16.1502 152.005 16.1502ZM152.005 15.0142C152.527 15.0142 153.002 14.8862 153.429 14.6302C153.866 14.3742 154.207 14.0276 154.453 13.5902C154.709 13.1422 154.837 12.6462 154.837 12.1022C154.837 11.5476 154.714 11.0462 154.469 10.5982C154.223 10.1502 153.882 9.79823 153.445 9.54223C153.018 9.28623 152.543 9.15823 152.021 9.15823C151.487 9.15823 151.007 9.28623 150.581 9.54223C150.154 9.79823 149.818 10.1502 149.573 10.5982C149.327 11.0462 149.205 11.5476 149.205 12.1022C149.205 12.6462 149.327 13.1422 149.573 13.5902C149.818 14.0276 150.154 14.3742 150.581 14.6302C151.007 14.8862 151.482 15.0142 152.005 15.0142ZM169.487 14.8702V15.9902H162.143V15.6702L165.903 11.6702C166.543 10.9982 167.012 10.4329 167.311 9.97423C167.609 9.5049 167.759 9.01957 167.759 8.51823C167.759 7.93157 167.572 7.43557 167.199 7.03023C166.836 6.61423 166.345 6.40623 165.727 6.40623C165.087 6.40623 164.575 6.61957 164.191 7.04623C163.807 7.4729 163.615 7.9849 163.615 8.58223C163.615 8.8809 163.647 9.17423 163.711 9.46223H162.431C162.356 9.17423 162.319 8.8649 162.319 8.53423C162.319 7.97957 162.457 7.45157 162.735 6.95023C163.012 6.43823 163.407 6.02757 163.919 5.71823C164.441 5.4089 165.044 5.25423 165.727 5.25423C166.367 5.25423 166.937 5.39823 167.439 5.68623C167.951 5.96357 168.345 6.34757 168.623 6.83823C168.911 7.31823 169.055 7.8569 169.055 8.45423C169.055 8.9449 168.953 9.41423 168.751 9.86223C168.548 10.3102 168.297 10.7209 167.999 11.0942C167.711 11.4676 167.327 11.9049 166.847 12.4062L164.511 14.8702H169.487ZM175.272 16.1662C173.981 16.1662 173.01 15.6489 172.36 14.6142C171.72 13.5689 171.4 12.2356 171.4 10.6142C171.4 9.00357 171.725 7.70757 172.376 6.72623C173.026 5.7449 173.992 5.25423 175.272 5.25423C176.552 5.25423 177.512 5.7449 178.152 6.72623C178.802 7.6969 179.128 8.9929 179.128 10.6142C179.128 12.2356 178.808 13.5689 178.168 14.6142C177.528 15.6489 176.562 16.1662 175.272 16.1662ZM175.272 15.0142C176.157 15.0142 176.802 14.6196 177.208 13.8302C177.624 13.0409 177.832 11.9742 177.832 10.6302C177.832 9.30757 177.629 8.2729 177.224 7.52623C176.818 6.77957 176.168 6.40623 175.272 6.40623C174.376 6.40623 173.72 6.77957 173.304 7.52623C172.898 8.2729 172.696 9.30757 172.696 10.6302C172.696 11.9742 172.904 13.0409 173.32 13.8302C173.736 14.6196 174.386 15.0142 175.272 15.0142ZM188.284 14.8702V15.9902H180.94V15.6702L184.7 11.6702C185.34 10.9982 185.809 10.4329 186.108 9.97423C186.406 9.5049 186.556 9.01957 186.556 8.51823C186.556 7.93157 186.369 7.43557 185.996 7.03023C185.633 6.61423 185.142 6.40623 184.524 6.40623C183.884 6.40623 183.372 6.61957 182.988 7.04623C182.604 7.4729 182.412 7.9849 182.412 8.58223C182.412 8.8809 182.444 9.17423 182.508 9.46223H181.228C181.153 9.17423 181.116 8.8649 181.116 8.53423C181.116 7.97957 181.254 7.45157 181.532 6.95023C181.809 6.43823 182.204 6.02757 182.716 5.71823C183.238 5.4089 183.841 5.25423 184.524 5.25423C185.164 5.25423 185.734 5.39823 186.236 5.68623C186.748 5.96357 187.142 6.34757 187.42 6.83823C187.708 7.31823 187.852 7.8569 187.852 8.45423C187.852 8.9449 187.75 9.41423 187.548 9.86223C187.345 10.3102 187.094 10.7209 186.796 11.0942C186.508 11.4676 186.124 11.9049 185.644 12.4062L183.308 14.8702H188.284ZM193.541 9.38223C194.191 9.38223 194.789 9.5049 195.333 9.75023C195.887 9.9849 196.33 10.3476 196.661 10.8382C196.991 11.3289 197.157 11.9316 197.157 12.6462C197.157 13.3502 196.981 13.9689 196.629 14.5022C196.287 15.0356 195.829 15.4462 195.253 15.7342C194.687 16.0222 194.074 16.1662 193.413 16.1662C192.57 16.1662 191.839 15.9636 191.221 15.5582C190.613 15.1529 190.127 14.6302 189.765 13.9902L190.629 13.3502C190.959 13.8516 191.343 14.2569 191.781 14.5662C192.229 14.8649 192.767 15.0142 193.397 15.0142C194.111 15.0142 194.698 14.8009 195.157 14.3742C195.626 13.9369 195.861 13.3662 195.861 12.6622C195.861 11.9689 195.626 11.4302 195.157 11.0462C194.698 10.6622 194.037 10.4702 193.173 10.4702H190.789V5.43023H196.565V6.55023H192.037V9.51023C192.527 9.4249 193.029 9.38223 193.541 9.38223Z" fill="black"/>
<defs>
<linearGradient id="paint0_linear_86_1169" x1="26.09" y1="17.6873" x2="20.087" y2="17.9153" gradientUnits="userSpaceOnUse">
<stop stop-color="#FFCC00"/>
<stop offset="1" stop-color="#FE9B21"/>
</linearGradient>
<linearGradient id="paint1_linear_86_1169" x1="28.041" y1="13.1983" x2="23.134" y2="15.4363" gradientUnits="userSpaceOnUse">
<stop stop-color="#FFCC00"/>
<stop offset="1" stop-color="#FE9B21"/>
</linearGradient>
<linearGradient id="paint2_linear_86_1169" x1="28.309" y1="8.0617" x2="25.149" y2="12.4337" gradientUnits="userSpaceOnUse">
<stop stop-color="#FFCC00"/>
<stop offset="1" stop-color="#FE9B21"/>
</linearGradient>
<linearGradient id="paint3_linear_86_1169" x1="25.8192" y1="3.18845" x2="25.3702" y2="8.72045" gradientUnits="userSpaceOnUse">
<stop stop-color="#FFCC00"/>
<stop offset="1" stop-color="#FE9B21"/>
</linearGradient>
<linearGradient id="paint4_linear_86_1169" x1="2.90999" y1="17.6873" x2="8.91299" y2="17.9153" gradientUnits="userSpaceOnUse">
<stop stop-color="#FFCC00"/>
<stop offset="1" stop-color="#FE9B21"/>
</linearGradient>
<linearGradient id="paint5_linear_86_1169" x1="0.959148" y1="13.1987" x2="5.86615" y2="15.4367" gradientUnits="userSpaceOnUse">
<stop stop-color="#FFCC00"/>
<stop offset="1" stop-color="#FE9B21"/>
</linearGradient>
<linearGradient id="paint6_linear_86_1169" x1="0.691243" y1="8.0617" x2="3.85124" y2="12.4337" gradientUnits="userSpaceOnUse">
<stop stop-color="#FFCC00"/>
<stop offset="1" stop-color="#FE9B21"/>
</linearGradient>
<linearGradient id="paint7_linear_86_1169" x1="3.18096" y1="3.18845" x2="3.62996" y2="8.72045" gradientUnits="userSpaceOnUse">
<stop stop-color="#FFCC00"/>
<stop offset="1" stop-color="#FE9B21"/>
</linearGradient>
<linearGradient id="paint8_linear_86_1169" x1="14.5002" y1="3.6582" x2="14.5002" y2="18.6582" gradientUnits="userSpaceOnUse">
<stop stop-color="#FF6122"/>
<stop offset="1" stop-color="#F22411"/>
</linearGradient>
<clipPath id="clip0_86_1169">
<rect width="28" height="16" fill="white" transform="translate(0.5 2.99023)"/>
</clipPath>
</defs>
</svg>
