<svg width="153" height="24" viewBox="0 0 153 24" fill="none" xmlns="http://www.w3.org/2000/svg">
<path d="M14.6935 5.39955H13.3003C10.746 5.39955 9.40443 6.68117 9.40443 8.5778C9.40443 10.7309 10.3332 11.7304 12.2425 13.0121L13.8162 14.063L9.27544 20.8039H5.89551L9.972 14.7806C7.62415 13.1145 6.30828 11.4998 6.30828 8.75723C6.30828 5.32274 8.70776 2.99023 13.2745 2.99023H17.8154V20.8039H14.6935V5.39955Z" fill="#FC3F1D"/>
<path fill-rule="evenodd" clip-rule="evenodd" d="M36.485 15.64L32.778 17.905C32.6855 17.9613 32.5784 17.9889 32.4703 17.9842C32.3621 17.9796 32.2578 17.9429 32.1706 17.8788C32.0833 17.8147 32.0171 17.7261 31.9803 17.6243C31.9435 17.5225 31.9378 17.412 31.964 17.307L33.039 13.025L29.92 10.599C29.8329 10.5316 29.7682 10.4394 29.7344 10.3346C29.7007 10.2298 29.6994 10.1173 29.7307 10.0117C29.7621 9.90614 29.8247 9.81253 29.9102 9.74316C29.9957 9.6738 30.1002 9.63191 30.21 9.623L34.29 9.287L35.99 5.321C36.0321 5.22274 36.1022 5.13901 36.1915 5.08021C36.2808 5.02142 36.3854 4.99013 36.4923 4.99023C36.5992 4.99034 36.7037 5.02184 36.7929 5.08081C36.8821 5.13979 36.952 5.22365 36.994 5.322L38.681 9.287L42.788 9.624C43.284 9.664 43.472 10.294 43.078 10.6L39.947 13.025L41.02 17.31C41.0461 17.415 41.0404 17.5255 41.0036 17.6273C40.9668 17.7291 40.9006 17.8177 40.8133 17.8818C40.7261 17.9459 40.6218 17.9826 40.5136 17.9872C40.4055 17.9919 40.2984 17.9643 40.206 17.908L36.485 15.64Z" fill="#FFCC00"/>
<path fill-rule="evenodd" clip-rule="evenodd" d="M55.485 15.64L51.778 17.905C51.6855 17.9613 51.5784 17.9889 51.4703 17.9842C51.3621 17.9796 51.2578 17.9429 51.1706 17.8788C51.0833 17.8147 51.0171 17.7261 50.9803 17.6243C50.9435 17.5225 50.9378 17.412 50.964 17.307L52.039 13.025L48.92 10.599C48.8329 10.5316 48.7682 10.4394 48.7344 10.3346C48.7007 10.2298 48.6994 10.1173 48.7307 10.0117C48.7621 9.90614 48.8247 9.81253 48.9102 9.74316C48.9957 9.6738 49.1002 9.63191 49.21 9.623L53.29 9.287L54.99 5.321C55.0321 5.22274 55.1022 5.13901 55.1915 5.08021C55.2808 5.02142 55.3854 4.99013 55.4923 4.99023C55.5992 4.99034 55.7037 5.02184 55.7929 5.08081C55.8821 5.13979 55.952 5.22365 55.994 5.322L57.681 9.287L61.788 9.624C62.284 9.664 62.472 10.294 62.078 10.6L58.947 13.025L60.02 17.31C60.0461 17.415 60.0404 17.5255 60.0036 17.6273C59.9668 17.7291 59.9006 17.8177 59.8133 17.8818C59.7261 17.9459 59.6218 17.9826 59.5136 17.9872C59.4055 17.9919 59.2984 17.9643 59.206 17.908L55.485 15.64Z" fill="#FFCC00"/>
<path fill-rule="evenodd" clip-rule="evenodd" d="M74.485 15.64L70.778 17.905C70.6855 17.9613 70.5784 17.9889 70.4703 17.9842C70.3621 17.9796 70.2578 17.9429 70.1706 17.8788C70.0833 17.8147 70.0171 17.7261 69.9803 17.6243C69.9435 17.5225 69.9378 17.412 69.964 17.307L71.039 13.025L67.92 10.599C67.8329 10.5316 67.7682 10.4394 67.7344 10.3346C67.7007 10.2298 67.6994 10.1173 67.7307 10.0117C67.7621 9.90614 67.8247 9.81253 67.9102 9.74316C67.9957 9.6738 68.1002 9.63191 68.21 9.623L72.29 9.287L73.99 5.321C74.0321 5.22274 74.1022 5.13901 74.1915 5.08021C74.2808 5.02142 74.3854 4.99013 74.4923 4.99023C74.5992 4.99034 74.7037 5.02184 74.7929 5.08081C74.8821 5.13979 74.952 5.22365 74.994 5.322L76.681 9.287L80.788 9.624C81.284 9.664 81.472 10.294 81.078 10.6L77.947 13.025L79.02 17.31C79.0461 17.415 79.0404 17.5255 79.0036 17.6273C78.9668 17.7291 78.9006 17.8177 78.8133 17.8818C78.7261 17.9459 78.6218 17.9826 78.5136 17.9872C78.4055 17.9919 78.2984 17.9643 78.206 17.908L74.485 15.64Z" fill="#FFCC00"/>
<path fill-rule="evenodd" clip-rule="evenodd" d="M93.485 15.64L89.778 17.905C89.6855 17.9613 89.5784 17.9889 89.4703 17.9842C89.3621 17.9796 89.2578 17.9429 89.1706 17.8788C89.0833 17.8147 89.0171 17.7261 88.9803 17.6243C88.9435 17.5225 88.9378 17.412 88.964 17.307L90.039 13.025L86.92 10.599C86.8329 10.5316 86.7682 10.4394 86.7344 10.3346C86.7007 10.2298 86.6994 10.1173 86.7307 10.0117C86.7621 9.90614 86.8247 9.81253 86.9102 9.74316C86.9957 9.6738 87.1002 9.63191 87.21 9.623L91.29 9.287L92.99 5.321C93.0321 5.22274 93.1022 5.13901 93.1915 5.08021C93.2808 5.02142 93.3854 4.99013 93.4923 4.99023C93.5992 4.99034 93.7037 5.02184 93.7929 5.08081C93.8821 5.13979 93.952 5.22365 93.994 5.322L95.681 9.287L99.788 9.624C100.284 9.664 100.472 10.294 100.078 10.6L96.947 13.025L98.02 17.31C98.0461 17.415 98.0404 17.5255 98.0036 17.6273C97.9668 17.7291 97.9006 17.8177 97.8133 17.8818C97.7261 17.9459 97.6218 17.9826 97.5136 17.9872C97.4055 17.9919 97.2984 17.9643 97.206 17.908L93.485 15.64Z" fill="#FFCC00"/>
<path fill-rule="evenodd" clip-rule="evenodd" d="M112.485 15.64L108.778 17.905C108.686 17.9613 108.578 17.9889 108.47 17.9842C108.362 17.9796 108.258 17.9429 108.171 17.8788C108.083 17.8147 108.017 17.7261 107.98 17.6243C107.944 17.5225 107.938 17.412 107.964 17.307L109.039 13.025L105.92 10.599C105.833 10.5316 105.768 10.4394 105.734 10.3346C105.701 10.2298 105.699 10.1173 105.731 10.0117C105.762 9.90614 105.825 9.81253 105.91 9.74316C105.996 9.6738 106.1 9.63191 106.21 9.623L110.29 9.287L111.99 5.321C112.032 5.22274 112.102 5.13901 112.191 5.08021C112.281 5.02142 112.385 4.99013 112.492 4.99023C112.599 4.99034 112.704 5.02184 112.793 5.08081C112.882 5.13979 112.952 5.22365 112.994 5.322L114.681 9.287L118.788 9.624C119.284 9.664 119.472 10.294 119.078 10.6L115.947 13.025L117.02 17.31C117.046 17.415 117.04 17.5255 117.004 17.6273C116.967 17.7291 116.901 17.8177 116.813 17.8818C116.726 17.9459 116.622 17.9826 116.514 17.9872C116.405 17.9919 116.298 17.9643 116.206 17.908L112.485 15.64Z" fill="#FFCC00"/>
<path d="M132.9 10.3822C133.551 10.3822 134.148 10.5049 134.692 10.7502C135.247 10.9849 135.689 11.3476 136.02 11.8382C136.351 12.3289 136.516 12.9316 136.516 13.6462C136.516 14.3502 136.34 14.9689 135.988 15.5022C135.647 16.0356 135.188 16.4462 134.612 16.7342C134.047 17.0222 133.433 17.1662 132.772 17.1662C131.929 17.1662 131.199 16.9636 130.58 16.5582C129.972 16.1529 129.487 15.6302 129.124 14.9902L129.988 14.3502C130.319 14.8516 130.703 15.2569 131.14 15.5662C131.588 15.8649 132.127 16.0142 132.756 16.0142C133.471 16.0142 134.057 15.8009 134.516 15.3742C134.985 14.9369 135.22 14.3662 135.22 13.6622C135.22 12.9689 134.985 12.4302 134.516 12.0462C134.057 11.6622 133.396 11.4702 132.532 11.4702H130.148V6.43023H135.924V7.55023H131.396V10.5102C131.887 10.4249 132.388 10.3822 132.9 10.3822ZM139.023 15.5502H140.479L139.823 19.8542H138.815L139.023 15.5502ZM146.631 17.1662C145.34 17.1662 144.37 16.6489 143.719 15.6142C143.079 14.5689 142.759 13.2356 142.759 11.6142C142.759 10.0036 143.084 8.70757 143.735 7.72623C144.386 6.7449 145.351 6.25423 146.631 6.25423C147.911 6.25423 148.871 6.7449 149.511 7.72623C150.162 8.6969 150.487 9.9929 150.487 11.6142C150.487 13.2356 150.167 14.5689 149.527 15.6142C148.887 16.6489 147.922 17.1662 146.631 17.1662ZM146.631 16.0142C147.516 16.0142 148.162 15.6196 148.567 14.8302C148.983 14.0409 149.191 12.9742 149.191 11.6302C149.191 10.3076 148.988 9.2729 148.583 8.52623C148.178 7.77957 147.527 7.40623 146.631 7.40623C145.735 7.40623 145.079 7.77957 144.663 8.52623C144.258 9.2729 144.055 10.3076 144.055 11.6302C144.055 12.9742 144.263 14.0409 144.679 14.8302C145.095 15.6196 145.746 16.0142 146.631 16.0142Z" fill="black"/>
</svg>
