<svg width="333" height="333" viewBox="0 0 333 333" fill="none" xmlns="http://www.w3.org/2000/svg">
<path d="M166.5 0C212.118 0 249.167 36.6921 249.743 82.1738L249.75 83.25C295.728 83.25 333 120.522 333 166.5C333 212.478 295.728 249.75 249.75 249.75C249.75 295.728 212.478 333 166.5 333C120.522 333 83.25 295.728 83.25 249.75C37.2723 249.75 0 212.478 0 166.5C0 120.522 37.2723 83.25 83.25 83.25L83.2568 82.1738C83.833 36.6921 120.882 0 166.5 0Z" fill="#823F91"/>
<path d="M102.613 101.88V123H98.2927V107L94.2927 108.28L93.2687 104.472L101.173 101.88H102.613ZM107.776 119.064H112.704L111.008 128.696H107.584L107.776 119.064ZM131.529 119.32V123L115.945 123.032V122.104L123.497 113.912C124.543 112.781 125.3 111.811 125.769 111C126.239 110.189 126.473 109.389 126.473 108.6C126.473 107.683 126.207 106.936 125.673 106.36C125.14 105.784 124.425 105.496 123.529 105.496C122.633 105.496 121.908 105.795 121.353 106.392C120.82 106.989 120.553 107.768 120.553 108.728C120.553 109.112 120.607 109.624 120.713 110.264H116.361C116.212 109.688 116.137 109.091 116.137 108.472C116.137 107.277 116.436 106.147 117.033 105.08C117.652 104.013 118.527 103.149 119.657 102.488C120.788 101.827 122.1 101.496 123.593 101.496C124.98 101.496 126.228 101.795 127.337 102.392C128.468 102.968 129.343 103.768 129.961 104.792C130.601 105.816 130.921 106.968 130.921 108.248C130.921 109.677 130.537 111.011 129.769 112.248C129.001 113.464 127.871 114.861 126.377 116.44L123.657 119.32H131.529ZM165.266 101.496V123H160.945V111.736L155.634 118.392H154.225L148.913 111.736V123H144.593V101.496H146.001L154.929 112.92L163.858 101.496H165.266ZM186.733 101.88V123H182.413V105.784H176.333C176.269 110.285 175.97 113.816 175.437 116.376C174.925 118.915 174.189 120.707 173.229 121.752C172.269 122.797 171.031 123.32 169.517 123.32C168.898 123.32 168.29 123.213 167.693 123V119.32C167.821 119.363 168.109 119.384 168.557 119.384C169.41 119.384 170.093 118.904 170.605 117.944C171.138 116.984 171.522 115.523 171.757 113.56C172.013 111.576 172.162 108.984 172.205 105.784L172.237 101.88H186.733ZM191.593 101.88H195.913V109.976H205.257V101.88H209.577V123H205.257V113.88H195.913V123H191.593V101.88Z" fill="white"/>
<path d="M94.0632 142.12H103.351V154H101.947V143.38H95.4672V154H94.0632V142.12ZM111.044 145.036C111.872 145.036 112.616 145.24 113.276 145.648C113.936 146.044 114.452 146.59 114.824 147.286C115.196 147.982 115.382 148.756 115.382 149.608C115.382 150.46 115.19 151.24 114.806 151.948C114.434 152.644 113.918 153.196 113.258 153.604C112.598 154 111.86 154.198 111.044 154.198C110.396 154.198 109.784 154.072 109.208 153.82C108.644 153.556 108.182 153.196 107.822 152.74V157.24H106.436V145.234H107.732V146.638C108.068 146.134 108.53 145.744 109.118 145.468C109.718 145.18 110.36 145.036 111.044 145.036ZM110.846 152.92C111.434 152.92 111.962 152.782 112.43 152.506C112.91 152.218 113.282 151.822 113.546 151.318C113.822 150.814 113.96 150.25 113.96 149.626C113.96 149.002 113.822 148.438 113.546 147.934C113.282 147.43 112.91 147.034 112.43 146.746C111.962 146.458 111.434 146.314 110.846 146.314C110.318 146.314 109.82 146.434 109.352 146.674C108.896 146.914 108.524 147.28 108.236 147.772C107.948 148.264 107.804 148.876 107.804 149.608C107.804 150.34 107.942 150.958 108.218 151.462C108.506 151.954 108.878 152.32 109.334 152.56C109.802 152.8 110.306 152.92 110.846 152.92ZM125.045 145.036V154H123.659V147.808L118.313 154.198H117.809V145.234H119.195V151.444L124.541 145.036H125.045ZM132.358 145.36C133.15 145.36 133.882 145.558 134.554 145.954C135.226 146.35 135.754 146.89 136.138 147.574C136.534 148.246 136.732 148.978 136.732 149.77C136.732 150.574 136.528 151.318 136.12 152.002C135.712 152.674 135.16 153.208 134.464 153.604C133.768 153.988 133 154.18 132.16 154.18C131.272 154.18 130.486 153.976 129.802 153.568C129.118 153.148 128.584 152.566 128.2 151.822C127.828 151.066 127.642 150.208 127.642 149.248V147.718C127.642 146.374 127.774 145.27 128.038 144.406C128.314 143.542 128.842 142.822 129.622 142.246C130.414 141.67 131.554 141.256 133.042 141.004C134.53 140.74 135.514 140.506 135.994 140.302V141.634C135.442 141.874 134.512 142.09 133.204 142.282C131.956 142.462 131.026 142.78 130.414 143.236C129.802 143.68 129.412 144.208 129.244 144.82C129.076 145.42 128.992 146.188 128.992 147.124C129.364 146.572 129.844 146.14 130.432 145.828C131.032 145.516 131.674 145.36 132.358 145.36ZM132.178 152.902C132.754 152.902 133.282 152.764 133.762 152.488C134.242 152.212 134.62 151.834 134.896 151.354C135.172 150.874 135.31 150.346 135.31 149.77C135.31 149.194 135.172 148.666 134.896 148.186C134.62 147.706 134.242 147.328 133.762 147.052C133.282 146.776 132.754 146.638 132.178 146.638C131.614 146.638 131.092 146.776 130.612 147.052C130.132 147.328 129.748 147.706 129.46 148.186C129.184 148.666 129.046 149.194 129.046 149.77C129.046 150.334 129.184 150.856 129.46 151.336C129.748 151.816 130.132 152.2 130.612 152.488C131.092 152.764 131.614 152.902 132.178 152.902ZM139.166 145.234H140.552V148.258H142.64C143.624 148.258 144.416 148.522 145.016 149.05C145.616 149.566 145.916 150.256 145.916 151.12C145.916 151.996 145.616 152.698 145.016 153.226C144.428 153.742 143.636 154 142.64 154H139.166V145.234ZM147.194 145.234H148.58V154H147.194V145.234ZM142.568 152.776C143.192 152.776 143.666 152.638 143.99 152.362C144.326 152.074 144.494 151.666 144.494 151.138C144.494 150.61 144.326 150.202 143.99 149.914C143.654 149.626 143.174 149.482 142.55 149.482H140.552V152.776H142.568ZM158.253 145.234V154H156.867V146.476H153.609L153.573 147.556C153.525 149.092 153.411 150.328 153.231 151.264C153.051 152.2 152.763 152.902 152.367 153.37C151.971 153.838 151.431 154.072 150.747 154.072C150.579 154.072 150.423 154.048 150.279 154V152.83C150.423 152.854 150.543 152.866 150.639 152.866C151.203 152.866 151.605 152.428 151.845 151.552C152.085 150.664 152.223 149.32 152.259 147.52L152.313 145.234H158.253ZM161.315 145.234H162.701V148.258H164.789C165.785 148.258 166.577 148.522 167.165 149.05C167.765 149.566 168.065 150.256 168.065 151.12C168.065 151.984 167.765 152.68 167.165 153.208C166.577 153.736 165.785 154 164.789 154H161.315V145.234ZM164.717 152.776C165.329 152.776 165.803 152.626 166.139 152.326C166.475 152.026 166.643 151.63 166.643 151.138C166.643 150.646 166.469 150.25 166.121 149.95C165.785 149.638 165.311 149.482 164.699 149.482H162.701V152.776H164.717ZM181.061 149.248C181.577 149.428 181.979 149.698 182.267 150.058C182.567 150.418 182.717 150.85 182.717 151.354C182.717 152.134 182.435 152.77 181.871 153.262C181.307 153.754 180.551 154 179.603 154H175.535V145.234H179.153C180.017 145.234 180.701 145.444 181.205 145.864C181.721 146.284 181.979 146.848 181.979 147.556C181.979 147.904 181.895 148.228 181.727 148.528C181.571 148.816 181.349 149.056 181.061 149.248ZM176.921 148.816H179.171C179.651 148.816 180.011 148.714 180.251 148.51C180.491 148.294 180.611 148 180.611 147.628C180.611 146.86 180.131 146.476 179.171 146.476H176.921V148.816ZM179.513 152.776C180.089 152.776 180.533 152.644 180.845 152.38C181.169 152.116 181.331 151.774 181.331 151.354C181.331 150.946 181.169 150.628 180.845 150.4C180.533 150.16 180.089 150.04 179.513 150.04H176.921V152.776H179.513ZM190.371 145.036H190.875L195.033 149.968L199.173 145.036H199.659V154H198.273V148.078L195.285 151.642H194.745L191.757 148.078V154H190.371V145.036ZM210.451 150.04H203.521C203.605 150.904 203.947 151.6 204.547 152.128C205.147 152.656 205.879 152.92 206.743 152.92C207.739 152.92 208.633 152.524 209.425 151.732L210.235 152.668C209.779 153.148 209.251 153.526 208.651 153.802C208.063 154.066 207.421 154.198 206.725 154.198C205.861 154.198 205.075 154 204.367 153.604C203.659 153.196 203.101 152.644 202.693 151.948C202.285 151.252 202.081 150.478 202.081 149.626C202.081 148.786 202.279 148.018 202.675 147.322C203.071 146.614 203.611 146.056 204.295 145.648C204.979 145.24 205.735 145.036 206.563 145.036C207.307 145.036 207.985 145.204 208.597 145.54C209.209 145.876 209.689 146.344 210.037 146.944C210.385 147.544 210.559 148.228 210.559 148.996C210.559 149.332 210.523 149.68 210.451 150.04ZM206.527 146.296C205.795 146.296 205.159 146.53 204.619 146.998C204.079 147.454 203.731 148.06 203.575 148.816H209.137C209.125 148.036 208.867 147.424 208.363 146.98C207.871 146.524 207.259 146.296 206.527 146.296ZM216.954 154.198C216.114 154.198 215.34 153.994 214.632 153.586C213.936 153.178 213.384 152.626 212.976 151.93C212.568 151.222 212.364 150.448 212.364 149.608C212.364 148.768 212.568 148 212.976 147.304C213.384 146.608 213.936 146.056 214.632 145.648C215.34 145.24 216.114 145.036 216.954 145.036C217.722 145.036 218.418 145.21 219.042 145.558C219.666 145.894 220.176 146.356 220.572 146.944L219.582 147.736C218.874 146.788 218.004 146.314 216.972 146.314C216.372 146.314 215.826 146.464 215.334 146.764C214.854 147.052 214.476 147.448 214.2 147.952C213.924 148.456 213.786 149.008 213.786 149.608C213.786 150.22 213.924 150.778 214.2 151.282C214.476 151.786 214.854 152.188 215.334 152.488C215.826 152.776 216.372 152.92 216.972 152.92C218.004 152.92 218.868 152.452 219.564 151.516L220.554 152.29C220.158 152.878 219.648 153.346 219.024 153.694C218.412 154.03 217.722 154.198 216.954 154.198ZM229.123 145.234V154H227.737V150.796H226.081L223.669 154H222.049L224.605 150.616C223.957 150.424 223.447 150.106 223.075 149.662C222.715 149.206 222.535 148.666 222.535 148.042C222.535 147.19 222.817 146.512 223.381 146.008C223.945 145.492 224.695 145.234 225.631 145.234H229.123ZM227.737 146.476H225.721C225.169 146.476 224.737 146.614 224.425 146.89C224.113 147.166 223.957 147.544 223.957 148.024C223.957 148.492 224.113 148.87 224.425 149.158C224.749 149.434 225.187 149.572 225.739 149.572H227.737V146.476ZM239.21 154H232.19V145.234H233.576V152.776H237.788V145.234H239.174V152.776H240.596V156.538H239.21V154Z" fill="white"/>
<path d="M127.357 201.32V205L111.773 205.032V204.104L119.325 195.912C120.371 194.781 121.128 193.811 121.597 193C122.067 192.189 122.301 191.389 122.301 190.6C122.301 189.683 122.035 188.936 121.501 188.36C120.968 187.784 120.253 187.496 119.357 187.496C118.461 187.496 117.736 187.795 117.181 188.392C116.648 188.989 116.381 189.768 116.381 190.728C116.381 191.112 116.435 191.624 116.541 192.264H112.189C112.04 191.688 111.965 191.091 111.965 190.472C111.965 189.277 112.264 188.147 112.861 187.08C113.48 186.013 114.355 185.149 115.485 184.488C116.616 183.827 117.928 183.496 119.421 183.496C120.808 183.496 122.056 183.795 123.165 184.392C124.296 184.968 125.171 185.768 125.789 186.792C126.429 187.816 126.749 188.968 126.749 190.248C126.749 191.677 126.365 193.011 125.597 194.248C124.829 195.464 123.699 196.861 122.205 198.44L119.485 201.32H127.357ZM140.422 183.88H153.99V187.784H144.742V205H140.422V183.88ZM166.656 205.384C164.608 205.384 162.73 204.904 161.024 203.944C159.317 202.984 157.962 201.672 156.96 200.008C155.957 198.323 155.456 196.467 155.456 194.44C155.456 192.413 155.957 190.568 156.96 188.904C157.962 187.219 159.317 185.896 161.024 184.936C162.73 183.976 164.608 183.496 166.656 183.496C168.704 183.496 170.581 183.976 172.288 184.936C174.016 185.896 175.381 187.219 176.384 188.904C177.408 190.568 177.92 192.413 177.92 194.44C177.92 196.467 177.408 198.323 176.384 200.008C175.381 201.672 174.016 202.984 172.288 203.944C170.581 204.904 168.704 205.384 166.656 205.384ZM166.688 201.384C167.968 201.384 169.12 201.096 170.144 200.52C171.189 199.923 172 199.101 172.576 198.056C173.173 196.989 173.472 195.784 173.472 194.44C173.472 193.117 173.173 191.933 172.576 190.888C172 189.821 171.189 188.989 170.144 188.392C169.12 187.795 167.968 187.496 166.688 187.496C165.386 187.496 164.224 187.795 163.2 188.392C162.176 188.968 161.365 189.789 160.768 190.856C160.192 191.901 159.904 193.096 159.904 194.44C159.904 195.784 160.192 196.989 160.768 198.056C161.365 199.101 162.176 199.923 163.2 200.52C164.224 201.096 165.386 201.384 166.688 201.384ZM200.919 201.096V209.512H196.599V205H183.447V209.512H179.127V201.096H180.823C181.74 200.349 182.401 198.867 182.807 196.648C183.212 194.408 183.415 191.315 183.415 187.368V183.88H198.103V201.096H200.919ZM187.479 187.784C187.436 191.048 187.255 193.779 186.935 195.976C186.636 198.152 186.167 199.859 185.527 201.096H193.783V187.784H187.479ZM216.557 202.248H207.917L206.733 205H202.093L211.533 183.496H212.973L222.381 205H217.741L216.557 202.248ZM212.237 191.56L209.421 198.696H215.053L212.237 191.56Z" fill="white"/>
<path d="M116.853 236.198C115.725 236.198 114.687 235.928 113.739 235.388C112.803 234.848 112.059 234.11 111.507 233.174C110.967 232.226 110.697 231.188 110.697 230.06C110.697 228.92 110.967 227.882 111.507 226.946C112.059 226.01 112.803 225.272 113.739 224.732C114.687 224.192 115.725 223.922 116.853 223.922C117.969 223.922 119.001 224.192 119.949 224.732C120.897 225.272 121.647 226.01 122.199 226.946C122.751 227.882 123.027 228.92 123.027 230.06C123.027 231.2 122.751 232.238 122.199 233.174C121.647 234.11 120.897 234.848 119.949 235.388C119.001 235.928 117.969 236.198 116.853 236.198ZM116.871 234.902C117.747 234.902 118.545 234.692 119.265 234.272C119.985 233.84 120.549 233.258 120.957 232.526C121.365 231.782 121.569 230.954 121.569 230.042C121.569 229.142 121.365 228.326 120.957 227.594C120.549 226.85 119.985 226.268 119.265 225.848C118.545 225.428 117.747 225.218 116.871 225.218C115.983 225.218 115.179 225.428 114.459 225.848C113.739 226.268 113.175 226.844 112.767 227.576C112.359 228.308 112.155 229.13 112.155 230.042C112.155 230.954 112.359 231.782 112.767 232.526C113.175 233.258 113.739 233.84 114.459 234.272C115.179 234.692 115.983 234.902 116.871 234.902ZM125.426 227.234H126.812V236H125.426V227.234ZM132.806 236H131.06L126.992 231.248L130.682 227.234H132.41L128.684 231.212L132.806 236ZM142.394 227.234L138.074 237.224C137.738 237.992 137.324 238.55 136.832 238.898C136.352 239.258 135.776 239.438 135.104 239.438C134.66 239.438 134.21 239.378 133.754 239.258V238.088C134.21 238.148 134.564 238.178 134.816 238.178C135.272 238.178 135.656 238.076 135.968 237.872C136.292 237.668 136.568 237.302 136.796 236.774L137.264 235.73L133.628 227.234H135.122L138.02 234.218L140.918 227.234H142.394ZM144.393 227.234H151.395V236H149.991V228.476H145.779V236H144.393V227.234ZM157.58 227.036C158.612 227.036 159.44 227.342 160.064 227.954C160.688 228.566 161 229.448 161 230.6V236H159.704V234.866C159.38 235.298 158.966 235.628 158.462 235.856C157.958 236.084 157.388 236.198 156.752 236.198C155.852 236.198 155.114 235.976 154.538 235.532C153.974 235.088 153.692 234.488 153.692 233.732C153.692 232.988 153.98 232.394 154.556 231.95C155.132 231.506 155.894 231.284 156.842 231.284H159.614V230.528C159.614 229.808 159.422 229.262 159.038 228.89C158.666 228.506 158.15 228.314 157.49 228.314C156.962 228.314 156.494 228.434 156.086 228.674C155.678 228.902 155.294 229.25 154.934 229.718L154.016 228.962C154.412 228.314 154.922 227.834 155.546 227.522C156.17 227.198 156.848 227.036 157.58 227.036ZM156.932 235.046C157.412 235.046 157.856 234.944 158.264 234.74C158.672 234.524 158.996 234.23 159.236 233.858C159.488 233.486 159.614 233.078 159.614 232.634V232.418H157.004C156.392 232.418 155.924 232.526 155.6 232.742C155.276 232.946 155.114 233.252 155.114 233.66C155.114 234.104 155.288 234.446 155.636 234.686C155.984 234.926 156.416 235.046 156.932 235.046ZM171.68 232.04H164.75C164.834 232.904 165.176 233.6 165.776 234.128C166.376 234.656 167.108 234.92 167.972 234.92C168.968 234.92 169.862 234.524 170.654 233.732L171.464 234.668C171.008 235.148 170.48 235.526 169.88 235.802C169.292 236.066 168.65 236.198 167.954 236.198C167.09 236.198 166.304 236 165.596 235.604C164.888 235.196 164.33 234.644 163.922 233.948C163.514 233.252 163.31 232.478 163.31 231.626C163.31 230.786 163.508 230.018 163.904 229.322C164.3 228.614 164.84 228.056 165.524 227.648C166.208 227.24 166.964 227.036 167.792 227.036C168.536 227.036 169.214 227.204 169.826 227.54C170.438 227.876 170.918 228.344 171.266 228.944C171.614 229.544 171.788 230.228 171.788 230.996C171.788 231.332 171.752 231.68 171.68 232.04ZM167.756 228.296C167.024 228.296 166.388 228.53 165.848 228.998C165.308 229.454 164.96 230.06 164.804 230.816H170.366C170.354 230.036 170.096 229.424 169.592 228.98C169.1 228.524 168.488 228.296 167.756 228.296ZM174.223 227.036H174.727L178.885 231.968L183.025 227.036H183.511V236H182.125V230.078L179.137 233.642H178.597L175.609 230.078V236H174.223V227.036ZM190.505 236.18C189.665 236.18 188.897 235.976 188.201 235.568C187.505 235.16 186.953 234.608 186.545 233.912C186.137 233.204 185.933 232.436 185.933 231.608C185.933 230.768 186.137 230 186.545 229.304C186.953 228.596 187.505 228.044 188.201 227.648C188.909 227.24 189.683 227.036 190.523 227.036C191.363 227.036 192.131 227.24 192.827 227.648C193.535 228.056 194.093 228.608 194.501 229.304C194.909 230 195.113 230.768 195.113 231.608C195.113 232.436 194.909 233.204 194.501 233.912C194.093 234.608 193.535 235.16 192.827 235.568C192.119 235.976 191.345 236.18 190.505 236.18ZM190.505 234.902C191.093 234.902 191.627 234.758 192.107 234.47C192.599 234.182 192.983 233.792 193.259 233.3C193.547 232.796 193.691 232.238 193.691 231.626C193.691 231.002 193.553 230.438 193.277 229.934C193.001 229.43 192.617 229.034 192.125 228.746C191.645 228.458 191.111 228.314 190.523 228.314C189.923 228.314 189.383 228.458 188.903 228.746C188.423 229.034 188.045 229.43 187.769 229.934C187.493 230.438 187.355 231.002 187.355 231.626C187.355 232.238 187.493 232.796 187.769 233.3C188.045 233.792 188.423 234.182 188.903 234.47C189.383 234.758 189.917 234.902 190.505 234.902ZM201.509 236.198C200.669 236.198 199.895 235.994 199.187 235.586C198.491 235.178 197.939 234.626 197.531 233.93C197.123 233.222 196.919 232.448 196.919 231.608C196.919 230.768 197.123 230 197.531 229.304C197.939 228.608 198.491 228.056 199.187 227.648C199.895 227.24 200.669 227.036 201.509 227.036C202.277 227.036 202.973 227.21 203.597 227.558C204.221 227.894 204.731 228.356 205.127 228.944L204.137 229.736C203.429 228.788 202.559 228.314 201.527 228.314C200.927 228.314 200.381 228.464 199.889 228.764C199.409 229.052 199.031 229.448 198.755 229.952C198.479 230.456 198.341 231.008 198.341 231.608C198.341 232.22 198.479 232.778 198.755 233.282C199.031 233.786 199.409 234.188 199.889 234.488C200.381 234.776 200.927 234.92 201.527 234.92C202.559 234.92 203.423 234.452 204.119 233.516L205.109 234.29C204.713 234.878 204.203 235.346 203.579 235.694C202.967 236.03 202.277 236.198 201.509 236.198ZM209.245 228.476H206.293V227.234H213.565V228.476H210.613V236H209.245V228.476ZM215.479 227.234H216.865V230.258H218.953C219.949 230.258 220.741 230.522 221.329 231.05C221.929 231.566 222.229 232.256 222.229 233.12C222.229 233.984 221.929 234.68 221.329 235.208C220.741 235.736 219.949 236 218.953 236H215.479V227.234ZM218.881 234.776C219.493 234.776 219.967 234.626 220.303 234.326C220.639 234.026 220.807 233.63 220.807 233.138C220.807 232.646 220.633 232.25 220.285 231.95C219.949 231.638 219.475 231.482 218.863 231.482H216.865V234.776H218.881Z" fill="white"/>
</svg>
