<svg width="333" height="333" viewBox="0 0 333 333" fill="none" xmlns="http://www.w3.org/2000/svg">
<path d="M166.5 0C212.118 0 249.167 36.6921 249.743 82.1738L249.75 83.25C295.728 83.25 333 120.522 333 166.5C333 212.478 295.728 249.75 249.75 249.75C249.75 295.728 212.478 333 166.5 333C120.522 333 83.25 295.728 83.25 249.75C37.2723 249.75 0 212.478 0 166.5C0 120.522 37.2723 83.25 83.25 83.25L83.2568 82.1738C83.833 36.6921 120.882 0 166.5 0Z" fill="#823F91"/>
<path d="M74.8431 123.12H81.8811V124.38H76.2471V127.98H78.8571C79.6611 127.98 80.3631 128.13 80.9631 128.43C81.5631 128.73 82.0191 129.144 82.3311 129.672C82.6551 130.2 82.8171 130.8 82.8171 131.472C82.8171 132.156 82.6551 132.768 82.3311 133.308C82.0191 133.836 81.5631 134.25 80.9631 134.55C80.3631 134.85 79.6611 135 78.8571 135H74.8431V123.12ZM78.8391 133.74C79.6431 133.74 80.2611 133.53 80.6931 133.11C81.1371 132.69 81.3591 132.15 81.3591 131.49C81.3591 130.83 81.1371 130.29 80.6931 129.87C80.2611 129.45 79.6431 129.24 78.8391 129.24H76.2471V133.74H78.8391ZM91.6774 126.234V135H90.2914V127.476H87.0334L86.9974 128.556C86.9494 130.092 86.8354 131.328 86.6554 132.264C86.4754 133.2 86.1874 133.902 85.7914 134.37C85.3954 134.838 84.8554 135.072 84.1714 135.072C84.0034 135.072 83.8474 135.048 83.7034 135V133.83C83.8474 133.854 83.9674 133.866 84.0634 133.866C84.6274 133.866 85.0294 133.428 85.2694 132.552C85.5094 131.664 85.6474 130.32 85.6834 128.52L85.7374 126.234H91.6774ZM97.889 126.036C98.921 126.036 99.749 126.342 100.373 126.954C100.997 127.566 101.309 128.448 101.309 129.6V135H100.013V133.866C99.689 134.298 99.275 134.628 98.771 134.856C98.267 135.084 97.697 135.198 97.061 135.198C96.161 135.198 95.423 134.976 94.847 134.532C94.283 134.088 94.001 133.488 94.001 132.732C94.001 131.988 94.289 131.394 94.865 130.95C95.441 130.506 96.203 130.284 97.151 130.284H99.923V129.528C99.923 128.808 99.731 128.262 99.347 127.89C98.975 127.506 98.459 127.314 97.799 127.314C97.271 127.314 96.803 127.434 96.395 127.674C95.987 127.902 95.603 128.25 95.243 128.718L94.325 127.962C94.721 127.314 95.231 126.834 95.855 126.522C96.479 126.198 97.157 126.036 97.889 126.036ZM97.241 134.046C97.721 134.046 98.165 133.944 98.573 133.74C98.981 133.524 99.305 133.23 99.545 132.858C99.797 132.486 99.923 132.078 99.923 131.634V131.418H97.313C96.701 131.418 96.233 131.526 95.909 131.742C95.585 131.946 95.423 132.252 95.423 132.66C95.423 133.104 95.597 133.446 95.945 133.686C96.293 133.926 96.725 134.046 97.241 134.046ZM104.249 126.234H110.153V127.476H105.635V135H104.249V126.234ZM115.609 135.18C114.769 135.18 114.001 134.976 113.305 134.568C112.609 134.16 112.057 133.608 111.649 132.912C111.241 132.204 111.037 131.436 111.037 130.608C111.037 129.768 111.241 129 111.649 128.304C112.057 127.596 112.609 127.044 113.305 126.648C114.013 126.24 114.787 126.036 115.627 126.036C116.467 126.036 117.235 126.24 117.931 126.648C118.639 127.056 119.197 127.608 119.605 128.304C120.013 129 120.217 129.768 120.217 130.608C120.217 131.436 120.013 132.204 119.605 132.912C119.197 133.608 118.639 134.16 117.931 134.568C117.223 134.976 116.449 135.18 115.609 135.18ZM115.609 133.902C116.197 133.902 116.731 133.758 117.211 133.47C117.703 133.182 118.087 132.792 118.363 132.3C118.651 131.796 118.795 131.238 118.795 130.626C118.795 130.002 118.657 129.438 118.381 128.934C118.105 128.43 117.721 128.034 117.229 127.746C116.749 127.458 116.215 127.314 115.627 127.314C115.027 127.314 114.487 127.458 114.007 127.746C113.527 128.034 113.149 128.43 112.873 128.934C112.597 129.438 112.459 130.002 112.459 130.626C112.459 131.238 112.597 131.796 112.873 132.3C113.149 132.792 113.527 133.182 114.007 133.47C114.487 133.758 115.021 133.902 115.609 133.902ZM130.615 133.776V137.538H129.229V135H122.335V137.538H120.949V133.776H121.939C122.347 133.356 122.635 132.738 122.803 131.922C122.971 131.094 123.067 130.02 123.091 128.7L123.145 126.234H129.193V133.776H130.615ZM124.405 128.718C124.381 129.942 124.279 130.992 124.099 131.868C123.919 132.732 123.685 133.368 123.397 133.776H127.807V127.476H124.459L124.405 128.718ZM135.946 126.036C136.978 126.036 137.806 126.342 138.43 126.954C139.054 127.566 139.366 128.448 139.366 129.6V135H138.07V133.866C137.746 134.298 137.332 134.628 136.828 134.856C136.324 135.084 135.754 135.198 135.118 135.198C134.218 135.198 133.48 134.976 132.904 134.532C132.34 134.088 132.058 133.488 132.058 132.732C132.058 131.988 132.346 131.394 132.922 130.95C133.498 130.506 134.26 130.284 135.208 130.284H137.98V129.528C137.98 128.808 137.788 128.262 137.404 127.89C137.032 127.506 136.516 127.314 135.856 127.314C135.328 127.314 134.86 127.434 134.452 127.674C134.044 127.902 133.66 128.25 133.3 128.718L132.382 127.962C132.778 127.314 133.288 126.834 133.912 126.522C134.536 126.198 135.214 126.036 135.946 126.036ZM135.298 134.046C135.778 134.046 136.222 133.944 136.63 133.74C137.038 133.524 137.362 133.23 137.602 132.858C137.854 132.486 137.98 132.078 137.98 131.634V131.418H135.37C134.758 131.418 134.29 131.526 133.966 131.742C133.642 131.946 133.48 132.252 133.48 132.66C133.48 133.104 133.654 133.446 134.002 133.686C134.35 133.926 134.782 134.046 135.298 134.046ZM146.913 126.036C147.741 126.036 148.485 126.24 149.145 126.648C149.805 127.044 150.321 127.59 150.693 128.286C151.065 128.982 151.251 129.756 151.251 130.608C151.251 131.46 151.059 132.24 150.675 132.948C150.303 133.644 149.787 134.196 149.127 134.604C148.467 135 147.729 135.198 146.913 135.198C146.265 135.198 145.653 135.072 145.077 134.82C144.513 134.556 144.051 134.196 143.691 133.74V138.24H142.305V126.234H143.601V127.638C143.937 127.134 144.399 126.744 144.987 126.468C145.587 126.18 146.229 126.036 146.913 126.036ZM146.715 133.92C147.303 133.92 147.831 133.782 148.299 133.506C148.779 133.218 149.151 132.822 149.415 132.318C149.691 131.814 149.829 131.25 149.829 130.626C149.829 130.002 149.691 129.438 149.415 128.934C149.151 128.43 148.779 128.034 148.299 127.746C147.831 127.458 147.303 127.314 146.715 127.314C146.187 127.314 145.689 127.434 145.221 127.674C144.765 127.914 144.393 128.28 144.105 128.772C143.817 129.264 143.673 129.876 143.673 130.608C143.673 131.34 143.811 131.958 144.087 132.462C144.375 132.954 144.747 133.32 145.203 133.56C145.671 133.8 146.175 133.92 146.715 133.92ZM159.805 126.234V135H158.419V131.796H156.763L154.351 135H152.731L155.287 131.616C154.639 131.424 154.129 131.106 153.757 130.662C153.397 130.206 153.217 129.666 153.217 129.042C153.217 128.19 153.499 127.512 154.063 127.008C154.627 126.492 155.377 126.234 156.313 126.234H159.805ZM158.419 127.476H156.403C155.851 127.476 155.419 127.614 155.107 127.89C154.795 128.166 154.639 128.544 154.639 129.024C154.639 129.492 154.795 129.87 155.107 130.158C155.431 130.434 155.869 130.572 156.421 130.572H158.419V127.476ZM167.917 126.234H174.919V135H173.515V127.476H169.303V135H167.917V126.234ZM181.104 126.036C182.136 126.036 182.964 126.342 183.588 126.954C184.212 127.566 184.524 128.448 184.524 129.6V135H183.228V133.866C182.904 134.298 182.49 134.628 181.986 134.856C181.482 135.084 180.912 135.198 180.276 135.198C179.376 135.198 178.638 134.976 178.062 134.532C177.498 134.088 177.216 133.488 177.216 132.732C177.216 131.988 177.504 131.394 178.08 130.95C178.656 130.506 179.418 130.284 180.366 130.284H183.138V129.528C183.138 128.808 182.946 128.262 182.562 127.89C182.19 127.506 181.674 127.314 181.014 127.314C180.486 127.314 180.018 127.434 179.61 127.674C179.202 127.902 178.818 128.25 178.458 128.718L177.54 127.962C177.936 127.314 178.446 126.834 179.07 126.522C179.694 126.198 180.372 126.036 181.104 126.036ZM180.456 134.046C180.936 134.046 181.38 133.944 181.788 133.74C182.196 133.524 182.52 133.23 182.76 132.858C183.012 132.486 183.138 132.078 183.138 131.634V131.418H180.528C179.916 131.418 179.448 131.526 179.124 131.742C178.8 131.946 178.638 132.252 178.638 132.66C178.638 133.104 178.812 133.446 179.16 133.686C179.508 133.926 179.94 134.046 180.456 134.046ZM192.072 126.036C192.9 126.036 193.644 126.24 194.304 126.648C194.964 127.044 195.48 127.59 195.852 128.286C196.224 128.982 196.41 129.756 196.41 130.608C196.41 131.46 196.218 132.24 195.834 132.948C195.462 133.644 194.946 134.196 194.286 134.604C193.626 135 192.888 135.198 192.072 135.198C191.424 135.198 190.812 135.072 190.236 134.82C189.672 134.556 189.21 134.196 188.85 133.74V138.24H187.464V126.234H188.76V127.638C189.096 127.134 189.558 126.744 190.146 126.468C190.746 126.18 191.388 126.036 192.072 126.036ZM191.874 133.92C192.462 133.92 192.99 133.782 193.458 133.506C193.938 133.218 194.31 132.822 194.574 132.318C194.85 131.814 194.988 131.25 194.988 130.626C194.988 130.002 194.85 129.438 194.574 128.934C194.31 128.43 193.938 128.034 193.458 127.746C192.99 127.458 192.462 127.314 191.874 127.314C191.346 127.314 190.848 127.434 190.38 127.674C189.924 127.914 189.552 128.28 189.264 128.772C188.976 129.264 188.832 129.876 188.832 130.608C188.832 131.34 188.97 131.958 189.246 132.462C189.534 132.954 189.906 133.32 190.362 133.56C190.83 133.8 191.334 133.92 191.874 133.92ZM200.478 127.476H197.526V126.234H204.798V127.476H201.846V135H200.478V127.476ZM206.712 126.234H208.098V129.726H212.4V126.234H213.786V135H212.4V130.95H208.098V135H206.712V126.234ZM224.559 131.04H217.629C217.713 131.904 218.055 132.6 218.655 133.128C219.255 133.656 219.987 133.92 220.851 133.92C221.847 133.92 222.741 133.524 223.533 132.732L224.343 133.668C223.887 134.148 223.359 134.526 222.759 134.802C222.171 135.066 221.529 135.198 220.833 135.198C219.969 135.198 219.183 135 218.475 134.604C217.767 134.196 217.209 133.644 216.801 132.948C216.393 132.252 216.189 131.478 216.189 130.626C216.189 129.786 216.387 129.018 216.783 128.322C217.179 127.614 217.719 127.056 218.403 126.648C219.087 126.24 219.843 126.036 220.671 126.036C221.415 126.036 222.093 126.204 222.705 126.54C223.317 126.876 223.797 127.344 224.145 127.944C224.493 128.544 224.667 129.228 224.667 129.996C224.667 130.332 224.631 130.68 224.559 131.04ZM220.635 127.296C219.903 127.296 219.267 127.53 218.727 127.998C218.187 128.454 217.839 129.06 217.683 129.816H223.245C223.233 129.036 222.975 128.424 222.471 127.98C221.979 127.524 221.367 127.296 220.635 127.296ZM218.709 123.84C218.457 123.84 218.229 123.744 218.025 123.552C217.821 123.36 217.719 123.138 217.719 122.886C217.719 122.622 217.821 122.394 218.025 122.202C218.229 122.01 218.457 121.914 218.709 121.914C218.985 121.914 219.219 122.01 219.411 122.202C219.615 122.394 219.717 122.622 219.717 122.886C219.717 123.15 219.615 123.378 219.411 123.57C219.219 123.75 218.985 123.84 218.709 123.84ZM222.543 123.84C222.279 123.84 222.045 123.744 221.841 123.552C221.637 123.36 221.535 123.138 221.535 122.886C221.535 122.622 221.637 122.394 221.841 122.202C222.045 122.01 222.279 121.914 222.543 121.914C222.819 121.914 223.053 122.01 223.245 122.202C223.437 122.394 223.533 122.622 223.533 122.886C223.533 123.15 223.437 123.378 223.245 123.57C223.053 123.75 222.819 123.84 222.543 123.84ZM231.71 126.036C232.538 126.036 233.282 126.24 233.942 126.648C234.602 127.044 235.118 127.59 235.49 128.286C235.862 128.982 236.048 129.756 236.048 130.608C236.048 131.46 235.856 132.24 235.472 132.948C235.1 133.644 234.584 134.196 233.924 134.604C233.264 135 232.526 135.198 231.71 135.198C231.062 135.198 230.45 135.072 229.874 134.82C229.31 134.556 228.848 134.196 228.488 133.74V138.24H227.102V126.234H228.398V127.638C228.734 127.134 229.196 126.744 229.784 126.468C230.384 126.18 231.026 126.036 231.71 126.036ZM231.512 133.92C232.1 133.92 232.628 133.782 233.096 133.506C233.576 133.218 233.948 132.822 234.212 132.318C234.488 131.814 234.626 131.25 234.626 130.626C234.626 130.002 234.488 129.438 234.212 128.934C233.948 128.43 233.576 128.034 233.096 127.746C232.628 127.458 232.1 127.314 231.512 127.314C230.984 127.314 230.486 127.434 230.018 127.674C229.562 127.914 229.19 128.28 228.902 128.772C228.614 129.264 228.47 129.876 228.47 130.608C228.47 131.34 228.608 131.958 228.884 132.462C229.172 132.954 229.544 133.32 230 133.56C230.468 133.8 230.972 133.92 231.512 133.92ZM241.625 126.036C242.657 126.036 243.485 126.342 244.109 126.954C244.733 127.566 245.045 128.448 245.045 129.6V135H243.749V133.866C243.425 134.298 243.011 134.628 242.507 134.856C242.003 135.084 241.433 135.198 240.797 135.198C239.897 135.198 239.159 134.976 238.583 134.532C238.019 134.088 237.737 133.488 237.737 132.732C237.737 131.988 238.025 131.394 238.601 130.95C239.177 130.506 239.939 130.284 240.887 130.284H243.659V129.528C243.659 128.808 243.467 128.262 243.083 127.89C242.711 127.506 242.195 127.314 241.535 127.314C241.007 127.314 240.539 127.434 240.131 127.674C239.723 127.902 239.339 128.25 238.979 128.718L238.061 127.962C238.457 127.314 238.967 126.834 239.591 126.522C240.215 126.198 240.893 126.036 241.625 126.036ZM240.977 134.046C241.457 134.046 241.901 133.944 242.309 133.74C242.717 133.524 243.041 133.23 243.281 132.858C243.533 132.486 243.659 132.078 243.659 131.634V131.418H241.049C240.437 131.418 239.969 131.526 239.645 131.742C239.321 131.946 239.159 132.252 239.159 132.66C239.159 133.104 239.333 133.446 239.681 133.686C240.029 133.926 240.461 134.046 240.977 134.046ZM247.985 126.036H248.489L252.647 130.968L256.787 126.036H257.273V135H255.887V129.078L252.899 132.642H252.359L249.371 129.078V135H247.985V126.036ZM63.7887 151.234L59.4687 161.224C59.1327 161.992 58.7187 162.55 58.2267 162.898C57.7467 163.258 57.1707 163.438 56.4987 163.438C56.0547 163.438 55.6047 163.378 55.1487 163.258V162.088C55.6047 162.148 55.9587 162.178 56.2107 162.178C56.6667 162.178 57.0507 162.076 57.3627 161.872C57.6867 161.668 57.9627 161.302 58.1907 160.774L58.6587 159.73L55.0227 151.234H56.5167L59.4147 158.218L62.3127 151.234H63.7887ZM73.1525 158.776V162.538H71.7665V160H64.8725V162.538H63.4865V158.776H64.4765C64.8845 158.356 65.1725 157.738 65.3405 156.922C65.5085 156.094 65.6045 155.02 65.6285 153.7L65.6825 151.234H71.7305V158.776H73.1525ZM66.9425 153.718C66.9185 154.942 66.8165 155.992 66.6365 156.868C66.4565 157.732 66.2225 158.368 65.9345 158.776H70.3445V152.476H66.9965L66.9425 153.718ZM78.4827 151.036C79.5147 151.036 80.3427 151.342 80.9667 151.954C81.5907 152.566 81.9027 153.448 81.9027 154.6V160H80.6067V158.866C80.2827 159.298 79.8687 159.628 79.3647 159.856C78.8607 160.084 78.2907 160.198 77.6547 160.198C76.7547 160.198 76.0167 159.976 75.4407 159.532C74.8767 159.088 74.5947 158.488 74.5947 157.732C74.5947 156.988 74.8827 156.394 75.4587 155.95C76.0347 155.506 76.7967 155.284 77.7447 155.284H80.5167V154.528C80.5167 153.808 80.3247 153.262 79.9407 152.89C79.5687 152.506 79.0527 152.314 78.3927 152.314C77.8647 152.314 77.3967 152.434 76.9887 152.674C76.5807 152.902 76.1967 153.25 75.8367 153.718L74.9187 152.962C75.3147 152.314 75.8247 151.834 76.4487 151.522C77.0727 151.198 77.7507 151.036 78.4827 151.036ZM77.8347 159.046C78.3147 159.046 78.7587 158.944 79.1667 158.74C79.5747 158.524 79.8987 158.23 80.1387 157.858C80.3907 157.486 80.5167 157.078 80.5167 156.634V156.418H77.9067C77.2947 156.418 76.8267 156.526 76.5027 156.742C76.1787 156.946 76.0167 157.252 76.0167 157.66C76.0167 158.104 76.1907 158.446 76.5387 158.686C76.8867 158.926 77.3187 159.046 77.8347 159.046ZM92.5825 156.04H85.6525C85.7365 156.904 86.0785 157.6 86.6785 158.128C87.2785 158.656 88.0105 158.92 88.8745 158.92C89.8705 158.92 90.7645 158.524 91.5565 157.732L92.3665 158.668C91.9105 159.148 91.3825 159.526 90.7825 159.802C90.1945 160.066 89.5525 160.198 88.8565 160.198C87.9925 160.198 87.2065 160 86.4985 159.604C85.7905 159.196 85.2325 158.644 84.8245 157.948C84.4165 157.252 84.2125 156.478 84.2125 155.626C84.2125 154.786 84.4105 154.018 84.8065 153.322C85.2025 152.614 85.7425 152.056 86.4265 151.648C87.1105 151.24 87.8665 151.036 88.6945 151.036C89.4385 151.036 90.1165 151.204 90.7285 151.54C91.3405 151.876 91.8205 152.344 92.1685 152.944C92.5165 153.544 92.6905 154.228 92.6905 154.996C92.6905 155.332 92.6545 155.68 92.5825 156.04ZM88.6585 152.296C87.9265 152.296 87.2905 152.53 86.7505 152.998C86.2105 153.454 85.8625 154.06 85.7065 154.816H91.2685C91.2565 154.036 90.9985 153.424 90.4945 152.98C90.0025 152.524 89.3905 152.296 88.6585 152.296ZM86.7325 148.84C86.4805 148.84 86.2525 148.744 86.0485 148.552C85.8445 148.36 85.7425 148.138 85.7425 147.886C85.7425 147.622 85.8445 147.394 86.0485 147.202C86.2525 147.01 86.4805 146.914 86.7325 146.914C87.0085 146.914 87.2425 147.01 87.4345 147.202C87.6385 147.394 87.7405 147.622 87.7405 147.886C87.7405 148.15 87.6385 148.378 87.4345 148.57C87.2425 148.75 87.0085 148.84 86.7325 148.84ZM90.5665 148.84C90.3025 148.84 90.0685 148.744 89.8645 148.552C89.6605 148.36 89.5585 148.138 89.5585 147.886C89.5585 147.622 89.6605 147.394 89.8645 147.202C90.0685 147.01 90.3025 146.914 90.5665 146.914C90.8425 146.914 91.0765 147.01 91.2685 147.202C91.4605 147.394 91.5565 147.622 91.5565 147.886C91.5565 148.15 91.4605 148.378 91.2685 148.57C91.0765 148.75 90.8425 148.84 90.5665 148.84ZM96.7671 152.476H93.8151V151.234H101.087V152.476H98.1351V160H96.7671V152.476ZM106.943 160.198C106.103 160.198 105.329 159.994 104.621 159.586C103.925 159.178 103.373 158.626 102.965 157.93C102.557 157.222 102.353 156.448 102.353 155.608C102.353 154.768 102.557 154 102.965 153.304C103.373 152.608 103.925 152.056 104.621 151.648C105.329 151.24 106.103 151.036 106.943 151.036C107.711 151.036 108.407 151.21 109.031 151.558C109.655 151.894 110.165 152.356 110.561 152.944L109.571 153.736C108.863 152.788 107.993 152.314 106.961 152.314C106.361 152.314 105.815 152.464 105.323 152.764C104.843 153.052 104.465 153.448 104.189 153.952C103.913 154.456 103.775 155.008 103.775 155.608C103.775 156.22 103.913 156.778 104.189 157.282C104.465 157.786 104.843 158.188 105.323 158.488C105.815 158.776 106.361 158.92 106.961 158.92C107.993 158.92 108.857 158.452 109.553 157.516L110.543 158.29C110.147 158.878 109.637 159.346 109.013 159.694C108.401 160.03 107.711 160.198 106.943 160.198ZM119.111 151.234V160H117.725V156.796H116.069L113.657 160H112.037L114.593 156.616C113.945 156.424 113.435 156.106 113.063 155.662C112.703 155.206 112.523 154.666 112.523 154.042C112.523 153.19 112.805 152.512 113.369 152.008C113.933 151.492 114.683 151.234 115.619 151.234H119.111ZM117.725 152.476H115.709C115.157 152.476 114.725 152.614 114.413 152.89C114.101 153.166 113.945 153.544 113.945 154.024C113.945 154.492 114.101 154.87 114.413 155.158C114.737 155.434 115.175 155.572 115.727 155.572H117.725V152.476ZM132.749 155.248C133.265 155.428 133.667 155.698 133.955 156.058C134.255 156.418 134.405 156.85 134.405 157.354C134.405 158.134 134.123 158.77 133.559 159.262C132.995 159.754 132.239 160 131.291 160H127.223V151.234H130.841C131.705 151.234 132.389 151.444 132.893 151.864C133.409 152.284 133.667 152.848 133.667 153.556C133.667 153.904 133.583 154.228 133.415 154.528C133.259 154.816 133.037 155.056 132.749 155.248ZM128.609 154.816H130.859C131.339 154.816 131.699 154.714 131.939 154.51C132.179 154.294 132.299 154 132.299 153.628C132.299 152.86 131.819 152.476 130.859 152.476H128.609V154.816ZM131.201 158.776C131.777 158.776 132.221 158.644 132.533 158.38C132.857 158.116 133.019 157.774 133.019 157.354C133.019 156.946 132.857 156.628 132.533 156.4C132.221 156.16 131.777 156.04 131.201 156.04H128.609V158.776H131.201ZM142.059 151.234H143.445V160H142.059V151.234ZM149.439 160H147.693L143.625 155.248L147.315 151.234H149.043L145.317 155.212L149.439 160ZM155.001 160.18C154.161 160.18 153.393 159.976 152.697 159.568C152.001 159.16 151.449 158.608 151.041 157.912C150.633 157.204 150.429 156.436 150.429 155.608C150.429 154.768 150.633 154 151.041 153.304C151.449 152.596 152.001 152.044 152.697 151.648C153.405 151.24 154.179 151.036 155.019 151.036C155.859 151.036 156.627 151.24 157.323 151.648C158.031 152.056 158.589 152.608 158.997 153.304C159.405 154 159.609 154.768 159.609 155.608C159.609 156.436 159.405 157.204 158.997 157.912C158.589 158.608 158.031 159.16 157.323 159.568C156.615 159.976 155.841 160.18 155.001 160.18ZM155.001 158.902C155.589 158.902 156.123 158.758 156.603 158.47C157.095 158.182 157.479 157.792 157.755 157.3C158.043 156.796 158.187 156.238 158.187 155.626C158.187 155.002 158.049 154.438 157.773 153.934C157.497 153.43 157.113 153.034 156.621 152.746C156.141 152.458 155.607 152.314 155.019 152.314C154.419 152.314 153.879 152.458 153.399 152.746C152.919 153.034 152.541 153.43 152.265 153.934C151.989 154.438 151.851 155.002 151.851 155.626C151.851 156.238 151.989 156.796 152.265 157.3C152.541 157.792 152.919 158.182 153.399 158.47C153.879 158.758 154.413 158.902 155.001 158.902ZM166.654 151.036C167.482 151.036 168.226 151.24 168.886 151.648C169.546 152.044 170.062 152.59 170.434 153.286C170.806 153.982 170.992 154.756 170.992 155.608C170.992 156.46 170.8 157.24 170.416 157.948C170.044 158.644 169.528 159.196 168.868 159.604C168.208 160 167.47 160.198 166.654 160.198C166.006 160.198 165.394 160.072 164.818 159.82C164.254 159.556 163.792 159.196 163.432 158.74V163.24H162.046V151.234H163.342V152.638C163.678 152.134 164.14 151.744 164.728 151.468C165.328 151.18 165.97 151.036 166.654 151.036ZM166.456 158.92C167.044 158.92 167.572 158.782 168.04 158.506C168.52 158.218 168.892 157.822 169.156 157.318C169.432 156.814 169.57 156.25 169.57 155.626C169.57 155.002 169.432 154.438 169.156 153.934C168.892 153.43 168.52 153.034 168.04 152.746C167.572 152.458 167.044 152.314 166.456 152.314C165.928 152.314 165.43 152.434 164.962 152.674C164.506 152.914 164.134 153.28 163.846 153.772C163.558 154.264 163.414 154.876 163.414 155.608C163.414 156.34 163.552 156.958 163.828 157.462C164.116 157.954 164.488 158.32 164.944 158.56C165.412 158.8 165.916 158.92 166.456 158.92ZM177.361 160.18C176.521 160.18 175.753 159.976 175.057 159.568C174.361 159.16 173.809 158.608 173.401 157.912C172.993 157.204 172.789 156.436 172.789 155.608C172.789 154.768 172.993 154 173.401 153.304C173.809 152.596 174.361 152.044 175.057 151.648C175.765 151.24 176.539 151.036 177.379 151.036C178.219 151.036 178.987 151.24 179.683 151.648C180.391 152.056 180.949 152.608 181.357 153.304C181.765 154 181.969 154.768 181.969 155.608C181.969 156.436 181.765 157.204 181.357 157.912C180.949 158.608 180.391 159.16 179.683 159.568C178.975 159.976 178.201 160.18 177.361 160.18ZM177.361 158.902C177.949 158.902 178.483 158.758 178.963 158.47C179.455 158.182 179.839 157.792 180.115 157.3C180.403 156.796 180.547 156.238 180.547 155.626C180.547 155.002 180.409 154.438 180.133 153.934C179.857 153.43 179.473 153.034 178.981 152.746C178.501 152.458 177.967 152.314 177.379 152.314C176.779 152.314 176.239 152.458 175.759 152.746C175.279 153.034 174.901 153.43 174.625 153.934C174.349 154.438 174.211 155.002 174.211 155.626C174.211 156.238 174.349 156.796 174.625 157.3C174.901 157.792 175.279 158.182 175.759 158.47C176.239 158.758 176.773 158.902 177.361 158.902ZM186.046 152.476H183.094V151.234H190.366V152.476H187.414V160H186.046V152.476ZM192.28 151.234H193.666V160H192.28V151.234ZM199.66 160H197.914L193.846 155.248L197.536 151.234H199.264L195.538 155.212L199.66 160ZM208.78 151.036V160H207.394V153.808L202.048 160.198H201.544V151.234H202.93V157.444L208.276 151.036H208.78ZM219.567 156.04H212.637C212.721 156.904 213.063 157.6 213.663 158.128C214.263 158.656 214.995 158.92 215.859 158.92C216.855 158.92 217.749 158.524 218.541 157.732L219.351 158.668C218.895 159.148 218.367 159.526 217.767 159.802C217.179 160.066 216.537 160.198 215.841 160.198C214.977 160.198 214.191 160 213.483 159.604C212.775 159.196 212.217 158.644 211.809 157.948C211.401 157.252 211.197 156.478 211.197 155.626C211.197 154.786 211.395 154.018 211.791 153.322C212.187 152.614 212.727 152.056 213.411 151.648C214.095 151.24 214.851 151.036 215.679 151.036C216.423 151.036 217.101 151.204 217.713 151.54C218.325 151.876 218.805 152.344 219.153 152.944C219.501 153.544 219.675 154.228 219.675 154.996C219.675 155.332 219.639 155.68 219.567 156.04ZM215.643 152.296C214.911 152.296 214.275 152.53 213.735 152.998C213.195 153.454 212.847 154.06 212.691 154.816H218.253C218.241 154.036 217.983 153.424 217.479 152.98C216.987 152.524 216.375 152.296 215.643 152.296ZM231.115 160.198C230.275 160.198 229.501 159.994 228.793 159.586C228.097 159.178 227.545 158.626 227.137 157.93C226.729 157.222 226.525 156.448 226.525 155.608C226.525 154.768 226.729 154 227.137 153.304C227.545 152.608 228.097 152.056 228.793 151.648C229.501 151.24 230.275 151.036 231.115 151.036C231.883 151.036 232.579 151.21 233.203 151.558C233.827 151.894 234.337 152.356 234.733 152.944L233.743 153.736C233.035 152.788 232.165 152.314 231.133 152.314C230.533 152.314 229.987 152.464 229.495 152.764C229.015 153.052 228.637 153.448 228.361 153.952C228.085 154.456 227.947 155.008 227.947 155.608C227.947 156.22 228.085 156.778 228.361 157.282C228.637 157.786 229.015 158.188 229.495 158.488C229.987 158.776 230.533 158.92 231.133 158.92C232.165 158.92 233.029 158.452 233.725 157.516L234.715 158.29C234.319 158.878 233.809 159.346 233.185 159.694C232.573 160.03 231.883 160.198 231.115 160.198ZM241.677 151.036C242.505 151.036 243.249 151.24 243.909 151.648C244.569 152.044 245.085 152.59 245.457 153.286C245.829 153.982 246.015 154.756 246.015 155.608C246.015 156.46 245.823 157.24 245.439 157.948C245.067 158.644 244.551 159.196 243.891 159.604C243.231 160 242.493 160.198 241.677 160.198C241.029 160.198 240.417 160.072 239.841 159.82C239.277 159.556 238.815 159.196 238.455 158.74V163.24H237.069V151.234H238.365V152.638C238.701 152.134 239.163 151.744 239.751 151.468C240.351 151.18 240.993 151.036 241.677 151.036ZM241.479 158.92C242.067 158.92 242.595 158.782 243.063 158.506C243.543 158.218 243.915 157.822 244.179 157.318C244.455 156.814 244.593 156.25 244.593 155.626C244.593 155.002 244.455 154.438 244.179 153.934C243.915 153.43 243.543 153.034 243.063 152.746C242.595 152.458 242.067 152.314 241.479 152.314C240.951 152.314 240.453 152.434 239.985 152.674C239.529 152.914 239.157 153.28 238.869 153.772C238.581 154.264 238.437 154.876 238.437 155.608C238.437 156.34 238.575 156.958 238.851 157.462C239.139 157.954 239.511 158.32 239.967 158.56C240.435 158.8 240.939 158.92 241.479 158.92ZM252.384 160.18C251.544 160.18 250.776 159.976 250.08 159.568C249.384 159.16 248.832 158.608 248.424 157.912C248.016 157.204 247.812 156.436 247.812 155.608C247.812 154.768 248.016 154 248.424 153.304C248.832 152.596 249.384 152.044 250.08 151.648C250.788 151.24 251.562 151.036 252.402 151.036C253.242 151.036 254.01 151.24 254.706 151.648C255.414 152.056 255.972 152.608 256.38 153.304C256.788 154 256.992 154.768 256.992 155.608C256.992 156.436 256.788 157.204 256.38 157.912C255.972 158.608 255.414 159.16 254.706 159.568C253.998 159.976 253.224 160.18 252.384 160.18ZM252.384 158.902C252.972 158.902 253.506 158.758 253.986 158.47C254.478 158.182 254.862 157.792 255.138 157.3C255.426 156.796 255.57 156.238 255.57 155.626C255.57 155.002 255.432 154.438 255.156 153.934C254.88 153.43 254.496 153.034 254.004 152.746C253.524 152.458 252.99 152.314 252.402 152.314C251.802 152.314 251.262 152.458 250.782 152.746C250.302 153.034 249.924 153.43 249.648 153.934C249.372 154.438 249.234 155.002 249.234 155.626C249.234 156.238 249.372 156.796 249.648 157.3C249.924 157.792 250.302 158.182 250.782 158.47C251.262 158.758 251.796 158.902 252.384 158.902ZM259.428 151.234H260.814V160H259.428V151.234ZM266.808 160H265.062L260.994 155.248L264.684 151.234H266.412L262.686 155.212L266.808 160ZM275.928 151.036V160H274.542V153.808L269.196 160.198H268.692V151.234H270.078V157.444L275.424 151.036H275.928ZM80.2503 185.18C79.4103 185.18 78.6423 184.976 77.9463 184.568C77.2503 184.16 76.6983 183.608 76.2903 182.912C75.8823 182.204 75.6783 181.436 75.6783 180.608C75.6783 179.768 75.8823 179 76.2903 178.304C76.6983 177.596 77.2503 177.044 77.9463 176.648C78.6543 176.24 79.4283 176.036 80.2683 176.036C81.1083 176.036 81.8763 176.24 82.5723 176.648C83.2803 177.056 83.8383 177.608 84.2463 178.304C84.6543 179 84.8583 179.768 84.8583 180.608C84.8583 181.436 84.6543 182.204 84.2463 182.912C83.8383 183.608 83.2803 184.16 82.5723 184.568C81.8643 184.976 81.0903 185.18 80.2503 185.18ZM80.2503 183.902C80.8383 183.902 81.3723 183.758 81.8523 183.47C82.3443 183.182 82.7283 182.792 83.0043 182.3C83.2923 181.796 83.4363 181.238 83.4363 180.626C83.4363 180.002 83.2983 179.438 83.0223 178.934C82.7463 178.43 82.3623 178.034 81.8703 177.746C81.3903 177.458 80.8563 177.314 80.2683 177.314C79.6683 177.314 79.1283 177.458 78.6483 177.746C78.1683 178.034 77.7903 178.43 77.5143 178.934C77.2383 179.438 77.1003 180.002 77.1003 180.626C77.1003 181.238 77.2383 181.796 77.5143 182.3C77.7903 182.792 78.1683 183.182 78.6483 183.47C79.1283 183.758 79.6623 183.902 80.2503 183.902ZM88.936 177.476H85.984V176.234H93.256V177.476H90.304V185H88.936V177.476ZM95.1696 176.234H96.5556V185H95.1696V176.234ZM102.55 185H100.804L96.7356 180.248L100.426 176.234H102.154L98.4276 180.212L102.55 185ZM109.041 176.036C109.869 176.036 110.613 176.24 111.273 176.648C111.933 177.044 112.449 177.59 112.821 178.286C113.193 178.982 113.379 179.756 113.379 180.608C113.379 181.46 113.187 182.24 112.803 182.948C112.431 183.644 111.915 184.196 111.255 184.604C110.595 185 109.857 185.198 109.041 185.198C108.393 185.198 107.781 185.072 107.205 184.82C106.641 184.556 106.179 184.196 105.819 183.74V188.24H104.433V176.234H105.729V177.638C106.065 177.134 106.527 176.744 107.115 176.468C107.715 176.18 108.357 176.036 109.041 176.036ZM108.843 183.92C109.431 183.92 109.959 183.782 110.427 183.506C110.907 183.218 111.279 182.822 111.543 182.318C111.819 181.814 111.957 181.25 111.957 180.626C111.957 180.002 111.819 179.438 111.543 178.934C111.279 178.43 110.907 178.034 110.427 177.746C109.959 177.458 109.431 177.314 108.843 177.314C108.315 177.314 107.817 177.434 107.349 177.674C106.893 177.914 106.521 178.28 106.233 178.772C105.945 179.264 105.801 179.876 105.801 180.608C105.801 181.34 105.939 181.958 106.215 182.462C106.503 182.954 106.875 183.32 107.331 183.56C107.799 183.8 108.303 183.92 108.843 183.92ZM115.806 176.234H117.192V179.258H119.28C120.264 179.258 121.056 179.522 121.656 180.05C122.256 180.566 122.556 181.256 122.556 182.12C122.556 182.996 122.256 183.698 121.656 184.226C121.068 184.742 120.276 185 119.28 185H115.806V176.234ZM123.834 176.234H125.22V185H123.834V176.234ZM119.208 183.776C119.832 183.776 120.306 183.638 120.63 183.362C120.966 183.074 121.134 182.666 121.134 182.138C121.134 181.61 120.966 181.202 120.63 180.914C120.294 180.626 119.814 180.482 119.19 180.482H117.192V183.776H119.208ZM133.795 180.248C134.311 180.428 134.713 180.698 135.001 181.058C135.301 181.418 135.451 181.85 135.451 182.354C135.451 183.134 135.169 183.77 134.605 184.262C134.041 184.754 133.285 185 132.337 185H128.269V176.234H131.887C132.751 176.234 133.435 176.444 133.939 176.864C134.455 177.284 134.713 177.848 134.713 178.556C134.713 178.904 134.629 179.228 134.461 179.528C134.305 179.816 134.083 180.056 133.795 180.248ZM129.655 179.816H131.905C132.385 179.816 132.745 179.714 132.985 179.51C133.225 179.294 133.345 179 133.345 178.628C133.345 177.86 132.865 177.476 131.905 177.476H129.655V179.816ZM132.247 183.776C132.823 183.776 133.267 183.644 133.579 183.38C133.903 183.116 134.065 182.774 134.065 182.354C134.065 181.946 133.903 181.628 133.579 181.4C133.267 181.16 132.823 181.04 132.247 181.04H129.655V183.776H132.247ZM141.21 176.036C142.242 176.036 143.07 176.342 143.694 176.954C144.318 177.566 144.63 178.448 144.63 179.6V185H143.334V183.866C143.01 184.298 142.596 184.628 142.092 184.856C141.588 185.084 141.018 185.198 140.382 185.198C139.482 185.198 138.744 184.976 138.168 184.532C137.604 184.088 137.322 183.488 137.322 182.732C137.322 181.988 137.61 181.394 138.186 180.95C138.762 180.506 139.524 180.284 140.472 180.284H143.244V179.528C143.244 178.808 143.052 178.262 142.668 177.89C142.296 177.506 141.78 177.314 141.12 177.314C140.592 177.314 140.124 177.434 139.716 177.674C139.308 177.902 138.924 178.25 138.564 178.718L137.646 177.962C138.042 177.314 138.552 176.834 139.176 176.522C139.8 176.198 140.478 176.036 141.21 176.036ZM140.562 184.046C141.042 184.046 141.486 183.944 141.894 183.74C142.302 183.524 142.626 183.23 142.866 182.858C143.118 182.486 143.244 182.078 143.244 181.634V181.418H140.634C140.022 181.418 139.554 181.526 139.23 181.742C138.906 181.946 138.744 182.252 138.744 182.66C138.744 183.104 138.918 183.446 139.266 183.686C139.614 183.926 140.046 184.046 140.562 184.046ZM149.159 177.476H146.207V176.234H153.479V177.476H150.527V185H149.159V177.476ZM155.392 176.234H156.778V179.258H158.866C159.862 179.258 160.654 179.522 161.242 180.05C161.842 180.566 162.142 181.256 162.142 182.12C162.142 182.984 161.842 183.68 161.242 184.208C160.654 184.736 159.862 185 158.866 185H155.392V176.234ZM158.794 183.776C159.406 183.776 159.88 183.626 160.216 183.326C160.552 183.026 160.72 182.63 160.72 182.138C160.72 181.646 160.546 181.25 160.198 180.95C159.862 180.638 159.388 180.482 158.776 180.482H156.778V183.776H158.794ZM169.613 176.234H170.999V179.726H175.301V176.234H176.687V185H175.301V180.95H170.999V185H169.613V176.234ZM187.46 181.04H180.53C180.614 181.904 180.956 182.6 181.556 183.128C182.156 183.656 182.888 183.92 183.752 183.92C184.748 183.92 185.642 183.524 186.434 182.732L187.244 183.668C186.788 184.148 186.26 184.526 185.66 184.802C185.072 185.066 184.43 185.198 183.734 185.198C182.87 185.198 182.084 185 181.376 184.604C180.668 184.196 180.11 183.644 179.702 182.948C179.294 182.252 179.09 181.478 179.09 180.626C179.09 179.786 179.288 179.018 179.684 178.322C180.08 177.614 180.62 177.056 181.304 176.648C181.988 176.24 182.744 176.036 183.572 176.036C184.316 176.036 184.994 176.204 185.606 176.54C186.218 176.876 186.698 177.344 187.046 177.944C187.394 178.544 187.568 179.228 187.568 179.996C187.568 180.332 187.532 180.68 187.46 181.04ZM183.536 177.296C182.804 177.296 182.168 177.53 181.628 177.998C181.088 178.454 180.74 179.06 180.584 179.816H186.146C186.134 179.036 185.876 178.424 185.372 177.98C184.88 177.524 184.268 177.296 183.536 177.296ZM193.964 185.198C193.124 185.198 192.35 184.994 191.642 184.586C190.946 184.178 190.394 183.626 189.986 182.93C189.578 182.222 189.374 181.448 189.374 180.608C189.374 179.768 189.578 179 189.986 178.304C190.394 177.608 190.946 177.056 191.642 176.648C192.35 176.24 193.124 176.036 193.964 176.036C194.732 176.036 195.428 176.21 196.052 176.558C196.676 176.894 197.186 177.356 197.582 177.944L196.592 178.736C195.884 177.788 195.014 177.314 193.982 177.314C193.382 177.314 192.836 177.464 192.344 177.764C191.864 178.052 191.486 178.448 191.21 178.952C190.934 179.456 190.796 180.008 190.796 180.608C190.796 181.22 190.934 181.778 191.21 182.282C191.486 182.786 191.864 183.188 192.344 183.488C192.836 183.776 193.382 183.92 193.982 183.92C195.014 183.92 195.878 183.452 196.574 182.516L197.564 183.29C197.168 183.878 196.658 184.346 196.034 184.694C195.422 185.03 194.732 185.198 193.964 185.198ZM199.918 176.234H201.304V185H199.918V176.234ZM207.298 185H205.552L201.484 180.248L205.174 176.234H206.902L203.176 180.212L207.298 185ZM212.86 185.18C212.02 185.18 211.252 184.976 210.556 184.568C209.86 184.16 209.308 183.608 208.9 182.912C208.492 182.204 208.288 181.436 208.288 180.608C208.288 179.768 208.492 179 208.9 178.304C209.308 177.596 209.86 177.044 210.556 176.648C211.264 176.24 212.038 176.036 212.878 176.036C213.718 176.036 214.486 176.24 215.182 176.648C215.89 177.056 216.448 177.608 216.856 178.304C217.264 179 217.468 179.768 217.468 180.608C217.468 181.436 217.264 182.204 216.856 182.912C216.448 183.608 215.89 184.16 215.182 184.568C214.474 184.976 213.7 185.18 212.86 185.18ZM212.86 183.902C213.448 183.902 213.982 183.758 214.462 183.47C214.954 183.182 215.338 182.792 215.614 182.3C215.902 181.796 216.046 181.238 216.046 180.626C216.046 180.002 215.908 179.438 215.632 178.934C215.356 178.43 214.972 178.034 214.48 177.746C214 177.458 213.466 177.314 212.878 177.314C212.278 177.314 211.738 177.458 211.258 177.746C210.778 178.034 210.4 178.43 210.124 178.934C209.848 179.438 209.71 180.002 209.71 180.626C209.71 181.238 209.848 181.796 210.124 182.3C210.4 182.792 210.778 183.182 211.258 183.47C211.738 183.758 212.272 183.902 212.86 183.902ZM226.528 176.234V185H225.142V177.476H221.884L221.848 178.556C221.8 180.092 221.686 181.328 221.506 182.264C221.326 183.2 221.038 183.902 220.642 184.37C220.246 184.838 219.706 185.072 219.022 185.072C218.854 185.072 218.698 185.048 218.554 185V183.83C218.698 183.854 218.818 183.866 218.914 183.866C219.478 183.866 219.88 183.428 220.12 182.552C220.36 181.664 220.498 180.32 220.534 178.52L220.588 176.234H226.528ZM229.59 176.234H230.976V179.258H233.064C234.06 179.258 234.852 179.522 235.44 180.05C236.04 180.566 236.34 181.256 236.34 182.12C236.34 182.984 236.04 183.68 235.44 184.208C234.852 184.736 234.06 185 233.064 185H229.59V176.234ZM232.992 183.776C233.604 183.776 234.078 183.626 234.414 183.326C234.75 183.026 234.918 182.63 234.918 182.138C234.918 181.646 234.744 181.25 234.396 180.95C234.06 180.638 233.586 180.482 232.974 180.482H230.976V183.776H232.992ZM238.765 176.234H240.151V185H238.765V176.234ZM246.145 185H244.399L240.331 180.248L244.021 176.234H245.749L242.023 180.212L246.145 185ZM251.707 185.18C250.867 185.18 250.099 184.976 249.403 184.568C248.707 184.16 248.155 183.608 247.747 182.912C247.339 182.204 247.135 181.436 247.135 180.608C247.135 179.768 247.339 179 247.747 178.304C248.155 177.596 248.707 177.044 249.403 176.648C250.111 176.24 250.885 176.036 251.725 176.036C252.565 176.036 253.333 176.24 254.029 176.648C254.737 177.056 255.295 177.608 255.703 178.304C256.111 179 256.315 179.768 256.315 180.608C256.315 181.436 256.111 182.204 255.703 182.912C255.295 183.608 254.737 184.16 254.029 184.568C253.321 184.976 252.547 185.18 251.707 185.18ZM251.707 183.902C252.295 183.902 252.829 183.758 253.309 183.47C253.801 183.182 254.185 182.792 254.461 182.3C254.749 181.796 254.893 181.238 254.893 180.626C254.893 180.002 254.755 179.438 254.479 178.934C254.203 178.43 253.819 178.034 253.327 177.746C252.847 177.458 252.313 177.314 251.725 177.314C251.125 177.314 250.585 177.458 250.105 177.746C249.625 178.034 249.247 178.43 248.971 178.934C248.695 179.438 248.557 180.002 248.557 180.626C248.557 181.238 248.695 181.796 248.971 182.3C249.247 182.792 249.625 183.182 250.105 183.47C250.585 183.758 251.119 183.902 251.707 183.902ZM66.2155 201.234V210H64.8295V202.476H61.5715L61.5355 203.556C61.4875 205.092 61.3735 206.328 61.1935 207.264C61.0135 208.2 60.7255 208.902 60.3295 209.37C59.9335 209.838 59.3935 210.072 58.7095 210.072C58.5415 210.072 58.3855 210.048 58.2415 210V208.83C58.3855 208.854 58.5055 208.866 58.6015 208.866C59.1655 208.866 59.5675 208.428 59.8075 207.552C60.0475 206.664 60.1855 205.32 60.2215 203.52L60.2755 201.234H66.2155ZM73.2191 210.18C72.3791 210.18 71.6111 209.976 70.9151 209.568C70.2191 209.16 69.6671 208.608 69.2591 207.912C68.8511 207.204 68.6471 206.436 68.6471 205.608C68.6471 204.768 68.8511 204 69.2591 203.304C69.6671 202.596 70.2191 202.044 70.9151 201.648C71.6231 201.24 72.3971 201.036 73.2371 201.036C74.0771 201.036 74.8451 201.24 75.5411 201.648C76.2491 202.056 76.8071 202.608 77.2151 203.304C77.6231 204 77.8271 204.768 77.8271 205.608C77.8271 206.436 77.6231 207.204 77.2151 207.912C76.8071 208.608 76.2491 209.16 75.5411 209.568C74.8331 209.976 74.0591 210.18 73.2191 210.18ZM73.2191 208.902C73.8071 208.902 74.3411 208.758 74.8211 208.47C75.3131 208.182 75.6971 207.792 75.9731 207.3C76.2611 206.796 76.4051 206.238 76.4051 205.626C76.4051 205.002 76.2671 204.438 75.9911 203.934C75.7151 203.43 75.3311 203.034 74.8391 202.746C74.3591 202.458 73.8251 202.314 73.2371 202.314C72.6371 202.314 72.0971 202.458 71.6171 202.746C71.1371 203.034 70.7591 203.43 70.4831 203.934C70.2071 204.438 70.0691 205.002 70.0691 205.626C70.0691 206.238 70.2071 206.796 70.4831 207.3C70.7591 207.792 71.1371 208.182 71.6171 208.47C72.0971 208.758 72.6311 208.902 73.2191 208.902ZM80.2634 201.234H81.6494V210H80.2634V201.234ZM87.6434 210H85.8974L81.8294 205.248L85.5194 201.234H87.2474L83.5214 205.212L87.6434 210ZM92.5892 201.036C93.6212 201.036 94.4492 201.342 95.0732 201.954C95.6972 202.566 96.0092 203.448 96.0092 204.6V210H94.7132V208.866C94.3892 209.298 93.9752 209.628 93.4712 209.856C92.9672 210.084 92.3972 210.198 91.7612 210.198C90.8612 210.198 90.1232 209.976 89.5472 209.532C88.9832 209.088 88.7012 208.488 88.7012 207.732C88.7012 206.988 88.9892 206.394 89.5652 205.95C90.1412 205.506 90.9032 205.284 91.8512 205.284H94.6232V204.528C94.6232 203.808 94.4312 203.262 94.0472 202.89C93.6752 202.506 93.1592 202.314 92.4992 202.314C91.9712 202.314 91.5032 202.434 91.0952 202.674C90.6872 202.902 90.3032 203.25 89.9432 203.718L89.0252 202.962C89.4212 202.314 89.9312 201.834 90.5552 201.522C91.1792 201.198 91.8572 201.036 92.5892 201.036ZM91.9412 209.046C92.4212 209.046 92.8652 208.944 93.2732 208.74C93.6812 208.524 94.0052 208.23 94.2452 207.858C94.4972 207.486 94.6232 207.078 94.6232 206.634V206.418H92.0132C91.4012 206.418 90.9332 206.526 90.6092 206.742C90.2852 206.946 90.1232 207.252 90.1232 207.66C90.1232 208.104 90.2972 208.446 90.6452 208.686C90.9932 208.926 91.4252 209.046 91.9412 209.046ZM105.969 210H98.9489V201.234H100.335V208.776H104.547V201.234H105.933V208.776H107.355V212.538H105.969V210ZM116.767 201.036V210H115.381V203.808L110.035 210.198H109.531V201.234H110.917V207.444L116.263 201.036H116.767ZM127.05 201.036V210H125.664V203.808L120.318 210.198H119.814V201.234H121.2V207.444L126.546 201.036H127.05ZM123.63 199.686C122.814 199.686 122.154 199.428 121.65 198.912C121.158 198.384 120.912 197.694 120.912 196.842V196.284H122.082V196.806C122.082 197.394 122.214 197.85 122.478 198.174C122.754 198.486 123.138 198.642 123.63 198.642C124.134 198.642 124.518 198.486 124.782 198.174C125.058 197.85 125.196 197.394 125.196 196.806V196.284H126.366V196.842C126.366 197.694 126.114 198.384 125.61 198.912C125.118 199.428 124.458 199.686 123.63 199.686ZM140.668 205.248C141.184 205.428 141.586 205.698 141.874 206.058C142.174 206.418 142.324 206.85 142.324 207.354C142.324 208.134 142.042 208.77 141.478 209.262C140.914 209.754 140.158 210 139.21 210H135.142V201.234H138.76C139.624 201.234 140.308 201.444 140.812 201.864C141.328 202.284 141.586 202.848 141.586 203.556C141.586 203.904 141.502 204.228 141.334 204.528C141.178 204.816 140.956 205.056 140.668 205.248ZM136.528 204.816H138.778C139.258 204.816 139.618 204.714 139.858 204.51C140.098 204.294 140.218 204 140.218 203.628C140.218 202.86 139.738 202.476 138.778 202.476H136.528V204.816ZM139.12 208.776C139.696 208.776 140.14 208.644 140.452 208.38C140.776 208.116 140.938 207.774 140.938 207.354C140.938 206.946 140.776 206.628 140.452 206.4C140.14 206.16 139.696 206.04 139.12 206.04H136.528V208.776H139.12ZM153.92 210.18C153.08 210.18 152.312 209.976 151.616 209.568C150.92 209.16 150.368 208.608 149.96 207.912C149.552 207.204 149.348 206.436 149.348 205.608C149.348 204.768 149.552 204 149.96 203.304C150.368 202.596 150.92 202.044 151.616 201.648C152.324 201.24 153.098 201.036 153.938 201.036C154.778 201.036 155.546 201.24 156.242 201.648C156.95 202.056 157.508 202.608 157.916 203.304C158.324 204 158.528 204.768 158.528 205.608C158.528 206.436 158.324 207.204 157.916 207.912C157.508 208.608 156.95 209.16 156.242 209.568C155.534 209.976 154.76 210.18 153.92 210.18ZM153.92 208.902C154.508 208.902 155.042 208.758 155.522 208.47C156.014 208.182 156.398 207.792 156.674 207.3C156.962 206.796 157.106 206.238 157.106 205.626C157.106 205.002 156.968 204.438 156.692 203.934C156.416 203.43 156.032 203.034 155.54 202.746C155.06 202.458 154.526 202.314 153.938 202.314C153.338 202.314 152.798 202.458 152.318 202.746C151.838 203.034 151.46 203.43 151.184 203.934C150.908 204.438 150.77 205.002 150.77 205.626C150.77 206.238 150.908 206.796 151.184 207.3C151.46 207.792 151.838 208.182 152.318 208.47C152.798 208.758 153.332 208.902 153.92 208.902ZM168.927 208.776V212.538H167.541V210H160.647V212.538H159.261V208.776H160.251C160.659 208.356 160.947 207.738 161.115 206.922C161.283 206.094 161.379 205.02 161.403 203.7L161.457 201.234H167.505V208.776H168.927ZM162.717 203.718C162.693 204.942 162.591 205.992 162.411 206.868C162.231 207.732 161.997 208.368 161.709 208.776H166.119V202.476H162.771L162.717 203.718ZM171.107 201.234H172.493V204.726H176.795V201.234H178.181V210H176.795V205.95H172.493V210H171.107V201.234ZM185.157 210.18C184.317 210.18 183.549 209.976 182.853 209.568C182.157 209.16 181.605 208.608 181.197 207.912C180.789 207.204 180.585 206.436 180.585 205.608C180.585 204.768 180.789 204 181.197 203.304C181.605 202.596 182.157 202.044 182.853 201.648C183.561 201.24 184.335 201.036 185.175 201.036C186.015 201.036 186.783 201.24 187.479 201.648C188.187 202.056 188.745 202.608 189.153 203.304C189.561 204 189.765 204.768 189.765 205.608C189.765 206.436 189.561 207.204 189.153 207.912C188.745 208.608 188.187 209.16 187.479 209.568C186.771 209.976 185.997 210.18 185.157 210.18ZM185.157 208.902C185.745 208.902 186.279 208.758 186.759 208.47C187.251 208.182 187.635 207.792 187.911 207.3C188.199 206.796 188.343 206.238 188.343 205.626C188.343 205.002 188.205 204.438 187.929 203.934C187.653 203.43 187.269 203.034 186.777 202.746C186.297 202.458 185.763 202.314 185.175 202.314C184.575 202.314 184.035 202.458 183.555 202.746C183.075 203.034 182.697 203.43 182.421 203.934C182.145 204.438 182.007 205.002 182.007 205.626C182.007 206.238 182.145 206.796 182.421 207.3C182.697 207.792 183.075 208.182 183.555 208.47C184.035 208.758 184.569 208.902 185.157 208.902ZM192.201 201.036H192.705L196.863 205.968L201.003 201.036H201.489V210H200.103V204.078L197.115 207.642H196.575L193.587 204.078V210H192.201V201.036ZM209.586 201.234H215.49V202.476H210.972V210H209.586V201.234ZM220.946 210.18C220.106 210.18 219.338 209.976 218.642 209.568C217.946 209.16 217.394 208.608 216.986 207.912C216.578 207.204 216.374 206.436 216.374 205.608C216.374 204.768 216.578 204 216.986 203.304C217.394 202.596 217.946 202.044 218.642 201.648C219.35 201.24 220.124 201.036 220.964 201.036C221.804 201.036 222.572 201.24 223.268 201.648C223.976 202.056 224.534 202.608 224.942 203.304C225.35 204 225.554 204.768 225.554 205.608C225.554 206.436 225.35 207.204 224.942 207.912C224.534 208.608 223.976 209.16 223.268 209.568C222.56 209.976 221.786 210.18 220.946 210.18ZM220.946 208.902C221.534 208.902 222.068 208.758 222.548 208.47C223.04 208.182 223.424 207.792 223.7 207.3C223.988 206.796 224.132 206.238 224.132 205.626C224.132 205.002 223.994 204.438 223.718 203.934C223.442 203.43 223.058 203.034 222.566 202.746C222.086 202.458 221.552 202.314 220.964 202.314C220.364 202.314 219.824 202.458 219.344 202.746C218.864 203.034 218.486 203.43 218.21 203.934C217.934 204.438 217.796 205.002 217.796 205.626C217.796 206.238 217.934 206.796 218.21 207.3C218.486 207.792 218.864 208.182 219.344 208.47C219.824 208.758 220.358 208.902 220.946 208.902ZM232.598 201.036C233.426 201.036 234.17 201.24 234.83 201.648C235.49 202.044 236.006 202.59 236.378 203.286C236.75 203.982 236.936 204.756 236.936 205.608C236.936 206.46 236.744 207.24 236.36 207.948C235.988 208.644 235.472 209.196 234.812 209.604C234.152 210 233.414 210.198 232.598 210.198C231.95 210.198 231.338 210.072 230.762 209.82C230.198 209.556 229.736 209.196 229.376 208.74V213.24H227.99V201.234H229.286V202.638C229.622 202.134 230.084 201.744 230.672 201.468C231.272 201.18 231.914 201.036 232.598 201.036ZM232.4 208.92C232.988 208.92 233.516 208.782 233.984 208.506C234.464 208.218 234.836 207.822 235.1 207.318C235.376 206.814 235.514 206.25 235.514 205.626C235.514 205.002 235.376 204.438 235.1 203.934C234.836 203.43 234.464 203.034 233.984 202.746C233.516 202.458 232.988 202.314 232.4 202.314C231.872 202.314 231.374 202.434 230.906 202.674C230.45 202.914 230.078 203.28 229.79 203.772C229.502 204.264 229.358 204.876 229.358 205.608C229.358 206.34 229.496 206.958 229.772 207.462C230.06 207.954 230.432 208.32 230.888 208.56C231.356 208.8 231.86 208.92 232.4 208.92ZM243.305 210.18C242.465 210.18 241.697 209.976 241.001 209.568C240.305 209.16 239.753 208.608 239.345 207.912C238.937 207.204 238.733 206.436 238.733 205.608C238.733 204.768 238.937 204 239.345 203.304C239.753 202.596 240.305 202.044 241.001 201.648C241.709 201.24 242.483 201.036 243.323 201.036C244.163 201.036 244.931 201.24 245.627 201.648C246.335 202.056 246.893 202.608 247.301 203.304C247.709 204 247.913 204.768 247.913 205.608C247.913 206.436 247.709 207.204 247.301 207.912C246.893 208.608 246.335 209.16 245.627 209.568C244.919 209.976 244.145 210.18 243.305 210.18ZM243.305 208.902C243.893 208.902 244.427 208.758 244.907 208.47C245.399 208.182 245.783 207.792 246.059 207.3C246.347 206.796 246.491 206.238 246.491 205.626C246.491 205.002 246.353 204.438 246.077 203.934C245.801 203.43 245.417 203.034 244.925 202.746C244.445 202.458 243.911 202.314 243.323 202.314C242.723 202.314 242.183 202.458 241.703 202.746C241.223 203.034 240.845 203.43 240.569 203.934C240.293 204.438 240.155 205.002 240.155 205.626C240.155 206.238 240.293 206.796 240.569 207.3C240.845 207.792 241.223 208.182 241.703 208.47C242.183 208.758 242.717 208.902 243.305 208.902ZM258.312 208.776V212.538H256.926V210H250.032V212.538H248.646V208.776H249.636C250.044 208.356 250.332 207.738 250.5 206.922C250.668 206.094 250.764 205.02 250.788 203.7L250.842 201.234H256.89V208.776H258.312ZM252.102 203.718C252.078 204.942 251.976 205.992 251.796 206.868C251.616 207.732 251.382 208.368 251.094 208.776H255.504V202.476H252.156L252.102 203.718ZM268.056 206.04H261.126C261.21 206.904 261.552 207.6 262.152 208.128C262.752 208.656 263.484 208.92 264.348 208.92C265.344 208.92 266.238 208.524 267.03 207.732L267.84 208.668C267.384 209.148 266.856 209.526 266.256 209.802C265.668 210.066 265.026 210.198 264.33 210.198C263.466 210.198 262.68 210 261.972 209.604C261.264 209.196 260.706 208.644 260.298 207.948C259.89 207.252 259.686 206.478 259.686 205.626C259.686 204.786 259.884 204.018 260.28 203.322C260.676 202.614 261.216 202.056 261.9 201.648C262.584 201.24 263.34 201.036 264.168 201.036C264.912 201.036 265.59 201.204 266.202 201.54C266.814 201.876 267.294 202.344 267.642 202.944C267.99 203.544 268.164 204.228 268.164 204.996C268.164 205.332 268.128 205.68 268.056 206.04ZM264.132 202.296C263.4 202.296 262.764 202.53 262.224 202.998C261.684 203.454 261.336 204.06 261.18 204.816H266.742C266.73 204.036 266.472 203.424 265.968 202.98C265.476 202.524 264.864 202.296 264.132 202.296ZM271.414 210.198C271.102 210.198 270.832 210.09 270.604 209.874C270.388 209.658 270.28 209.388 270.28 209.064C270.28 208.74 270.388 208.47 270.604 208.254C270.832 208.038 271.102 207.93 271.414 207.93C271.726 207.93 271.99 208.038 272.206 208.254C272.434 208.47 272.548 208.74 272.548 209.064C272.548 209.388 272.434 209.658 272.206 209.874C271.99 210.09 271.726 210.198 271.414 210.198Z" fill="white"/>
</svg>
