<svg width="162" height="162" viewBox="0 0 162 162" fill="none" xmlns="http://www.w3.org/2000/svg">
<path d="M80.75 0C103.049 0 121.125 18.0765 121.125 40.375C143.423 40.375 161.5 58.4515 161.5 80.75C161.5 103.049 143.423 121.125 121.125 121.125C121.125 143.423 103.049 161.5 80.75 161.5C58.4515 161.5 40.375 143.423 40.375 121.125C18.0765 121.125 0 103.049 0 80.75C0 58.4515 18.0765 40.375 40.375 40.375C40.375 18.0765 58.4515 0 80.75 0Z" fill="#823F91"/>
<path d="M57.108 75.315V77.5L47.855 77.519V76.968L52.339 72.104C52.9597 71.4327 53.4093 70.8563 53.688 70.375C53.9667 69.8937 54.106 69.4187 54.106 68.95C54.106 68.4053 53.9477 67.962 53.631 67.62C53.3143 67.278 52.89 67.107 52.358 67.107C51.826 67.107 51.3953 67.2843 51.066 67.639C50.7493 67.9937 50.591 68.456 50.591 69.026C50.591 69.254 50.6227 69.558 50.686 69.938H48.102C48.0133 69.596 47.969 69.2413 47.969 68.874C47.969 68.1647 48.1463 67.4933 48.501 66.86C48.8683 66.2267 49.3877 65.7137 50.059 65.321C50.7303 64.9283 51.5093 64.732 52.396 64.732C53.2193 64.732 53.9603 64.9093 54.619 65.264C55.2903 65.606 55.8097 66.081 56.177 66.689C56.557 67.297 56.747 67.981 56.747 68.741C56.747 69.5897 56.519 70.3813 56.063 71.116C55.607 71.838 54.9357 72.6677 54.049 73.605L52.434 75.315H57.108ZM64.8649 64.96H72.9209V67.278H67.4299V77.5H64.8649V64.96ZM80.4413 77.728C79.2253 77.728 78.1107 77.443 77.0973 76.873C76.084 76.303 75.2797 75.524 74.6843 74.536C74.089 73.5353 73.7913 72.4333 73.7913 71.23C73.7913 70.0267 74.089 68.931 74.6843 67.943C75.2797 66.9423 76.084 66.157 77.0973 65.587C78.1107 65.017 79.2253 64.732 80.4413 64.732C81.6573 64.732 82.772 65.017 83.7853 65.587C84.8113 66.157 85.622 66.9423 86.2173 67.943C86.8253 68.931 87.1293 70.0267 87.1293 71.23C87.1293 72.4333 86.8253 73.5353 86.2173 74.536C85.622 75.524 84.8113 76.303 83.7853 76.873C82.772 77.443 81.6573 77.728 80.4413 77.728ZM80.4603 75.353C81.2203 75.353 81.9043 75.182 82.5123 74.84C83.133 74.4853 83.6143 73.9977 83.9563 73.377C84.311 72.7437 84.4883 72.028 84.4883 71.23C84.4883 70.4447 84.311 69.7417 83.9563 69.121C83.6143 68.4877 83.133 67.9937 82.5123 67.639C81.9043 67.2843 81.2203 67.107 80.4603 67.107C79.6877 67.107 78.9973 67.2843 78.3893 67.639C77.7813 67.981 77.3 68.4687 76.9453 69.102C76.6033 69.7227 76.4323 70.432 76.4323 71.23C76.4323 72.028 76.6033 72.7437 76.9453 73.377C77.3 73.9977 77.7813 74.4853 78.3893 74.84C78.9973 75.182 79.6877 75.353 80.4603 75.353ZM100.785 75.182V80.179H98.22V77.5H90.411V80.179H87.846V75.182H88.853C89.3977 74.7387 89.7903 73.8583 90.031 72.541C90.2717 71.211 90.392 69.3743 90.392 67.031V64.96H99.113V75.182H100.785ZM92.805 67.278C92.7797 69.216 92.672 70.8373 92.482 72.142C92.3047 73.434 92.026 74.4473 91.646 75.182H96.548V67.278H92.805ZM110.07 75.866H104.94L104.237 77.5H101.482L107.087 64.732H107.942L113.528 77.5H110.773L110.07 75.866ZM107.505 69.52L105.833 73.757H109.177L107.505 69.52Z" fill="white"/>
<path d="M44.6594 98.643C43.8447 98.643 43.095 98.448 42.4104 98.058C41.7344 97.668 41.197 97.135 40.7984 96.459C40.4084 95.7743 40.2134 95.0247 40.2134 94.21C40.2134 93.3867 40.4084 92.637 40.7984 91.961C41.197 91.285 41.7344 90.752 42.4104 90.362C43.095 89.972 43.8447 89.777 44.6594 89.777C45.4654 89.777 46.2107 89.972 46.8954 90.362C47.58 90.752 48.1217 91.285 48.5204 91.961C48.919 92.637 49.1184 93.3867 49.1184 94.21C49.1184 95.0333 48.919 95.783 48.5204 96.459C48.1217 97.135 47.58 97.668 46.8954 98.058C46.2107 98.448 45.4654 98.643 44.6594 98.643ZM44.6724 97.707C45.305 97.707 45.8814 97.5553 46.4014 97.252C46.9214 96.94 47.3287 96.5197 47.6234 95.991C47.918 95.4537 48.0654 94.8557 48.0654 94.197C48.0654 93.547 47.918 92.9577 47.6234 92.429C47.3287 91.8917 46.9214 91.4713 46.4014 91.168C45.8814 90.8647 45.305 90.713 44.6724 90.713C44.031 90.713 43.4504 90.8647 42.9304 91.168C42.4104 91.4713 42.003 91.8873 41.7084 92.416C41.4137 92.9447 41.2664 93.5383 41.2664 94.197C41.2664 94.8557 41.4137 95.4537 41.7084 95.991C42.003 96.5197 42.4104 96.94 42.9304 97.252C43.4504 97.5553 44.031 97.707 44.6724 97.707ZM50.8506 92.169H51.8516V98.5H50.8506V92.169ZM56.1806 98.5H54.9196L51.9816 95.068L54.6466 92.169H55.8946L53.2036 95.042L56.1806 98.5ZM63.105 92.169L59.985 99.384C59.7424 99.9387 59.4434 100.342 59.088 100.593C58.7414 100.853 58.3254 100.983 57.84 100.983C57.5194 100.983 57.1944 100.94 56.865 100.853V100.008C57.1944 100.051 57.45 100.073 57.632 100.073C57.9614 100.073 58.2387 99.9993 58.464 99.852C58.698 99.7047 58.8974 99.4403 59.062 99.059L59.4 98.305L56.774 92.169H57.853L59.946 97.213L62.039 92.169H63.105ZM64.5488 92.169H69.6058V98.5H68.5918V93.066H65.5498V98.5H64.5488V92.169ZM74.0729 92.026C74.8182 92.026 75.4162 92.247 75.8669 92.689C76.3175 93.131 76.5429 93.768 76.5429 94.6V98.5H75.6069V97.681C75.3729 97.993 75.0739 98.2313 74.7099 98.396C74.3459 98.5607 73.9342 98.643 73.4749 98.643C72.8249 98.643 72.2919 98.4827 71.8759 98.162C71.4685 97.8413 71.2649 97.408 71.2649 96.862C71.2649 96.3247 71.4729 95.8957 71.8889 95.575C72.3049 95.2543 72.8552 95.094 73.5399 95.094H75.5419V94.548C75.5419 94.028 75.4032 93.6337 75.1259 93.365C74.8572 93.0877 74.4845 92.949 74.0079 92.949C73.6265 92.949 73.2885 93.0357 72.9939 93.209C72.6992 93.3737 72.4219 93.625 72.1619 93.963L71.4989 93.417C71.7849 92.949 72.1532 92.6023 72.6039 92.377C73.0545 92.143 73.5442 92.026 74.0729 92.026ZM73.6049 97.811C73.9515 97.811 74.2722 97.7373 74.5669 97.59C74.8615 97.434 75.0955 97.2217 75.2689 96.953C75.4509 96.6843 75.5419 96.3897 75.5419 96.069V95.913H73.6569C73.2149 95.913 72.8769 95.991 72.6429 96.147C72.4089 96.2943 72.2919 96.5153 72.2919 96.81C72.2919 97.1307 72.4175 97.3777 72.6689 97.551C72.9202 97.7243 73.2322 97.811 73.6049 97.811ZM84.256 95.64H79.251C79.3117 96.264 79.5587 96.7667 79.992 97.148C80.4254 97.5293 80.954 97.72 81.578 97.72C82.2974 97.72 82.943 97.434 83.515 96.862L84.1 97.538C83.7707 97.8847 83.3894 98.1577 82.956 98.357C82.5314 98.5477 82.0677 98.643 81.565 98.643C80.941 98.643 80.3734 98.5 79.862 98.214C79.3507 97.9193 78.9477 97.5207 78.653 97.018C78.3584 96.5153 78.211 95.9563 78.211 95.341C78.211 94.7343 78.354 94.1797 78.64 93.677C78.926 93.1657 79.316 92.7627 79.81 92.468C80.304 92.1733 80.85 92.026 81.448 92.026C81.9854 92.026 82.475 92.1473 82.917 92.39C83.359 92.6327 83.7057 92.9707 83.957 93.404C84.2084 93.8373 84.334 94.3313 84.334 94.886C84.334 95.1287 84.308 95.38 84.256 95.64ZM81.422 92.936C80.8934 92.936 80.434 93.105 80.044 93.443C79.654 93.7723 79.4027 94.21 79.29 94.756H83.307C83.2984 94.1927 83.112 93.7507 82.748 93.43C82.3927 93.1007 81.9507 92.936 81.422 92.936ZM86.0928 92.026H86.4568L89.4598 95.588L92.4498 92.026H92.8008V98.5H91.7998V94.223L89.6418 96.797H89.2518L87.0938 94.223V98.5H86.0928V92.026ZM97.8519 98.63C97.2452 98.63 96.6906 98.4827 96.1879 98.188C95.6852 97.8933 95.2866 97.4947 94.9919 96.992C94.6972 96.4807 94.5499 95.926 94.5499 95.328C94.5499 94.7213 94.6972 94.1667 94.9919 93.664C95.2866 93.1527 95.6852 92.754 96.1879 92.468C96.6992 92.1733 97.2582 92.026 97.8649 92.026C98.4716 92.026 99.0262 92.1733 99.5289 92.468C100.04 92.7627 100.443 93.1613 100.738 93.664C101.033 94.1667 101.18 94.7213 101.18 95.328C101.18 95.926 101.033 96.4807 100.738 96.992C100.443 97.4947 100.04 97.8933 99.5289 98.188C99.0176 98.4827 98.4586 98.63 97.8519 98.63ZM97.8519 97.707C98.2766 97.707 98.6622 97.603 99.0089 97.395C99.3642 97.187 99.6416 96.9053 99.8409 96.55C100.049 96.186 100.153 95.783 100.153 95.341C100.153 94.8903 100.053 94.483 99.8539 94.119C99.6546 93.755 99.3772 93.469 99.0219 93.261C98.6752 93.053 98.2896 92.949 97.8649 92.949C97.4316 92.949 97.0416 93.053 96.6949 93.261C96.3482 93.469 96.0752 93.755 95.8759 94.119C95.6766 94.483 95.5769 94.8903 95.5769 95.341C95.5769 95.783 95.6766 96.186 95.8759 96.55C96.0752 96.9053 96.3482 97.187 96.6949 97.395C97.0416 97.603 97.4272 97.707 97.8519 97.707ZM105.799 98.643C105.193 98.643 104.634 98.4957 104.122 98.201C103.62 97.9063 103.221 97.5077 102.926 97.005C102.632 96.4937 102.484 95.9347 102.484 95.328C102.484 94.7213 102.632 94.1667 102.926 93.664C103.221 93.1613 103.62 92.7627 104.122 92.468C104.634 92.1733 105.193 92.026 105.799 92.026C106.354 92.026 106.857 92.1517 107.307 92.403C107.758 92.6457 108.126 92.9793 108.412 93.404L107.697 93.976C107.186 93.2913 106.558 92.949 105.812 92.949C105.379 92.949 104.985 93.0573 104.629 93.274C104.283 93.482 104.01 93.768 103.81 94.132C103.611 94.496 103.511 94.8947 103.511 95.328C103.511 95.77 103.611 96.173 103.81 96.537C104.01 96.901 104.283 97.1913 104.629 97.408C104.985 97.616 105.379 97.72 105.812 97.72C106.558 97.72 107.182 97.382 107.684 96.706L108.399 97.265C108.113 97.6897 107.745 98.0277 107.294 98.279C106.852 98.5217 106.354 98.643 105.799 98.643ZM111.387 93.066H109.255V92.169H114.507V93.066H112.375V98.5H111.387V93.066ZM115.889 92.169H116.89V94.353H118.398C119.117 94.353 119.689 94.5437 120.114 94.925C120.547 95.2977 120.764 95.796 120.764 96.42C120.764 97.044 120.547 97.5467 120.114 97.928C119.689 98.3093 119.117 98.5 118.398 98.5H115.889V92.169ZM118.346 97.616C118.788 97.616 119.13 97.5077 119.373 97.291C119.615 97.0743 119.737 96.7883 119.737 96.433C119.737 96.0777 119.611 95.7917 119.36 95.575C119.117 95.3497 118.775 95.237 118.333 95.237H116.89V97.616H118.346Z" fill="white"/>
</svg>
