<svg width="162" height="162" viewBox="0 0 162 162" fill="none" xmlns="http://www.w3.org/2000/svg">
<path d="M81.25 0C103.549 0 121.625 18.0765 121.625 40.375C143.923 40.375 162 58.4515 162 80.75C162 103.049 143.923 121.125 121.625 121.125C121.625 143.423 103.549 161.5 81.25 161.5C58.9515 161.5 40.875 143.423 40.875 121.125C18.5765 121.125 0.5 103.049 0.5 80.75C0.5 58.4515 18.5765 40.375 40.875 40.375C40.875 18.0765 58.9515 0 81.25 0Z" fill="#823F91"/>
<path d="M51.9784 64.9598V77.4998H49.4134V67.9998L47.0384 68.7598L46.4304 66.4988L51.1234 64.9598H51.9784ZM55.0444 75.1628H57.9704L56.9634 80.8818H54.9304L55.0444 75.1628ZM69.1476 75.3148V77.4998L59.8946 77.5188V76.9678L64.3786 72.1038C64.9992 71.4324 65.4489 70.8561 65.7276 70.3748C66.0062 69.8934 66.1456 69.4184 66.1456 68.9498C66.1456 68.4051 65.9872 67.9618 65.6706 67.6198C65.3539 67.2778 64.9296 67.1068 64.3976 67.1068C63.8656 67.1068 63.4349 67.2841 63.1056 67.6388C62.7889 67.9934 62.6306 68.4558 62.6306 69.0258C62.6306 69.2538 62.6622 69.5578 62.7256 69.9378H60.1416C60.0529 69.5958 60.0086 69.2411 60.0086 68.8738C60.0086 68.1644 60.1859 67.4931 60.5406 66.8598C60.9079 66.2264 61.4272 65.7134 62.0986 65.3208C62.7699 64.9281 63.5489 64.7318 64.4356 64.7318C65.2589 64.7318 65.9999 64.9091 66.6586 65.2638C67.3299 65.6058 67.8492 66.0808 68.2166 66.6888C68.5966 67.2968 68.7866 67.9808 68.7866 68.7408C68.7866 69.5894 68.5586 70.3811 68.1026 71.1158C67.6466 71.8378 66.9752 72.6674 66.0886 73.6048L64.4736 75.3148H69.1476ZM89.1785 64.7318V77.4998H86.6134V70.8118L83.4594 74.7638H82.6234L79.4694 70.8118V77.4998H76.9044V64.7318H77.7404L83.0414 71.5148L88.3424 64.7318H89.1785ZM101.925 64.9598V77.4998H99.3596V67.2778H95.7496C95.7116 69.9504 95.5343 72.0468 95.2176 73.5668C94.9136 75.0741 94.4766 76.1381 93.9066 76.7588C93.3366 77.3794 92.602 77.6898 91.7026 77.6898C91.3353 77.6898 90.9743 77.6264 90.6196 77.4998V75.3148C90.6956 75.3401 90.8666 75.3528 91.1326 75.3528C91.6393 75.3528 92.0446 75.0678 92.3486 74.4978C92.6653 73.9278 92.8933 73.0601 93.0326 71.8948C93.1846 70.7168 93.2733 69.1778 93.2986 67.2778L93.3176 64.9598H101.925ZM104.811 64.9598H107.376V69.7668H112.924V64.9598H115.489V77.4998H112.924V72.0848H107.376V77.4998H104.811V64.9598Z" fill="white"/>
<path d="M28.9437 89.9198H35.6517V98.4998H34.6377V90.8298H29.9577V98.4998H28.9437V89.9198ZM41.2074 92.0258C41.8054 92.0258 42.3427 92.1731 42.8194 92.4678C43.2961 92.7538 43.6687 93.1481 43.9374 93.6508C44.2061 94.1534 44.3404 94.7124 44.3404 95.3278C44.3404 95.9431 44.2017 96.5064 43.9244 97.0178C43.6557 97.5204 43.2831 97.9191 42.8064 98.2138C42.3297 98.4998 41.7967 98.6428 41.2074 98.6428C40.7394 98.6428 40.2974 98.5518 39.8814 98.3698C39.4741 98.1791 39.1404 97.9191 38.8804 97.5898V100.84H37.8794V92.1688H38.8154V93.1828C39.0581 92.8188 39.3917 92.5371 39.8164 92.3378C40.2497 92.1298 40.7134 92.0258 41.2074 92.0258ZM41.0644 97.7198C41.4891 97.7198 41.8704 97.6201 42.2084 97.4208C42.5551 97.2128 42.8237 96.9268 43.0144 96.5628C43.2137 96.1988 43.3134 95.7914 43.3134 95.3408C43.3134 94.8901 43.2137 94.4828 43.0144 94.1188C42.8237 93.7548 42.5551 93.4688 42.2084 93.2608C41.8704 93.0528 41.4891 92.9488 41.0644 92.9488C40.6831 92.9488 40.3234 93.0354 39.9854 93.2088C39.6561 93.3821 39.3874 93.6464 39.1794 94.0018C38.9714 94.3571 38.8674 94.7991 38.8674 95.3278C38.8674 95.8564 38.9671 96.3028 39.1664 96.6668C39.3744 97.0221 39.6431 97.2864 39.9724 97.4598C40.3104 97.6331 40.6744 97.7198 41.0644 97.7198ZM51.3193 92.0258V98.4998H50.3183V94.0278L46.4573 98.6428H46.0933V92.1688H47.0943V96.6538L50.9553 92.0258H51.3193ZM56.601 92.2598C57.173 92.2598 57.7017 92.4028 58.187 92.6888C58.6724 92.9748 59.0537 93.3648 59.331 93.8588C59.617 94.3441 59.76 94.8728 59.76 95.4448C59.76 96.0254 59.6127 96.5628 59.318 97.0568C59.0234 97.5421 58.6247 97.9278 58.122 98.2138C57.6194 98.4911 57.0647 98.6298 56.458 98.6298C55.8167 98.6298 55.249 98.4824 54.755 98.1878C54.261 97.8844 53.8754 97.4641 53.598 96.9268C53.3294 96.3808 53.195 95.7611 53.195 95.0678V93.9628C53.195 92.9921 53.2904 92.1948 53.481 91.5708C53.6804 90.9468 54.0617 90.4268 54.625 90.0108C55.197 89.5948 56.0204 89.2958 57.095 89.1138C58.1697 88.9231 58.8804 88.7541 59.227 88.6068V89.5688C58.8284 89.7421 58.1567 89.8981 57.212 90.0368C56.3107 90.1668 55.639 90.3964 55.197 90.7258C54.755 91.0464 54.4734 91.4278 54.352 91.8698C54.2307 92.3031 54.17 92.8578 54.17 93.5338C54.4387 93.1351 54.7854 92.8231 55.21 92.5978C55.6434 92.3724 56.107 92.2598 56.601 92.2598ZM56.471 97.7068C56.887 97.7068 57.2684 97.6071 57.615 97.4078C57.9617 97.2084 58.2347 96.9354 58.434 96.5888C58.6334 96.2421 58.733 95.8608 58.733 95.4448C58.733 95.0288 58.6334 94.6474 58.434 94.3008C58.2347 93.9541 57.9617 93.6811 57.615 93.4818C57.2684 93.2824 56.887 93.1828 56.471 93.1828C56.0637 93.1828 55.6867 93.2824 55.34 93.4818C54.9934 93.6811 54.716 93.9541 54.508 94.3008C54.3087 94.6474 54.209 95.0288 54.209 95.4448C54.209 95.8521 54.3087 96.2291 54.508 96.5758C54.716 96.9224 54.9934 97.1998 55.34 97.4078C55.6867 97.6071 56.0637 97.7068 56.471 97.7068ZM61.5181 92.1688H62.5191V94.3528H64.0271C64.7378 94.3528 65.3098 94.5434 65.7431 94.9248C66.1764 95.2974 66.3931 95.7958 66.3931 96.4198C66.3931 97.0524 66.1764 97.5594 65.7431 97.9408C65.3184 98.3134 64.7464 98.4998 64.0271 98.4998H61.5181V92.1688ZM67.3161 92.1688H68.3171V98.4998H67.3161V92.1688ZM63.9751 97.6158C64.4258 97.6158 64.7681 97.5161 65.0021 97.3168C65.2448 97.1088 65.3661 96.8141 65.3661 96.4328C65.3661 96.0514 65.2448 95.7568 65.0021 95.5488C64.7594 95.3408 64.4128 95.2368 63.9621 95.2368H62.5191V97.6158H63.9751ZM75.3031 92.1688V98.4998H74.3021V93.0658H71.9491L71.9231 93.8458C71.8884 94.9551 71.8061 95.8478 71.6761 96.5238C71.5461 97.1998 71.3381 97.7068 71.0521 98.0448C70.7661 98.3828 70.3761 98.5518 69.8821 98.5518C69.7607 98.5518 69.6481 98.5344 69.5441 98.4998V97.6548C69.6481 97.6721 69.7347 97.6808 69.8041 97.6808C70.2114 97.6808 70.5017 97.3644 70.6751 96.7318C70.8484 96.0904 70.9481 95.1198 70.9741 93.8198L71.0131 92.1688H75.3031ZM77.5142 92.1688H78.5152V94.3528H80.0232C80.7425 94.3528 81.3145 94.5434 81.7392 94.9248C82.1725 95.2974 82.3892 95.7958 82.3892 96.4198C82.3892 97.0438 82.1725 97.5464 81.7392 97.9278C81.3145 98.3091 80.7425 98.4998 80.0232 98.4998H77.5142V92.1688ZM79.9712 97.6158C80.4132 97.6158 80.7555 97.5074 80.9982 97.2908C81.2408 97.0741 81.3622 96.7881 81.3622 96.4328C81.3622 96.0774 81.2365 95.7914 80.9852 95.5748C80.7425 95.3494 80.4002 95.2368 79.9582 95.2368H78.5152V97.6158H79.9712ZM91.7757 95.0678C92.1484 95.1978 92.4387 95.3928 92.6467 95.6528C92.8634 95.9128 92.9717 96.2248 92.9717 96.5888C92.9717 97.1521 92.768 97.6114 92.3607 97.9668C91.9534 98.3221 91.4074 98.4998 90.7227 98.4998H87.7847V92.1688H90.3977C91.0217 92.1688 91.5157 92.3204 91.8797 92.6238C92.2524 92.9271 92.4387 93.3344 92.4387 93.8458C92.4387 94.0971 92.378 94.3311 92.2567 94.5478C92.144 94.7558 91.9837 94.9291 91.7757 95.0678ZM88.7857 94.7558H90.4107C90.7574 94.7558 91.0174 94.6821 91.1907 94.5348C91.364 94.3788 91.4507 94.1664 91.4507 93.8978C91.4507 93.3431 91.104 93.0658 90.4107 93.0658H88.7857V94.7558ZM90.6577 97.6158C91.0737 97.6158 91.3944 97.5204 91.6197 97.3298C91.8537 97.1391 91.9707 96.8921 91.9707 96.5888C91.9707 96.2941 91.8537 96.0644 91.6197 95.8998C91.3944 95.7264 91.0737 95.6398 90.6577 95.6398H88.7857V97.6158H90.6577ZM98.4995 92.0258H98.8635L101.867 95.5878L104.857 92.0258H105.208V98.4998H104.207V94.2228L102.049 96.7968H101.659L99.5005 94.2228V98.4998H98.4995V92.0258ZM113.002 95.6398H107.997C108.057 96.2638 108.304 96.7664 108.738 97.1478C109.171 97.5291 109.7 97.7198 110.324 97.7198C111.043 97.7198 111.689 97.4338 112.261 96.8618L112.846 97.5378C112.516 97.8844 112.135 98.1574 111.702 98.3568C111.277 98.5474 110.813 98.6428 110.311 98.6428C109.687 98.6428 109.119 98.4998 108.608 98.2138C108.096 97.9191 107.693 97.5204 107.399 97.0178C107.104 96.5151 106.957 95.9561 106.957 95.3408C106.957 94.7341 107.1 94.1794 107.386 93.6768C107.672 93.1654 108.062 92.7624 108.556 92.4678C109.05 92.1731 109.596 92.0258 110.194 92.0258C110.731 92.0258 111.221 92.1471 111.663 92.3898C112.105 92.6324 112.451 92.9704 112.703 93.4038C112.954 93.8371 113.08 94.3311 113.08 94.8858C113.08 95.1284 113.054 95.3798 113.002 95.6398ZM110.168 92.9358C109.639 92.9358 109.18 93.1048 108.79 93.4428C108.4 93.7721 108.148 94.2098 108.036 94.7558H112.053C112.044 94.1924 111.858 93.7504 111.494 93.4298C111.138 93.1004 110.696 92.9358 110.168 92.9358ZM117.698 98.6428C117.092 98.6428 116.533 98.4954 116.021 98.2008C115.519 97.9061 115.12 97.5074 114.825 97.0048C114.531 96.4934 114.383 95.9344 114.383 95.3278C114.383 94.7211 114.531 94.1664 114.825 93.6638C115.12 93.1611 115.519 92.7624 116.021 92.4678C116.533 92.1731 117.092 92.0258 117.698 92.0258C118.253 92.0258 118.756 92.1514 119.206 92.4028C119.657 92.6454 120.025 92.9791 120.311 93.4038L119.596 93.9758C119.085 93.2911 118.457 92.9488 117.711 92.9488C117.278 92.9488 116.884 93.0571 116.528 93.2738C116.182 93.4818 115.909 93.7678 115.709 94.1318C115.51 94.4958 115.41 94.8944 115.41 95.3278C115.41 95.7698 115.51 96.1728 115.709 96.5368C115.909 96.9008 116.182 97.1911 116.528 97.4078C116.884 97.6158 117.278 97.7198 117.711 97.7198C118.457 97.7198 119.081 97.3818 119.583 96.7058L120.298 97.2648C120.012 97.6894 119.644 98.0274 119.193 98.2788C118.751 98.5214 118.253 98.6428 117.698 98.6428ZM126.487 92.1688V98.4998H125.486V96.1858H124.29L122.548 98.4998H121.378L123.224 96.0558C122.756 95.9171 122.387 95.6874 122.119 95.3668C121.859 95.0374 121.729 94.6474 121.729 94.1968C121.729 93.5814 121.932 93.0918 122.34 92.7278C122.747 92.3551 123.289 92.1688 123.965 92.1688H126.487ZM125.486 93.0658H124.03C123.631 93.0658 123.319 93.1654 123.094 93.3648C122.868 93.5641 122.756 93.8371 122.756 94.1838C122.756 94.5218 122.868 94.7948 123.094 95.0028C123.328 95.2021 123.644 95.3018 124.043 95.3018H125.486V93.0658ZM133.772 98.4998H128.702V92.1688H129.703V97.6158H132.745V92.1688H133.746V97.6158H134.773V100.333H133.772V98.4998Z" fill="white"/>
</svg>
